<?xml version="1.0" encoding="utf-8"?>
<!-- Generator: Adobe Illustrator 19.0.0, SVG Export Plug-In . SVG Version: 6.00 Build 0)  -->
<svg version="1.1" id="Layer_1" xmlns="http://www.w3.org/2000/svg" xmlns:xlink="http://www.w3.org/1999/xlink" x="0px" y="0px"
	 viewBox="-31 44.4 151.2 273.6" style="enable-background:new -31 44.4 151.2 273.6;" xml:space="preserve">
<style type="text/css">
	.st0{fill:#FFFFFF;}
	.st1{fill:#A23D21;}
	.st2{fill:#F15E39;}
	.st3{fill:none;}
	.st4{fill:none;stroke:#000000;stroke-width:0.8814;stroke-linecap:round;stroke-linejoin:round;stroke-miterlimit:10;}
	.st5{fill:#404358;}
	.st6{fill:#6C86BF;}
	.st7{fill:#585D77;}
	.st8{fill:#F9D73A;}
	.st9{fill:#D7B550;}
	.st10{fill:#E6E7E8;}
	.st11{fill:#BCBEC0;}
	.st12{fill:#566B99;}
	.st13{fill:#3F4358;}
	.st14{fill:#DBBF34;}
	.st15{fill:#FEEA96;}
	.st16{fill:#B9CBE9;}
	.st17{fill:none;stroke:#000000;stroke-width:0.2204;stroke-linecap:round;stroke-linejoin:round;stroke-miterlimit:10;}
	.st18{fill:none;stroke:#404358;stroke-width:0.9497;stroke-linecap:round;stroke-linejoin:round;stroke-miterlimit:10;}
	.st19{fill:none;stroke:#404358;stroke-width:1.2087;stroke-linecap:round;stroke-linejoin:round;stroke-miterlimit:10;}
</style>
<g id="XMLID_2079_">
	<path id="XMLID_2078_" class="st0" d="M58.5,69.5c-1.9,0-3.8,0.5-5.4,1.3l0,0c-2.2-2.8-5.7-4.6-9.6-4.6c-6.8,0-12.3,5.5-12.3,12.3
		c0,1.2,0.2,2.3,0.5,3.4c0.1-0.1,0.2-0.2,0.3-0.4l0,0c0,0.8,0.5,1.5,1.2,1.9s1.5,0.6,2.3,0.7c3.8,0.7,7.8,0.9,11.7,0.8
		c1.5,4.8,6,8.2,11.3,8.2c6.5,0,11.9-5.3,11.9-11.9S65,69.5,58.5,69.5z"/>
	<g id="XMLID_2381_">
		<g id="XMLID_1887_">
			<g id="XMLID_1888_">
				<path id="XMLID_2177_" class="st1" d="M40.6,258c1.4,0.6,2.7,1.3,4.1,1.9c0.4,0.2,0.8,0.3,1.2,0.4c0.2,0,0.5,0,0.7-0.1
					c0.6-0.1,1.3-0.2,1.9-0.3c0,0,0.1,0,0.1-0.1v-0.1c0.1-0.7,0.2-1.4,0.3-2.1c0-0.2,0-0.4-0.1-0.5c-0.1-0.1-0.3-0.1-0.4,0
					c-2.1,0.3-4.2,0.6-6.3,1c-0.2,0-0.4,0-0.5-0.1"/>
				<path id="XMLID_2174_" class="st1" d="M36.3,261.7c0.9-0.1,1.8-0.2,2.7-0.4c-0.8-0.3-1.6-0.7-2.4-1c-0.1,0.2-0.2,0.5-0.3,0.7"/>
				<path id="XMLID_2171_" class="st2" d="M48.8,264.9"/>
				<line id="XMLID_2168_" class="st3" x1="49.3" y1="257.1" x2="40.4" y2="258.2"/>
				<line id="XMLID_2165_" class="st3" x1="36.1" y1="261.7" x2="39.7" y2="261.2"/>
				<line id="XMLID_2162_" class="st3" x1="49.1" y1="260" x2="46.1" y2="260.4"/>
				<path id="XMLID_2160_" class="st2" d="M82.5,266l-0.9,0.1l-13.7,1.8l-5.8,0.7l-7.3,0.9c0.1-1.1,0.1-2.2,0.2-3.2l7-0.8l5.8-0.7
					l13.3-1.6h0.4C83.9,264.1,83.9,265.1,82.5,266z"/>
				<polygon id="XMLID_2159_" class="st2" points="35,282.3 32.3,282.7 32.6,281.2 				"/>
				<path id="XMLID_2156_" class="st1" d="M48.2,277.5c0,1-0.1,1.9-0.1,2.9l-7.5,1.1l-4.6-2.2L48.2,277.5z"/>
				<path id="XMLID_2153_" class="st1" d="M63.3,278.1l-0.9,0.1l0,0l-8.2,1.2c0.1-1,0.1-1.9,0.2-2.8l8-1.2l0,0
					C63.3,275.7,64.9,276.7,63.3,278.1z"/>
				<path id="XMLID_2151_" class="st2" d="M86.2,287.8l-1,0.2l-16.5,2.7l-5.7,0.9l-9.4,1.5c0.1-1,0.1-2.1,0.1-3.2l9.2-1.4l5.7-0.9
					l16.2-2.5H85C86.1,285.2,87.7,286.3,86.2,287.8z"/>
				<path id="XMLID_2140_" class="st2" d="M56.8,240.6c0,0-0.5,6.3-1.1,15.7c-0.1,1-0.1,2-0.2,3c-0.1,2.2-0.3,4.6-0.5,7.1
					c-0.1,1-0.1,2.1-0.2,3.2c-0.1,2.3-0.3,4.7-0.4,7.1c-0.1,0.9-0.1,1.9-0.2,2.8c-0.2,3.5-0.4,7-0.6,10.4c-0.1,1.1-0.1,2.1-0.1,3.2
					c-0.4,8-0.7,15.7-0.7,22.1c0,0.5-0.3,1-0.8,1.2c-1.7,0.8-2.9,0.8-4.6,0c-0.5-0.2-0.7-0.7-0.7-1.2c0.4-9.1,0.7-18,1.1-26.9
					c0-1.1,0.1-2.2,0.1-3.3c0.1-1.5,0.1-3,0.2-4.6c0-1,0.1-1.9,0.1-2.9c0.2-4.2,0.4-8.4,0.6-12.6c0.1-1.1,0.1-2.2,0.2-3.3
					c0-0.5,0.1-1,0.1-1.5c0.1-1,0.1-2,0.2-3c0.3-5.4,0.6-10.9,1-16.4L56.8,240.6z"/>
				<path id="XMLID_2137_" class="st2" d="M47.9,284.9c-0.1,1.1-0.1,2.2-0.1,3.3L35,282.3l-2.4-1.1l-0.9-0.4l-1.6-0.7
					c-1.6-1.3,0.9-2.9,2.5-2.3l0.6,0.3l2.8,1.3l4.6,2.2L47.9,284.9z"/>
				<path id="XMLID_2130_" class="st2" d="M33.5,258.8l2.9,1.2l-0.3,1.8l-2.9,16.3l-0.6-0.3c-1.6-0.6-4.1,1-2.5,2.3l1.6,0.7l0.9,0.4
					l-0.3,1.5l-3.7,20.7c-0.1,0.5-0.5,0.9-1,1c-1.5,0.4-2.7,0.7-4,0.3c-0.6-0.2-1-0.8-0.9-1.5l11.1-65.3l6.2,1.4l-3,17.6l-1-0.4
					C34.6,256.1,32.5,257.2,33.5,258.8z"/>
				<path id="XMLID_2127_" class="st2" d="M49,261.6c-0.1,1.1-0.1,2.2-0.2,3.3l-9.2-3.7l-3.3-1.3l-2.9-1.2c-1-1.5,1.1-2.7,2.5-2.3
					l1,0.4l3.4,1.3l5.7,2.2L49,261.6z"/>
				<path id="XMLID_2124_" class="st1" d="M68.5,287.6l-5.7,0.9l-0.4-10.3l0.9-0.1c1.5-1.4,0-2.4-1-2.6l0,0l-0.3-6.9l5.8-0.7
					l0.1,4.6h-0.1c-1.3-0.5-3.8,0.7-2.3,2.4l2.5,1L68.5,287.6z"/>
				<path id="XMLID_2121_" class="st1" d="M80.6,260.7L67.4,256l-2.6-0.9c-1.5-1.5-0.1-2.9,2.4-2.5l0.2,0.1l12.7,4.7L80.6,260.7z"/>
				<path id="XMLID_2118_" class="st1" d="M63.2,258.3l-1.5,0.2l-6.2,0.8c0.1-1,0.1-2,0.2-3l5.9-0.8h0.1
					C62.9,255.8,63.9,256.9,63.2,258.3z"/>
				<path id="XMLID_2115_" class="st1" d="M67.5,256l-2.6-0.9c-1.5-1.5-0.1-2.9,2.4-2.5l0.2,0.1l-0.5-12l-5.9,0.4l0.5,14.3h0.1v3
					l0.3,7l5.8-0.7L67.5,256z"/>
				<path id="XMLID_2112_" class="st1" d="M84.3,282.6l-16.1-6.8l-2.5-1c-1.5-1.7,1-2.9,2.3-2.4h0.1l15.7,6.6L84.3,282.6z"/>
				<path id="XMLID_2105_" class="st1" d="M68.8,296.3c0,0.6-0.3,1.1-0.9,1.3c-1.4,0.5-2.7,0.7-4,0c-0.4-0.2-0.7-0.7-0.8-1.2
					l-0.2-4.9l5.7-0.9L68.8,296.3z"/>
				<path id="XMLID_2098_" class="st2" d="M94.3,307.2c0.1,0.5-0.2,1.1-0.6,1.3c-1.6,1-2.8,1-4.5,0.1c-0.4-0.2-0.7-0.6-0.7-1
					l-3.3-19.7l1-0.2c1.5-1.5-0.1-2.6-1.3-2.7h-0.2l-0.4-2.5l0,0l-0.6-3.6l-2.1-13l0.9-0.1c1.4-0.9,1.4-1.8-1-2.9h-0.4l-0.4-2.5
					l-0.5-3.3l-2.9-17.6l6.3-1.5L94.3,307.2z"/>
				<path id="XMLID_2095_" class="st2" d="M48.8,264.9"/>
				<line id="XMLID_2092_" class="st3" x1="49.3" y1="257.1" x2="40.4" y2="258.2"/>
				<line id="XMLID_2089_" class="st3" x1="36.1" y1="261.7" x2="39.7" y2="261.2"/>
				<line id="XMLID_2086_" class="st3" x1="49.1" y1="260" x2="46.1" y2="260.4"/>
				<polygon id="XMLID_2083_" class="st2" points="35,282.3 32.3,282.7 32.6,281.2 				"/>
				<path id="XMLID_2080_" class="st2" d="M48.8,264.9"/>
				<line id="XMLID_2077_" class="st3" x1="49.3" y1="257.1" x2="40.4" y2="258.2"/>
				<line id="XMLID_2074_" class="st3" x1="36.1" y1="261.7" x2="39.7" y2="261.2"/>
				<polygon id="XMLID_2071_" class="st1" points="35,282.3 32.3,282.7 32.6,281.2 				"/>
				<path id="XMLID_2068_" class="st1" d="M67.4,252.6l-0.2-0.1c-2.4-0.4-3.8,1-2.4,2.5l2.6,0.9"/>
				<path id="XMLID_2067_" class="st4" d="M48.8,264.9"/>
				<path id="XMLID_2066_" class="st5" d="M40.4,258.7c-0.2,0-0.4-0.2-0.4-0.4c0-0.2,0.1-0.5,0.4-0.5l8.9-1.1c0.3,0,0.5,0.1,0.5,0.4
					c0,0.2-0.1,0.5-0.4,0.5L40.4,258.7L40.4,258.7z"/>
				<path id="XMLID_2065_" class="st5" d="M36.1,262.1c-0.2,0-0.4-0.2-0.4-0.4c0-0.2,0.1-0.5,0.4-0.5l3.6-0.4c0.3,0,0.5,0.1,0.5,0.4
					c0,0.2-0.1,0.5-0.4,0.5L36.1,262.1L36.1,262.1z"/>
				<path id="XMLID_2064_" class="st5" d="M46.1,260.9c-0.2,0-0.4-0.2-0.4-0.4s0.1-0.5,0.4-0.5l3-0.4c0.2,0,0.5,0.1,0.5,0.4
					c0,0.2-0.1,0.5-0.4,0.5L46.1,260.9L46.1,260.9z"/>
				<path id="XMLID_2061_" class="st5" d="M54.8,270c-0.1,0-0.2,0-0.3-0.1c-0.1-0.1-0.1-0.2-0.1-0.3c0-0.7,0.1-1.3,0.1-2l0.1-1.2
					c0-0.2,0.2-0.4,0.4-0.4l26.4-3.2c0.1,0,0.2,0,0.2,0c1.5,0.6,2.2,1.3,2.2,2c0,0.6-0.3,1.1-1.1,1.6c-0.1,0-0.1,0.1-0.2,0.1
					l-0.9,0.1L54.8,270C54.9,270,54.8,270,54.8,270z M55.4,266.7l-0.1,0.8c0,0.5-0.1,1-0.1,1.5l27-3.5c0.4-0.3,0.7-0.6,0.7-0.8
					c0-0.1-0.2-0.6-1.6-1.2L55.4,266.7z"/>
				<path id="XMLID_2060_" class="st5" d="M32.3,283.1c-0.1,0-0.2,0-0.3-0.1c-0.1-0.1-0.1-0.2-0.1-0.4l0.3-1.5
					c0-0.1,0.1-0.3,0.2-0.3c0.1-0.1,0.3-0.1,0.4,0l2.4,1.1c0.2,0.1,0.3,0.3,0.2,0.5c0,0.2-0.2,0.3-0.4,0.4L32.3,283.1
					C32.4,283.1,32.4,283.1,32.3,283.1z"/>
				<path id="XMLID_2057_" class="st5" d="M40.6,281.9c-0.1,0-0.1,0-0.2,0l-4.6-2.2c-0.2-0.1-0.3-0.3-0.2-0.5c0-0.2,0.2-0.3,0.4-0.4
					l12.3-1.8c0.1,0,0.3,0,0.4,0.1s0.2,0.2,0.1,0.3l-0.1,2.9c0,0.2-0.2,0.4-0.4,0.4L40.6,281.9L40.6,281.9z M37.4,279.5l3.2,1.5
					l7.1-1l0.1-2L37.4,279.5z"/>
				<path id="XMLID_2054_" class="st5" d="M54.2,279.9c-0.1,0-0.2,0-0.3-0.1c-0.1-0.1-0.2-0.2-0.1-0.4v-0.3c0-0.8,0.1-1.7,0.2-2.5
					c0-0.2,0.2-0.4,0.4-0.4l7.9-1.2h0.2c0.8,0.2,1.7,0.7,1.9,1.6c0.1,0.4,0.1,1.1-0.8,1.8c-0.1,0.1-0.1,0.1-0.2,0.1L54.2,279.9
					C54.3,279.9,54.2,279.9,54.2,279.9z M54.8,277c0,0.6-0.1,1.3-0.1,1.9l8.4-1.2c0.3-0.3,0.5-0.6,0.4-0.9c-0.1-0.4-0.7-0.8-1.2-0.9
					L54.8,277z"/>
				<path id="XMLID_2051_" class="st5" d="M53.5,293.5c-0.1,0-0.2,0-0.3-0.1c-0.1-0.1-0.2-0.2-0.1-0.4l0.2-3.2
					c0-0.2,0.2-0.4,0.4-0.4l31.2-4.8H85c0.9,0.1,1.9,0.7,2.2,1.5c0.2,0.5,0.2,1.2-0.7,2c-0.1,0.1-0.1,0.1-0.2,0.1l-1,0.2L53.5,293.5
					C53.6,293.5,53.5,293.5,53.5,293.5z M54.1,290.3l-0.1,2.3l32-5.2c0.3-0.4,0.5-0.7,0.4-1c-0.2-0.5-0.8-0.8-1.4-0.9h-0.2
					L54.1,290.3z"/>
				<path id="XMLID_2048_" class="st5" d="M49.7,317.4c-0.8,0-1.6-0.2-2.4-0.7c-0.6-0.3-1-1-1-1.6l0.3-7.7
					c0.3-6.5,0.5-12.8,0.8-19.2v-0.1c0-1.1,0.1-2.1,0.1-3.2c0.1-1.5,0.1-3,0.2-4.6l0.1-2.9c0.2-4.2,0.4-8.4,0.6-12.6l0.3-5.3
					c0-0.8,0.1-1.7,0.1-2.6c0.3-5.4,0.6-11,1-16.4c0-0.2,0.2-0.4,0.4-0.4l6.5-0.1l0,0c0.1,0,0.2,0.1,0.3,0.1
					c0.1,0.1,0.1,0.2,0.1,0.3c0,0-0.5,6.3-1.1,15.7c-0.1,1-0.1,2-0.2,3c-0.1,1.6-0.2,3.3-0.3,5l-0.2,3.3c0,0.7-0.1,1.3-0.1,2
					l-0.1,1.1c-0.1,1.9-0.2,3.9-0.4,5.9c-0.1,0.8-0.1,1.7-0.2,2.5v0.3c-0.2,3.5-0.4,7-0.6,10.4l-0.2,3.2c-0.4,8.6-0.7,16.1-0.7,22.1
					c0,0.7-0.4,1.3-1,1.6C51.3,317.2,50.5,317.4,49.7,317.4z M50.7,241.1c-0.3,5.3-0.7,10.7-1,16c-0.1,0.9-0.1,1.7-0.1,2.5l-0.3,5.3
					c-0.2,4.2-0.4,8.4-0.6,12.6l-0.1,2.9c-0.1,1.5-0.1,3-0.2,4.6c-0.1,1.1-0.1,2.1-0.1,3.2v0.1c-0.3,6.4-0.5,12.8-0.8,19.2l-0.3,7.7
					c0,0.3,0.2,0.7,0.5,0.8c1.5,0.8,2.6,0.8,4.2,0c0.3-0.1,0.5-0.5,0.5-0.8c0.1-6,0.3-13.5,0.7-22.1l0.2-3.2c0.2-3.5,0.4-7,0.6-10.4
					v-0.3c0-0.8,0.1-1.7,0.2-2.5c0.1-2,0.2-4,0.4-5.9l0.1-1.1c0-0.7,0.1-1.3,0.1-2l0.2-3.3c0.1-1.7,0.2-3.4,0.3-5c0.1-1,0.1-2,0.2-3
					c0.5-7.8,1-13.6,1.1-15.2L50.7,241.1z"/>
				<path id="XMLID_2045_" class="st5" d="M47.8,288.7c-0.1,0-0.1,0-0.2,0l-17.7-8.3c0,0-0.1,0-0.1-0.1c-0.7-0.6-0.9-1.3-0.5-1.9
					c0.6-1,2.2-1.5,3.4-1.1l15.4,7.2c0.2,0.1,0.3,0.2,0.3,0.4c-0.1,1.1-0.1,2.1-0.1,3.2v0.1c0,0.1-0.1,0.3-0.2,0.4
					C47.9,288.7,47.9,288.7,47.8,288.7z M30.3,279.6l17,7.9c0-0.8,0.1-1.6,0.1-2.4L32.3,278c-0.8-0.3-2,0.2-2.3,0.7
					C30,278.9,29.9,279.2,30.3,279.6z"/>
				<path id="XMLID_2042_" class="st5" d="M25.1,305.3c-0.5,0-1-0.1-1.5-0.2c-0.8-0.3-1.4-1.1-1.2-2l11.1-65.3
					c0-0.1,0.1-0.2,0.2-0.3s0.2-0.1,0.3-0.1l6.2,1.4c0.2,0.1,0.4,0.3,0.3,0.5l-3.1,17.6c0,0.1-0.1,0.2-0.2,0.3
					c-0.1,0.1-0.3,0.1-0.4,0l-1-0.4c-0.7-0.2-1.6,0.1-2,0.6c-0.2,0.3-0.2,0.6,0,0.9l2.8,1.1c0.2,0.1,0.3,0.3,0.3,0.5L33.7,278
					c0,0.1-0.1,0.3-0.2,0.3c-0.1,0.1-0.3,0.1-0.4,0l-0.6-0.3c-0.8-0.3-2,0.2-2.3,0.7c-0.1,0.1-0.2,0.4,0.2,0.8l2.4,1.1
					c0.2,0.1,0.3,0.3,0.2,0.5l-4,22.2c-0.1,0.7-0.6,1.2-1.3,1.4C26.9,305.1,26,305.3,25.1,305.3z M34.3,238.5l-11,64.8
					c-0.1,0.4,0.2,0.9,0.6,1c1.1,0.3,2.1,0.2,3.7-0.3c0.3-0.1,0.6-0.4,0.6-0.7l3.9-21.8l-2.2-1c0,0-0.1,0-0.1-0.1
					c-0.7-0.6-0.9-1.3-0.5-1.9c0.6-1,2.2-1.5,3.4-1.1h0.1l3.1-17.1l-2.6-1c-0.1,0-0.2-0.1-0.2-0.2c-0.5-0.7-0.5-1.4,0-2
					c0.6-0.8,2-1.2,3-0.9l0.5,0.2l3-16.6L34.3,238.5z"/>
				<path id="XMLID_2039_" class="st5" d="M48.8,265.3c-0.1,0-0.1,0-0.2,0l-15.4-6.1c-0.1,0-0.2-0.1-0.2-0.2c-0.5-0.7-0.5-1.4,0-2
					c0.6-0.8,2-1.2,3-0.9l13.1,5.1c0.2,0.1,0.3,0.2,0.3,0.4l-0.2,3.3c0,0.1-0.1,0.3-0.2,0.4C49,265.3,48.9,265.3,48.8,265.3z
					 M33.8,258.4l14.6,5.9l0.1-2.4l-12.7-5c-0.7-0.2-1.6,0.1-2,0.6C33.6,257.8,33.6,258.1,33.8,258.4z"/>
				<path id="XMLID_2036_" class="st5" d="M62.8,288.9c-0.1,0-0.2,0-0.3-0.1c-0.1-0.1-0.2-0.2-0.2-0.3L62,278.2
					c0-0.2,0.2-0.4,0.4-0.5l0.7-0.1c0.3-0.3,0.5-0.6,0.4-0.9c-0.1-0.4-0.7-0.8-1.2-0.9c-0.2,0-0.4-0.2-0.4-0.4l-0.3-6.9
					c0-0.2,0.2-0.4,0.4-0.5l5.8-0.7c0.1,0,0.2,0,0.3,0.1c0.1,0.1,0.2,0.2,0.2,0.3l0.1,4.6c0,0.2-0.1,0.3-0.2,0.4
					c-0.1,0.1-0.3,0.1-0.4,0c-0.7-0.3-1.8,0-2.1,0.5c-0.1,0.1-0.3,0.4,0.2,1l2.4,1c0.2,0.1,0.3,0.2,0.3,0.4l0.4,11.8
					c0,0.2-0.2,0.4-0.4,0.4L62.8,288.9C62.9,288.9,62.9,288.9,62.8,288.9z M62.9,278.6l0.4,9.4l4.8-0.7l-0.4-11.1l-2.2-0.9
					c-0.1,0-0.1-0.1-0.2-0.1c-0.9-1-0.5-1.9-0.3-2.2c0.5-0.7,1.6-1.1,2.6-1l-0.1-3.5l-4.9,0.6l0.2,6.1c0.7,0.2,1.4,0.8,1.6,1.5
					c0.1,0.4,0.1,1.1-0.8,1.8c-0.1,0.1-0.1,0.1-0.2,0.1L62.9,278.6z"/>
				<path id="XMLID_2035_" class="st5" d="M80.6,260.4c0,0-0.1-0.7-0.3-1.9c-0.1-0.3-0.1-0.6-0.2-1c0-0.2-0.2-0.1-0.4-0.2
					c-0.2-0.1-0.4-0.1-0.6-0.2c-0.8-0.3-1.6-0.6-2.5-0.9c-1.8-0.6-3.9-1.3-5.9-2c-1-0.3-2-0.7-3-1c-0.8-0.4-1.9-0.3-2.5,0.1
					c-0.3,0.2-0.4,0.4-0.4,0.7c0,0.1,0.1,0.3,0.2,0.5s0.2,0.2,0.3,0.3c1,0.3,2,0.7,3,1c2,0.7,4.1,1.4,5.9,2.1
					C77.8,259.2,80.5,260.3,80.6,260.4c0.3,0.1-0.1,1-0.5,0.9c0,0-2.8-0.9-6.4-2.2c-1.8-0.6-3.8-1.4-5.9-2.1c-1-0.4-2-0.7-3-1.1
					c-0.4-0.1-0.7-0.4-0.8-0.7c-0.2-0.3-0.3-0.6-0.4-0.9c-0.1-0.8,0.4-1.5,1-1.7c0.5-0.3,1.1-0.3,1.7-0.3c0.3,0,0.6,0,0.8,0.1
					c0.4,0.1,0.5,0.2,0.8,0.3c1,0.4,2,0.8,2.9,1.2c2,0.8,4,1.6,5.8,2.3c0.9,0.4,1.7,0.7,2.5,1c0.2,0.1,0.4,0.1,0.6,0.2l0.3,0.1
					c0,0,0.1,0,0.1,0.1v0.2c0.1,0.4,0.1,0.7,0.1,1C80.5,259.6,80.6,260.4,80.6,260.4C80.7,260.8,80.7,260.7,80.6,260.4z"/>
				<path id="XMLID_2034_" class="st5" d="M61.6,255.9c-0.2,0-0.4-0.2-0.4-0.4l-0.5-14.3c0-0.2,0.2-0.4,0.4-0.5l5.9-0.4
					c0.1,0,0.2,0,0.3,0.1c0.1,0.1,0.1,0.2,0.1,0.3l0.4,11.9c0,0.2-0.2,0.4-0.4,0.5c-0.3,0-0.4-0.2-0.5-0.4l-0.4-11.4l-5.1,0.4
					l0.5,13.9C62,255.7,61.8,255.9,61.6,255.9L61.6,255.9z"/>
				<path id="XMLID_2033_" class="st4" d="M61.7,258.4"/>
				<path id="XMLID_2032_" class="st5" d="M62,265.9c-0.1,0-0.2,0-0.3-0.1c-0.1-0.1-0.2-0.2-0.2-0.3l-0.3-7c0-0.2,0.2-0.4,0.4-0.5
					c0.3,0,0.4,0.2,0.5,0.4l0.3,6.5l4.9-0.6l-0.3-8.4c0-0.2,0.2-0.4,0.4-0.5l0,0c0.2,0,0.4,0.2,0.4,0.4l0.3,8.8
					c0,0.2-0.2,0.4-0.4,0.5L62,265.9L62,265.9z"/>
				<path id="XMLID_2029_" class="st5" d="M84.3,283.1c-0.1,0-0.1,0-0.2,0l-18.6-7.8c-0.1,0-0.1-0.1-0.2-0.1c-0.9-1-0.5-1.9-0.3-2.2
					c0.6-0.9,2.1-1.3,3.1-0.9l15.8,6.6c0.1,0.1,0.2,0.2,0.3,0.3l0.6,3.6c0,0.2,0,0.3-0.2,0.4C84.5,283,84.4,283.1,84.3,283.1z
					 M65.9,274.4l17.8,7.5l-0.4-2.5l-15.4-6.5c-0.7-0.3-1.8,0-2.1,0.5C65.7,273.5,65.4,273.8,65.9,274.4z"/>
				<path id="XMLID_2026_" class="st5" d="M65.7,298.5c-0.7,0-1.4-0.2-2-0.5s-1-0.9-1-1.5l-0.2-4.9c0-0.2,0.2-0.4,0.4-0.5l5.7-0.9
					c0.1,0,0.3,0,0.4,0.1s0.2,0.2,0.2,0.3l0.2,5.7c0,0.8-0.4,1.4-1.1,1.7C67.2,298.3,66.5,298.5,65.7,298.5z M63.4,291.9l0.2,4.5
					c0,0.3,0.2,0.6,0.5,0.8c1.1,0.5,2.2,0.5,3.7-0.1c0.4-0.1,0.6-0.5,0.6-0.9l0,0l-0.2-5.2L63.4,291.9z"/>
				<path id="XMLID_2023_" class="st5" d="M91.4,309.7c-0.8,0-1.5-0.2-2.4-0.6c-0.5-0.2-0.9-0.7-1-1.3l-3.3-19.7
					c0-0.1,0-0.2,0.1-0.3s0.2-0.2,0.3-0.2l0.9-0.1c0.3-0.4,0.5-0.7,0.4-1c-0.2-0.5-0.8-0.8-1.4-0.9h-0.2c-0.3,0-0.5-0.1-0.5-0.4
					l-0.4-2.4v-0.1l-2.7-16.5c0-0.1,0-0.2,0.1-0.3s0.2-0.2,0.3-0.2l0.8-0.1c0.4-0.3,0.7-0.6,0.7-0.8c0-0.1-0.2-0.6-1.6-1.2h-0.3
					c-0.2,0-0.4-0.1-0.5-0.4l-3.9-23.5c0-0.2,0.1-0.4,0.3-0.5l6.3-1.5c0.1,0,0.2,0,0.3,0.1c0.1,0.1,0.2,0.2,0.2,0.3l10.8,69.1l0,0
					c0.1,0.7-0.2,1.4-0.8,1.8C93,309.4,92.2,309.7,91.4,309.7z M85.7,288.3l3.2,19.3c0,0.3,0.2,0.5,0.5,0.7c1.6,0.8,2.7,0.8,4.1-0.1
					c0.3-0.2,0.5-0.5,0.4-0.9l-10.7-68.6l-5.5,1.3l3.7,22.7c0.1,0,0.1,0,0.2,0c1.5,0.6,2.2,1.3,2.2,2c0,0.6-0.3,1.1-1.1,1.6
					c-0.1,0-0.1,0.1-0.2,0.1l-0.5,0.1l2.6,16v0.1l0.3,2.1c0.9,0.1,1.8,0.7,2.1,1.5c0.2,0.5,0.2,1.2-0.7,2c-0.1,0.1-0.1,0.1-0.2,0.1
					L85.7,288.3z"/>
				<path id="XMLID_2022_" class="st4" d="M48.8,264.9"/>
				<path id="XMLID_2021_" class="st5" d="M46.1,260.9c-0.2,0-0.4-0.2-0.4-0.4s0.1-0.5,0.4-0.5l3-0.4c0.2,0,0.5,0.1,0.5,0.4
					c0,0.2-0.1,0.5-0.4,0.5L46.1,260.9L46.1,260.9z"/>
				<path id="XMLID_2020_" class="st4" d="M48.8,264.9"/>
				<path id="XMLID_2017_" class="st5" d="M55.5,259.7c-0.1,0-0.2,0-0.3-0.1c-0.1-0.1-0.1-0.2-0.1-0.4c0.1-1,0.1-2,0.2-3
					c0-0.2,0.2-0.4,0.4-0.4l5.9-0.8c0.4-0.1,0.9,0.1,1.4,0.5c0.6,0.5,0.9,1.1,1,1.7c0,0.8-0.5,1.5-1.3,1.5L55.5,259.7L55.5,259.7z
					 M56.1,256.6c0,0.7-0.1,1.4-0.1,2.1l6.5-0.8c0.3,0,0.5-0.3,0.5-0.6s-0.3-0.7-0.6-1c-0.3-0.3-0.6-0.3-0.7-0.3l0,0L56.1,256.6z"/>
				<polygon id="XMLID_2014_" class="st2" points="29.3,233.3 29.2,234.8 30.9,236.6 36.5,238.7 44.1,240.3 54,241.3 64.9,241.3 
					74.6,240.3 81.9,239.1 87.5,237 89.7,235.1 90,231.4 90,226.2 87.5,224 82.7,222.1 80.2,224.4 74.7,227.3 67.8,230.1 62.4,232 
					58.9,233.7 51.7,235.5 45.8,236.1 38.5,235.3 33.7,234.7 				"/>
				<path id="XMLID_2013_" class="st5" d="M59.6,234.2h-1.1c-0.2,0-0.4-0.2-0.4-0.4s0.2-0.4,0.4-0.4l0,0h1.1
					c17.8,0,29.8-3.4,29.8-6.6c0-1.5-2.6-3-7-4.2c-0.2-0.1-0.4-0.3-0.3-0.5s0.3-0.4,0.5-0.3c3.5,0.9,7.7,2.6,7.7,5
					C90.3,231.4,74.7,234.2,59.6,234.2z"/>
				<path id="XMLID_2012_" class="st5" d="M59.6,241.6c-15.1,0-30.7-2.8-30.7-7.5c0-0.2,0.2-0.4,0.4-0.4s0.4,0.2,0.4,0.4
					c0,3.2,12,6.6,29.8,6.6s29.8-3.4,29.8-6.6c0-0.2,0.2-0.4,0.4-0.4s0.4,0.2,0.4,0.4C90.3,238.8,74.7,241.6,59.6,241.6z"/>
				<path id="XMLID_2011_" class="st5" d="M89.8,234.5c-0.2,0-0.4-0.2-0.4-0.4v-7.3c0-0.2,0.2-0.4,0.4-0.4s0.4,0.2,0.4,0.4v7.3
					C90.3,234.3,90.1,234.5,89.8,234.5z"/>
				<path id="XMLID_2010_" class="st5" d="M29.3,234.5c-0.2,0-0.4-0.2-0.4-0.4v-0.8c0-0.2,0.2-0.4,0.4-0.4s0.4,0.2,0.4,0.4v0.8
					C29.7,234.3,29.5,234.5,29.3,234.5z"/>
				<path id="XMLID_2009_" class="st0" d="M32.1,81.8c-0.1-0.4-0.6-2.6-0.6-2.8c0-0.2,0.4-4.3,0.4-4.3l1.3-2.9l1.5-0.9l2.4-0.3
					l3.2,0.9l4,1.5l3.1,2.2l0.8,0.9l0.8-0.6l3.3,0.2l3.3,0.7l4.7,1.8l4,3.3l2.4,2.8l1.5,2.6l-2.6,2.9l-3.2,2.1l-4.9,0.5l-3.8-0.8
					l-2.9-1.8l-2.1-2.4l-1.1-3.1L47,83.1l-4.3-0.9l-5-1.9L35,80l-2.1,1.1L32.1,81.8z"/>
				<polygon id="XMLID_2008_" class="st6" points="1.1,252.5 -0.8,242.9 -2.3,231.6 -3,218.8 -2.7,212.6 -3.8,210.3 -3.9,206.5 
					-1.4,200.5 2.6,196.6 6.7,194.3 9.8,194 12.6,193.3 21.7,192.1 33,190.9 36.1,190.3 39.9,192.2 48,194.9 54.6,196.5 55.7,196.6 
					59.4,199.4 62.9,200.3 66.6,199.6 69.8,197.8 75.3,197.5 82,196.2 86.3,194.9 86.7,200.2 86.9,207.9 86,215.1 83.8,220.4 
					81.5,223.1 79.2,225 74.7,227.3 69.1,229.5 64,231.5 59.7,233.2 56.3,234.7 52.5,235.7 46.6,236 39.7,235.6 33.7,234.7 
					28.6,232.9 24.6,231.5 23.7,234.2 21.8,238.8 20.6,242.3 20.3,248.2 20.2,254.2 17.1,255.3 12.8,256 8.7,255.7 4.8,254.5 				
					"/>
				<polygon id="XMLID_2007_" class="st7" points="-3.5,210.2 -6.3,211.3 -10.4,212.9 -15,214.2 -20.6,215.1 -25.9,214.4 
					-26.9,213.2 -26.9,211.5 -23.2,203.8 -19.7,199.6 -15.9,196.6 -12.3,195.1 -7.6,194.4 -6.2,193.9 -5.9,192.3 -3.4,190.4 
					-1.6,190 0.4,190.2 3.1,192 6.9,194.2 2.8,196.6 -1.2,200.4 -3.2,204.9 -3.7,208.3 				"/>
				<polygon id="XMLID_2006_" class="st7" points="3.6,254 -0.5,260.5 -3.8,267.4 -5.1,272 -4.9,274.8 -3.4,276.2 0.6,276.6 
					5.7,275.3 10.1,272.3 13.1,268.2 14.4,265.6 15.7,265.8 18.7,263.7 19.5,262.2 19,256.8 18.8,254.5 14.5,255.9 9.6,255.9 
					5.8,254.8 				"/>
				<path id="XMLID_2005_" class="st8" d="M8,131.7l-1.1,1.9l-0.4,2.6l0.1,2.2l-3.7,4.2l-3,4.5l-2.4,6.5l-1.2,6.2l-0.2,6.5l1.1,5.6
					l1.8,3.3l1.4,2.3l2.4,4.4l2,1.2l3.3-0.3l4.5,0.2l6.3-1.1l7.6-2.4l5.8-2.4l3-1.2l3.9,5.8l5.6,5.9l7.4,6.1l3.1,2l2.4,2.3l3.2,1.9
					l4.2,0.3l6.2-2.9l3.6-2.1l5.8-2.3l7.1-2.6l4.8-2.9l5.1-5.2l4.3-6.9l3.2-8.2c0,0,0.3-3.6,0.7-3.9c0.3-0.2,2.9-2.5,2.9-2.5
					l-0.6-5.5l-3.1-5.4l-5.9-4.7l-7.4-2.9l-9.5-0.7l-8.2,2.1l-1.8,0.8l-3.4,2.3l-3.4,3.3l-5.9-2.8l-8.7-2l-9.6-0.9l-7.4,0.4
					l-3.4,0.2l-2.9-2.5l-3.5-2.1l-2-1.1l1.2-3l1.4-3l0.6-0.8l-6.4-1.9l-5.3-0.4L8,131.7z"/>
				<path id="XMLID_2004_" class="st9" d="M26.2,92.2l3.9-2.6l6.6-2.9l24.7,8.8c0,0,3.5,16.7,3.1,16.9c-0.3,0.2-11.2,5.4-11.2,5.4
					l-9-1.3l-7.9-4.6l-6.4-4.2l-2-1.9l-1.6-0.2l-2.9-1.4l-0.6-3.1l-1.5-3.3l-0.5-3.1l1.3-1.3l1.5-0.4l1.6,1.1L26.2,92.2z"/>
				<path id="XMLID_1947_" class="st8" d="M87,65.5l-2-4.7l-3.1-4.3l-5.8-3.9L70.5,50l-6.3-0.4L59,50.4L54.7,53l-5.2,5.3l-4.1,4.5
					l-1.7,0.1l-3,1.5L40,67l-0.8,0.4c0.6-0.1,1.1-0.2,1.7-0.1c0.4-0.3,1-0.4,1.6-0.3c0.1,0,0.3,0.1,0.4,0.1c0.3-0.2,0.7-0.2,1.1-0.1
					c0.5-0.2,1.1-0.1,1.6,0.1c0.4,0.2,0.9,0.4,1.3,0.6c0.4,0,0.8,0,1.2,0.3c0.1,0.1,0.2,0.2,0.4,0.3c0.3,0,0.6,0.1,0.9,0.3
					c0.2,0.2,0.4,0.3,0.6,0.5c0.2,0,0.4,0.1,0.5,0.2c0.8,0.6,1.6,1.2,2.2,2c0.1,0.1,0.1,0.2,0.2,0.3c0.1-0.1,0.1-0.1,0.2-0.2
					c0.9-0.7,2-1.1,3-1.4c0.5-0.1,1,0,1.4,0.2c1.4-0.1,2.6,0.2,3.9,0.7c0.1,0,0.3,0,0.4,0.1c0.4,0.1,0.7,0.3,1.1,0.5
					c0.1,0,0.2,0,0.3,0.1c1.9,0.7,3.7,1.7,4.8,3.5c0.1,0.2,0.2,0.3,0.2,0.5c0.6,0.8,0.9,1.7,1.2,2.7c0.2,0.3,0.3,0.6,0.3,0.9
					c0.1,0.9,0.2,1.9,0.2,2.8c0,0.2,0,0.3-0.1,0.5v0.1c-0.2,1-0.4,1.9-0.6,2.9c-0.1,0.4-0.4,0.8-0.7,1c-0.2,0.5-0.5,0.9-0.8,1.4
					c-0.1,0.1-0.1,0.1-0.2,0.2c-0.4,0.6-1.2,1.2-2,2c-0.1,0.1-0.2,0.2-0.3,0.3c-0.6,0.8-1.4,1.2-2.3,1.5c-3.1,1.1-7.2,1.4-10.6-0.7
					c-2.2-1.4-3.8-3.4-4.7-5.6c0-0.1-0.2-0.9-0.2-1c-0.4-1-0.3-1.6-0.4-2.8c0-0.5-0.2-1.2,0-1.6c0,0,0-0.2,0.1-0.4L47,80.4V83
					l-4.3-0.9l-3.4-1.2L35,80l-2.1,1.1l-1.4,2.2l0.1,2.2l1.9,2.4l3.4,1.3l5.6,1.2l6.4,2.1l6.6,3.9l3.2,3.9l1.2,5.4l-1,5.1l-3,4.2
					l-4.1,2.1l-5.7-0.1l-2.9-1.2l-0.4,8.5l3.9,6.5l9.7-8.7l3.7-0.8l7.4-2.2L73,116l-0.6-1.8l-0.1-3.1l-0.4-7.1l0.8-2.4l2.4-1.2
					l1.1-2.4v-3l-1.4-1.7l3.2-5.6l4.1-5.7l4.1-5.8l1.1-5.3L87,65.5z"/>
				<g id="XMLID_1995_">
					<polygon id="XMLID_1998_" class="st10" points="36.1,190.3 36.2,186.8 35.8,184 34.9,181.7 32.9,176.8 35.2,175.8 38.5,180.8 
						42.5,185.1 47,189.4 52,193.7 55.1,195.7 55.7,196.6 51.7,195.9 45.2,194.1 39.9,192.2 					"/>
					<polygon id="XMLID_1997_" class="st0" points="69.8,197.8 74.7,195.2 79.2,193.5 84.2,191.6 87.6,190.3 86.3,194.9 79,197.2 
											"/>
					<polygon id="XMLID_1996_" class="st0" points="6.4,136.2 4.7,134.6 3.7,132.7 6.3,127 12,120.8 18.2,116.5 23.8,114.5 
						28.1,114.3 33,115.1 37.1,117 38.1,115.1 41.4,114.8 43.2,115.7 42.8,124.2 46.6,130.7 56.3,122 63.9,120.1 69.3,118.2 
						73,115.9 72.3,112.8 75.8,114.3 81.6,121.9 80.6,123.1 84.1,124.5 89.5,123.5 96.7,123.5 102.3,124.6 107.5,126.7 112.8,132.6 
						115.6,139.6 116.3,146.8 114.9,153.2 112,159.5 109.4,163.4 108,163.5 106.5,162.7 108.6,160.8 108.2,156.5 105.7,150.9 
						100.3,146.2 93.7,142.8 86.4,141.8 82.1,141.6 77.4,142.5 72.2,144.4 69.6,146 65.4,150.1 58.7,147 50.7,145.3 41.9,144.7 
						33.7,144.9 30.3,145.1 27.6,142.4 24.1,140.3 22.1,139.2 23.3,136.2 25.3,132.4 18.9,130.6 13.6,130.1 9.1,130.9 7.2,132.1 
						6.9,133.5 					"/>
				</g>
				<polygon id="XMLID_1994_" class="st11" points="32.2,126.3 38.1,115.1 40.5,120.5 				"/>
				<path id="XMLID_1993_" class="st12" d="M14.5,255.9c0,0,0-6.1-0.6-8.5h-1.5c-1.5-10.5,6.1-14.4,4.8-19.5l7.3,3.5L23,236
					l-2.1,4.8l-0.7,2.5v4.8l-0.1,6L14.5,255.9z"/>
				<path id="XMLID_1992_" class="st12" d="M19,231.6c-11.7-5.5-15.2-11-21.7-19c0,0,9.8,10.8,24.2,17.2"/>
				<path id="XMLID_1991_" class="st13" d="M12.8,256l-0.1,2.9c0,0-0.3,10.6-10.4,17.5c0,0,7.5-1.9,12.1-10.8l1.3,0.1l3-2.1l0.9-1.4
					l-0.8-7.7C18.8,254.5,15.1,255.5,12.8,256z"/>
				<path id="XMLID_1990_" class="st13" d="M-3.7,190.9c0.1,0.1,0.3-0.1,0.2-0.3c-0.1-0.1-0.3-0.1-0.5,0c-1.4,0.4-2.6,1.8-2.8,3.3
					c0,0.2-0.6,0.6-0.9,0.5c-0.7-0.2-0.7,0.2-1,0.1c-3.6-0.1-6.3,1.5-9.3,3.4c6.9-3.6,13.9,0.4,17.9,1.1c0.3,0,1.3-1.4,1.6-1.5
					c1.7-0.9,3.4-1.8,5-2.8c-1.5-1.3-2.8-1.9-4.4-3.1c-0.7-0.5-2.1-1.4-2.9-1.6c-1.3-0.4-1.9-0.1-2.6,0.4"/>
				<path id="XMLID_1989_" class="st14" d="M2.7,176.5c-0.7-2.1-0.6-6,0.2-7.9c-1.3,0.1-2.1,2.1-2.4,3.2c-5.3-14.4,6.6-32.6,6.3-33
					c-0.1-0.1-0.1-0.3-0.2-0.4c-0.1-0.1-0.1-0.2-0.2-0.4c-0.3,0.4-1.2,1.5-2,2.4c-4.3,4.5-7,11.8-8.2,17.9c-0.6,3.2-0.9,6.6-0.3,9.8
					c0.5,2.5,2.4,5.9,3.6,8.2c0.9,1.6,1,2.1,2,3.7c1.1,1.6,2.8,3.5,4.6,2.8C4.3,181.8,3.4,178.6,2.7,176.5z"/>
				<path id="XMLID_1988_" class="st10" d="M108.6,158.6c0.1-2.3,0.7-5,0.8-7.3c0-0.9,0.3-2,1.2-2.2c0.4-0.1,0.8,0.1,1.1,0
					c0.4-0.1,0.7-0.4,0.9-0.7c2.3-3.4,1.6-8,0.1-11.9c-0.9-2.2-2.1-4.4-1.8-6.7c3.6,4.5,5.1,10,5.1,15.8c0,5.7-2.1,10.4-5.1,15.9
					c-0.6,1.1-1,1.3-1.5,1.9c-1.3,0.1-2.3,0.1-3.2-0.5c0.2-0.4,2.2-1.8,2.4-2.1"/>
				<path id="XMLID_2001_" class="st15" d="M56.9,51.6c-3.6,2-6.4,5.1-9,8.3c-0.9,1.2-1.9,2.5-3.3,3c-1,0.4-2.1,0.3-3.1,0.8
					c-1.2,0.6-1.8,2.1-1.5,3.4c0.6-0.1,1.1-0.1,1.7-0.1c-0.1-0.6-0.1-1.4,1.2-2.5c2-1.8,4.3-0.8,4.3-0.8s7.3-9,10.6-10.7
					c3.8-2,6.6-2.9,10.9-2.8C64.9,48.7,60.5,49.6,56.9,51.6z"/>
				<path id="XMLID_1986_" class="st15" d="M31.3,85.3c0-1.3,0.4-2.7,1.5-3.3c1-0.5,2.6-0.8,3.6-0.5c4.3,1.5,7.5,2.3,10.7,3.1
					c0.5,0.1-0.5,0.2,0,0c0.3-0.6,0-1.3-0.5-1.7s-0.6-0.1-1.2-0.3c-2.5-0.7-4.1-1-6.5-1.7c-1-0.3-3.5-1.4-4.5-1.1
					c-0.8,0.3-1.4,0.9-1.7,1.7c-0.2,0-0.4,0-0.6,0"/>
				<path id="XMLID_1984_" class="st15" d="M71.5,93.5c-0.4-0.1-0.7,0.3-0.7,0.6c0,0.4,0.3,0.7,0.7,0.8c0.4,0.1,0.7,0.1,1.1,0
					c0.4-0.1,0.7-0.2,1.1-0.2s0.8,0.1,1.2,0.4c0.2,0.1,0.3,0.3,0.5,0.3c0.3,0,0.5-0.3,0.5-0.6c0-0.3-0.2-0.6-0.4-0.8
					c-0.6-0.6-1.3-0.9-2.1-0.9c-0.3,0-0.5,0-0.8,0.1"/>
				<path id="XMLID_1983_" class="st14" d="M71.1,97.4c-0.2,0.1-0.2,0.4,0,0.6c0.2,0.1,0.4,0.1,0.7,0.1c0.2,0,0.5,0,0.7,0.1
					c0.1,0.1,0.2,0.2,0.4,0.3c0.1,0.1,0.4,0.1,0.5,0c0.1-0.1,0-0.2,0-0.3c-0.1-0.4-0.1-0.9-0.4-1.2c-0.3-0.3-0.8-0.5-1.1-0.2"/>
				<path id="XMLID_1982_" class="st14" d="M72.6,101.5c-0.8-0.1-1.5-0.3-2.2-0.7c-0.1-0.1-0.2-0.1-0.3-0.1c-0.1,0-0.2,0.1-0.3,0.3
					c-0.3,0.7-0.2,1.5,0.2,2.2c0.4,0.8,0.9,1.5,1.5,2.1c0.1,0.1,0.1,0.1,0.2,0.1c0.2,0,0.3-0.2,0.3-0.4c0.1-1,0.3-1.9,0.4-2.9"/>
				<path id="XMLID_1981_" class="st14" d="M91.6,154.9c-0.9,2.6-2.1,5.1-3.3,7.5c-1.5,3.1-4.8,6.3-7.1,7.9
					C89.2,170.3,93.6,158.6,91.6,154.9z"/>
				<path id="XMLID_1980_" class="st14" d="M87.3,141.8c5,0.2,9.7,3,12.9,6.9s5,8.8,6,13.7c1.2-0.3,2-1.4,2.2-2.6
					c0.2-1.2-0.1-2.4-0.4-3.5c-2.4-7.4-9.3-13.2-17-14.3"/>
				<path id="XMLID_1979_" class="st14" d="M6.7,135c1.2-1.5,3-2.5,4.9-2.9c1.9-0.5,3.9-0.5,5.8-0.6c1.6,0,3.1,0,4.7,0.2
					c-3.6-1.5-7.7-2-11.6-1.2c-0.9,0.2-1.8,0.4-2.5,0.9s-1.3,1.4-1.1,2.3"/>
				<g id="XMLID_1977_">
					<path id="XMLID_1978_" class="st14" d="M32,164.2c-2.7,1.3-5.7,2.8-8.6,3.7c-1,0.3-2,0.6-3.1,0.5h-2
						C22.3,171.4,29.2,168.8,32,164.2z"/>
				</g>
				<path id="XMLID_1976_" class="st14" d="M60.1,163.7c0.4-0.2,0.8,0.5,0.6,0.9c0,0-11.8,2.2-23.6,14.4c-0.9-1-1-2.2-1.9-3.2
					c1.6-1,2.4-1.7,4-2.7s3.1-1.9,4.7-2.8c5-2.8,10.4-5,16-6.5"/>
				<path id="XMLID_1975_" class="st14" d="M39.9,174.5c2.9,7.9,8.7,14.4,14.7,20.3c-7.7-4.1-14.2-10.4-18.7-18"/>
				<path id="XMLID_1974_" class="st12" d="M1.6,197.5c3.2,0.5,6.8,1,9.4,2.1c1.8-0.9,3.5-1.9,5.3-2.8c0.6-0.3,1.3-0.7,1.6-1.4
					c-2.2-0.7-4.5-1.3-6.8-1.7c-0.9-0.2-1.8-0.3-2.7-0.1c-0.6,0.1-1.1,0.4-1.6,0.7c-1,0.5-2,1-3,1.6"/>
				<path id="XMLID_1973_" class="st12" d="M12.6,198.7c4.1,1.3,7.9,3.2,12,4.6c4.1,1.3,8.5,2,12.6,0.9c0.3-0.1,0.7-0.3,0.7-0.6
					c0-0.2-0.1-0.3-0.3-0.5c-0.7-0.7-1.7-1.1-2.6-1.5c-5.1-2.2-10.3-4.3-15.5-6.1c-0.5-0.2-1.1-0.4-1.7-0.3
					c-2.1,0.1-3.2,2.9-5.2,3.1"/>
				<path id="XMLID_1972_" class="st12" d="M11.5,193.7c10.7,2.2,21,5.9,30.6,11c0.3-3.9-0.5-7.8-2.2-11.3c-0.5-1-1.1-2.1-2.2-2.5
					c-0.8-0.4-1.8-0.4-2.7-0.3c-7.8,0.3-15.5,1.2-23.2,2.6"/>
				<path id="XMLID_1971_" class="st12" d="M38.8,191.5c4.4,1.7,8.8,3.1,13.4,4.2c2.5,0.6,5.3,1.3,6.8,3.3c-2.8,1.6-5.5,3.9-8.7,4
					c-3.5,0-5.4,1.5-7.8,2.2c-1.2,0.3-2.3-0.2-3.1-1.1c-0.8-1,0-2.4,0.4-3.6c1-2.9-0.4-6-1.8-8.7"/>
				<path id="XMLID_1970_" class="st12" d="M43.6,204.1c4.6-0.7,9.4-0.4,13.9,0.9c2.5,0.7,4.9,1.7,7.7,1.2c0.7-0.1,1.3-0.5,1.9-0.9
					c2-1.6,6.5-4.7,5.6-7c0-0.1-0.1-0.1-0.2-0.1c-0.6,0.3-1.6-0.6-2.6-0.4c-1.2,0.3-2.6,1.7-4,1.8c-2.6,0.2-4.8,1-6.3-0.7
					c-0.3-0.4-0.8-0.6-1.3-0.6c-0.3,0-0.6,0.1-0.8,0.3c-1.6,0.9-3.1,1.8-4.6,2.8"/>
				<path id="XMLID_1969_" class="st12" d="M41.3,205.7c-0.6,0.8-1.3,1.5-2.1,2.1c-0.2,0.2-0.5,0.4-0.7,0.4c-0.5,0.1-1-0.4-1.1-0.9
					s0.1-1,0.3-1.5c0.3-0.7,0.7-1.3,1.1-1.9c-0.6,0.1-1.2-0.1-1.5-0.6c0.4-0.3,1,0,1.5,0.2c0.9,0.6,1.9,1.1,2.8,1.7"/>
				<path id="XMLID_1968_" class="st10" d="M72.9,113.3c0.8,0.2,1.5,0.5,2.3,0.7c0.2,0.1,0.4,0.2,0.4,0.3c0,0.1-0.1,0.1-0.1,0.2
					c-1.1,1.1-2.4,1.9-3.8,2.4c0.4-0.2,0.7-0.5,0.9-0.9c0.3-0.6,0.3-1.3,0.1-2c0-0.2-0.1-0.3-0.2-0.5"/>
				<path id="XMLID_1967_" class="st15" d="M81.3,145c-6.2-1.6-19.9,9.1-16.5,16.4c0.7,1.5,2,2.6,3.5,3.4c1.2,0.7,2.6,1.1,3.9,0.7
					c1.2-0.4,2-1.5,2.6-2.5c1.3-2.3,2.2-4.8,2.5-7.4c0.1-0.9,0.1-1.8-0.3-2.6c-0.2-0.4-0.6-0.7-0.7-1.2c-0.3-0.8,0.2-1.6,0.7-2.2
					c1.1-1.4,2.7-2.5,4.4-3.2c0.3-0.1,0.7-0.3,0.8-0.6C82.1,145.3,81.7,145.1,81.3,145z"/>
				<path id="XMLID_1966_" class="st15" d="M73.2,191.5c-2.9-0.3-5.6,2.1-8.4,1.5c-1.1-0.2-2-0.9-3.1-1.3c-5.8-2.1-3.7,7.8,2.6,6
					c0.9-0.3,1.7-0.8,2.5-1.3c1.8-1.1,3.6-2.3,5.4-3.4C72.8,192.7,73.5,192.1,73.2,191.5z"/>
				<path id="XMLID_1965_" class="st15" d="M25.6,161.6c-11.3-6.2-19,2.4-7.7,2.9c2,0.1,4.1-0.4,6.1-0.9c0.5-0.1,1-0.3,1.4-0.6
					C25.7,162.6,25.9,162,25.6,161.6z"/>
				<path id="XMLID_1964_" class="st15" d="M81.7,74.3c0.1,0.3,0.2,0.5,0.4,0.7c0.6,0.5,1.5-0.3,1.8-1
					C88.3,64.7,75.9,53.1,81.7,74.3z"/>
				<path id="XMLID_1963_" class="st15" d="M26.5,159.1c0.9,1.3,2.5,2.1,4.1,1.9C30.1,159.4,28.1,158.5,26.5,159.1"/>
				<path id="XMLID_1962_" class="st15" d="M85.5,148.7c-0.7,0.3-1.4,0.7-2,1.2c-0.2,0.1-0.4,0.3-0.4,0.6c0,0.3,0.3,0.6,0.6,0.7
					c1.4,0.6,3.2,0,3.9-1.3c-0.5-0.5-1-0.8-1.6-1.1"/>
				<path id="XMLID_1961_" class="st15" d="M79.9,75c0,0.4-0.2,0.9-0.1,1.3s0.7,0.7,1,0.4c0.1-0.1,0.1-0.4,0.1-0.6
					c0-0.3,0-0.6-0.1-0.9c-0.1-0.3-0.4-0.5-0.7-0.6"/>
				<path id="XMLID_1960_" class="st8" d="M43.1,233.6c-0.7-2.4-1.9-4.6-3.4-6.5c-1-1.3-2.2-2.5-2.7-4c-0.9-2.6,0.5-5.6,2.4-7.6
					c1.8,2.6,2.8,5.7,3.2,8.8c0.5,3.1,0.5,6.3,0.5,9.5"/>
				<path id="XMLID_1959_" class="st8" d="M44.5,228.8c-0.1-1.7-0.3-3.5-0.7-5.2c-0.5-1.8-1.1-3.6-1.4-5.5c1.4,1.2,2,3.1,2.2,5
					c0.2,1.8,0,3.7,0.1,5.6"/>
				<path id="XMLID_1958_" class="st16" d="M36.6,221.6c0.1,0.9,0.5,1.8,1,2.6c1,1.6,2.2,3,3.2,4.6s1.9,3.3,2,5.2
					c-0.6,0.2-1.1-0.3-1.3-0.9c-0.2-0.6-0.2-1.2-0.5-1.7c-0.4,0.2-0.8,0.4-1.1,0.6c-0.1,0-0.2,0.1-0.2,0c-0.1,0-0.1-0.1-0.1-0.2
					c-0.1-0.6-0.2-1.3-0.3-1.9c-0.4,0.6-0.8,1.3-1.2,1.9c0.6-2.6-0.5-5.3-1.5-7.8"/>
				<path id="XMLID_1957_" class="st5" d="M72.9,116.4c-0.2,0-0.4-0.1-0.4-0.3c-1.8-7.1-0.5-14.5-0.5-14.6c0-0.2,0.3-0.4,0.5-0.4
					s0.4,0.3,0.4,0.5c0,0.1-1.2,7.4,0.5,14.3c0.1,0.2-0.1,0.5-0.3,0.5C73,116.4,73,116.4,72.9,116.4z"/>
				<path id="XMLID_1956_" class="st5" d="M72.4,101.8c-0.8,0-1.6-0.2-2.5-0.7c-0.2-0.1-0.3-0.4-0.2-0.6c0.1-0.2,0.4-0.3,0.6-0.2
					c1.7,0.9,3.2,0.8,4.3-0.3c1.3-1.3,1.7-3.8,0.8-5.3c-0.7-1.1-1.9-1.5-3.6-1.1c-0.2,0.1-0.5-0.1-0.5-0.3c-0.1-0.2,0.1-0.5,0.3-0.5
					c2.8-0.7,4,0.6,4.5,1.5c1.1,1.8,0.6,4.7-1,6.3C74.5,101.4,73.5,101.8,72.4,101.8z"/>
				<path id="XMLID_1955_" class="st5" d="M74.8,93.7c-0.1,0-0.1,0-0.2-0.1c-0.2-0.1-0.3-0.4-0.2-0.6c0-0.1,4.3-7.9,8.8-13.4
					c2.2-2.7,4.4-7.8,3.4-13.5c-0.9-4.9-4-9.1-9-12.1c-14-8.4-22-1.5-24.1,0.8c-3.4,3.7-7.9,8.5-7.9,8.5c-0.2,0.1-0.3,0.1-0.5,0.1
					c0,0-2.4-0.1-3.7,1.2c-0.6,0.6-1,1.5-1,2.5c0,0.2-0.2,0.4-0.4,0.4s-0.4-0.2-0.4-0.4c0-1.3,0.4-2.4,1.2-3.2
					c1.4-1.3,3.4-1.4,4.1-1.4l0,0c0.8-0.8,4.8-5.1,7.8-8.4c2.3-2.4,10.8-9.7,25.3-0.9c5.3,3.2,8.5,7.6,9.4,12.7
					c1,6-1.3,11.4-3.6,14.2c-4.5,5.5-8.7,13.2-8.7,13.3C75.1,93.6,74.9,93.7,74.8,93.7z"/>
				<path id="XMLID_1954_" class="st5" d="M59.2,101c-2.4-6.7-13.5-10.4-19.6-11.4c-4.7-0.8-6.1-1.9-6.1-2c-2.1-1.6-2-3.7-1.2-5.1
					s2.5-2.5,4.6-1.8c5.8,2.1,9.6,2.6,9.7,2.6c0.3,0,0.5-0.1,0.5-0.4c0-0.2-0.1-0.5-0.4-0.5c0,0-3.8-0.5-9.5-2.6
					c-2.5-0.9-4.7,0.5-5.7,2.2c-0.9,1.6-1.1,4.2,1.4,6.2c0.1,0.1,1.5,1.3,6.5,2.2c5.9,1,16.6,4.5,18.9,10.9
					c1.3,3.5,1.1,7.2-0.6,10.3c-1.4,2.6-3.6,4.3-6.3,5c-4.2,1.1-8.3-1.2-11.3-2.9c-0.3-0.2-0.6-0.4-0.9-0.5
					c-0.1,0.2-0.2,0.3-0.4,0.5c-0.1,0.1-0.2,0.1-0.3,0.2c0.4,0.2,0.7,0.4,1.1,0.6c2.4,1.4,5.8,3.3,9.5,3.3c0.8,0,1.6-0.1,2.4-0.3
					c3-0.7,5.4-2.7,6.9-5.5C60.4,108.7,60.6,104.7,59.2,101z"/>
				<path id="XMLID_1953_" class="st5" d="M46.6,131.3L46.6,131.3c-0.2,0-0.3-0.1-0.4-0.2l-4-6.5c0-0.1-0.1-0.2-0.1-0.3l0.4-8.5
					c0-0.2,0.2-0.4,0.5-0.4c0.2,0,0.4,0.2,0.4,0.5l-0.4,8.4l3.6,5.9l9.3-8.6c0.1-0.1,0.1-0.1,0.2-0.1c14.8-2.8,17-6.5,17-6.5
					c0.1-0.2,0.4-0.3,0.6-0.2c0.2,0.1,0.3,0.4,0.2,0.6c-0.1,0.2-2.2,4-17.5,6.9l-9.6,8.9C46.9,131.2,46.7,131.3,46.6,131.3z"/>
				<path id="XMLID_1952_" class="st5" d="M66.8,135.3C66.7,135.3,66.7,135.3,66.8,135.3c-0.2,0-0.3-0.1-0.3-0.2l-10.5-13
					c-0.2-0.2-0.1-0.5,0.1-0.6c0.2-0.2,0.5-0.1,0.6,0.1l10.1,12.6l14.1-12.3l-5.4-7.3l-3-1.1c-0.2-0.1-0.3-0.3-0.3-0.6
					s0.3-0.3,0.6-0.3l3.2,1.2c0.1,0,0.2,0.1,0.2,0.2l5.7,7.7c0.1,0.2,0.1,0.4-0.1,0.6l-14.7,12.9C67,135.3,66.9,135.3,66.8,135.3z"
					/>
				<path id="XMLID_1951_" class="st5" d="M81.4,90.7c0,0,0.1-0.5,0.5-1.6c0.2-0.6,0.4-1.3,0.7-2.3c0.1-0.4,0.2-0.8,0.4-1.3
					c0-0.1,0.1-0.2,0-0.3s-0.2,0.1-0.3,0.1c0,0,0,0,0,0.1c0,0,0,0-0.2,0.3c-0.3,0.4-0.8,0.9-1.3,1.4c-0.5,0.6-1.1,1.2-1.7,1.9
					c-0.4,0.4-0.8,0.9-1.2,1.3c-0.2,0.2-0.3,0.3-0.5,0.3c-0.1,0-0.2,0-0.4,0c-0.4-0.2-0.5-0.3-0.5-0.7c0-0.5,0.1-1.7,0.2-2.8
					c0.2-2,0.3-4.3,0.5-6.2c0.1-0.9,0.2-1.8,0.2-2.5c0.1-0.2-0.1-0.2-0.2-0.1c-4,4.3-5.5,5.9-5.5,5.9c-0.3,0.3-0.6-0.1-0.4-0.4
					c0,0,1.5-1.7,5.5-6.2c0.1-0.2,0.4-0.4,0.8-0.3s0.8,0.5,0.6,1.1c0,0.7-0.1,1.6-0.1,2.5c-0.1,1.9-0.3,4.2-0.4,6.2
					c0,0.5-0.1,0.9-0.1,1.4c0,0.2,0,0.4,0,0.6c0,0.1,0,0,0,0l0,0c0.3-0.3,0.5-0.6,0.8-0.8c0.6-0.7,1.3-1.3,1.8-1.9
					c0.5-0.6,1-1,1.3-1.4c0.2-0.2,0.4-0.4,0.6-0.6s0.3-0.3,0.3-0.3c0.2-0.2,0.4-0.2,0.5-0.3s0.4,0,0.5,0.1c0.1,0.2,0.1,0.2,0.1,0.4
					c0,0.1,0,0.4-0.1,0.6c-0.2,0.7-0.4,1.3-0.6,1.8c-0.3,0.9-0.5,1.7-0.7,2.3c-0.4,1.2-0.5,1.6-0.5,1.6C81.7,91.2,81.3,91,81.4,90.7
					z"/>
				<path id="XMLID_1950_" class="st5" d="M78.2,57.8c0,0,0.1-0.4,0.3-1.2c0.3-0.7,0.4-1.8,0.7-3c0.1-0.6,0.1-1.2,0.1-1.9
					c-0.1-0.6-0.1-1.3-0.3-1.9c-0.2-1.3-1.1-2.3-2-2.9c-0.4-0.3-1-0.5-1.6-0.7c-0.6-0.1-1.2-0.2-1.9-0.1c-1.3,0.1-2.6,0.5-3.7,1
					s-2,1.1-2.6,1.6s-0.9,0.8-0.9,0.8c-0.2,0.2-0.5-0.2-0.4-0.4c0,0,0.3-0.3,0.9-0.9c0.6-0.5,1.5-1.2,2.6-1.8c1.1-0.6,2.5-1.1,4-1.3
					c0.7-0.1,1.5,0,2.2,0.1c0.7,0.2,1.4,0.4,1.9,0.8c1.1,0.7,2.1,2.1,2.3,3.5C80,50.2,80,51,80,51.7c-0.1,0.7-0.1,1.4-0.2,2
					c-0.3,1.2-0.5,2.3-0.8,3.1c-0.3,0.7-0.4,1.2-0.4,1.2C78.5,58.2,78.1,58.1,78.2,57.8z"/>
				<path id="XMLID_1949_" class="st5" d="M83.2,61.1c0,0,0.1-0.4,0.4-1.1c0.1-0.3,0.2-0.8,0.4-1.2c0.1-0.5,0.2-1,0.3-1.6
					c0.4-2.2,0.4-5.3-1.1-6.8c-0.6-0.8-1.7-1.5-2.9-1.6c-1.2-0.2-2.5,0-3.5,0.4c-0.5,0.2-1,0.4-1.4,0.6c-0.4,0.3-0.8,0.5-1.1,0.7
					c-0.5,0.5-0.9,0.7-0.9,0.7c-0.2,0.1-0.5-0.2-0.4-0.4c0,0,0.3-0.3,0.9-0.8c0.3-0.2,0.7-0.5,1.1-0.8s1-0.5,1.5-0.8
					c1.1-0.5,2.5-0.7,3.9-0.6c1.4,0.1,2.7,0.9,3.5,1.9c0.9,0.9,1.3,2.4,1.4,3.7c0.1,1.4-0.1,2.7-0.4,3.9c-0.2,0.6-0.3,1.1-0.4,1.6
					c-0.2,0.5-0.3,0.9-0.5,1.2c-0.3,0.7-0.4,1.1-0.4,1.1C83.5,61.5,83.1,61.3,83.2,61.1z"/>
				<path id="XMLID_1942_" class="st5" d="M70.9,97.8c-0.1,0-0.2,0-0.2-0.1c-0.2-0.1-0.3-0.4-0.1-0.6c1.1-1.6,3.2-1.4,4.1-0.8
					c0.2,0.1,0.3,0.4,0.1,0.6c-0.1,0.2-0.4,0.3-0.6,0.1c-0.6-0.4-2.1-0.6-2.9,0.5C71.2,97.8,71,97.8,70.9,97.8z"/>
				<path id="XMLID_1941_" class="st5" d="M73.2,98.8L73.2,98.8c-0.3,0-0.5-0.3-0.4-0.5c0.1-0.8-0.4-1.2-0.4-1.2
					c-0.2-0.1-0.2-0.4-0.1-0.6c0.1-0.2,0.4-0.2,0.6-0.1c0,0,1,0.7,0.8,2.1C73.6,98.6,73.4,98.8,73.2,98.8z"/>
				<path id="XMLID_1940_" class="st5" d="M108.7,164.1c-1,0-2.2-0.8-2.4-0.9c-0.2-0.1-0.3-0.4-0.1-0.6c0.1-0.2,0.4-0.3,0.6-0.1
					c0.6,0.4,2,1.1,2.3,0.6c5.5-7.7,7.6-15.6,6.1-22.8c-1.5-6.9-5.9-11.7-9.3-13.7c-6.1-3.6-16.2-3.2-21.2-1.5c-0.1,0-0.2,0-0.3,0
					l-3.8-1.6c-0.2-0.1-0.3-0.4-0.2-0.6c0.1-0.2,0.3-0.3,0.6-0.2l3.7,1.5c5.2-1.7,15.5-2.1,21.7,1.6c3.7,2.2,8.2,7.1,9.7,14.3
					c1.1,5.2,0.9,13.5-6.2,23.5C109.6,164,109.2,164.1,108.7,164.1z"/>
				<path id="XMLID_1939_" class="st5" d="M60.7,165.6c-0.2,0-0.4-0.2-0.4-0.4c-1.9-10.6,7.6-20.2,13.2-21.6
					c3.5-2,16.3-5.1,27.1,2.1c10.6,7,8,16.6,8,16.6c-0.1,0.2-0.3,0.4-0.5,0.3s-0.4-0.3-0.3-0.5c0.1-0.4,2.4-9-7.6-15.7
					c-10.6-7-23-3.9-26.3-2h-0.1c-5.3,1.4-14.4,10.5-12.6,20.7C61.2,165.4,61.1,165.6,60.7,165.6C60.8,165.6,60.8,165.6,60.7,165.6z
					"/>
				<path id="XMLID_1938_" class="st5" d="M81.4,169.8c0,0,0.3-0.2,0.7-0.6c0.2-0.2,0.5-0.4,0.8-0.7c0.3-0.3,0.6-0.5,1-0.9
					c1.4-1.3,2.8-3.1,3.8-4.6s2.1-3.5,2.7-5.3c0.7-1.7,1.1-3.1,1.1-3.1c0.1-0.2,0-0.2,0,0c0,0-0.2,1.4-0.7,3.3
					c-0.2,0.9-0.5,1.9-0.9,2.9s-0.9,1.9-1.4,2.7c-0.5,0.8-1.2,1.6-2,2.4c-0.7,0.8-1.6,1.4-2.4,2C82.7,169.2,81.4,169.8,81.4,169.8
					C81.3,169.9,81.3,169.9,81.4,169.8z"/>
				<path id="XMLID_1937_" class="st5" d="M62.9,200.6c-3.1,0-5.5-1.9-8.7-5.1c-6-3.2-16.2-13.3-19.5-19.4c-0.1-0.2,0-0.5,0.2-0.6
					s0.5,0,0.6,0.2c3.3,6,13.3,16,19.2,19.1c0,0,0.1,0,0.1,0.1c5.3,5.3,8,6.8,15.9,2c3.6-2.2,7.6-3.6,11.1-4.8
					c2.7-0.9,5.2-1.8,7.3-3c12.2-6.7,16.2-25.5,16.2-25.7c0-0.1,0.1-0.2,0.1-0.2l2.6-2.5c0.2-0.2,0.5-0.2,0.6,0
					c0.2,0.2,0.2,0.5,0,0.6l-2.5,2.4c-0.4,1.8-4.6,19.6-16.6,26.2c-2.1,1.2-4.7,2.1-7.4,3c-3.5,1.2-7.4,2.6-11,4.8
					C67.6,199.7,65.1,200.6,62.9,200.6z"/>
				<path id="XMLID_1936_" class="st5" d="M77,134c0,0-0.1,0.2-0.4,0.4c-0.3,0.3-0.6,0.7-0.9,1.1c-0.7,1-1.3,2.2-1.6,3.3
					c-0.4,1-0.8,2.4-1,3.5c-0.2,1.1-0.3,1.9-0.3,1.9c0,0.1-0.8,0.1-0.8,0c0,0,0-0.9,0.2-2.1c0.2-1.2,0.7-2.6,1.2-3.6
					s1.4-2.2,2.2-3.1c0.4-0.4,0.7-0.8,1-1C76.8,134.1,77,134,77,134C77.1,133.9,77.1,133.9,77,134z"/>
				<path id="XMLID_1935_" class="st5" d="M5.9,134.2c-0.1,0-0.1,0-0.2,0c-0.2-0.1-0.3-0.4-0.2-0.6C7.2,130,14,128,25,132.1
					c0.2,0.1,0.3,0.3,0.3,0.6c-0.1,0.2-0.3,0.3-0.6,0.3c-10-3.7-16.8-2.2-18.4,1.1C6.2,134.1,6.1,134.2,5.9,134.2z"/>
				<path id="XMLID_1934_" class="st5" d="M5.4,183.4c-2.4,0-3.8-2.5-5-4.9c-0.6-1.1-1.2-2.2-1.8-3c-4.7-6-4.8-25.8,7.5-37.3
					c-0.2-0.8-0.4-3.4,1.3-6.4c0.1-0.2,0.4-0.3,0.6-0.2c0.2,0.1,0.3,0.4,0.2,0.6c-1.9,3.3-1.1,6-1.1,6c0,0.2,0,0.3-0.1,0.4
					c-12.1,11.1-12.2,30.5-7.6,36.3c0.7,0.9,1.3,2.1,1.9,3.2c1.3,2.4,2.4,4.6,4.5,4.5c2.2-0.2,3.9-0.1,5.4-0.1c2.7,0,4.8,0,7.5-0.9
					c0.9-0.3,1.8-0.6,2.7-0.9c5.8-1.9,12.5-4,19.7-9.1c8.3-5.9,19.3-8.3,19.4-8.3c0.2-0.1,0.5,0.1,0.5,0.3c0.1,0.2-0.1,0.5-0.3,0.5
					c-0.1,0-10.9,2.4-19.1,8.2c-7.3,5.1-14,7.3-19.9,9.2c-0.9,0.3-1.8,0.6-2.7,0.9c-2.9,1-5.1,0.9-7.8,0.9c-1.5,0-3.3,0-5.4,0.1
					C5.6,183.4,5.5,183.4,5.4,183.4z"/>
				<path id="XMLID_1933_" class="st5" d="M65.3,150.5c-0.1,0-0.2,0-0.2-0.1c-0.1,0-5.6-3.3-13.8-4.5c-9-1.3-21-2-34.4,3.5
					c-0.2,0.1-0.5,0-0.6-0.2s0-0.5,0.2-0.6c13.6-5.6,25.8-4.8,34.9-3.6c8.4,1.2,13.9,4.5,14.1,4.6c0.2,0.1,0.3,0.4,0.2,0.6
					S65.4,150.5,65.3,150.5z"/>
				<path id="XMLID_1932_" class="st5" d="M31.9,164.2c0,0-0.9,0.7-2.2,1.4c-1.3,0.8-3,1.6-4.4,2.1s-3.3,0.8-4.8,0.9
					c-0.8,0-1.4,0-1.9-0.1c-0.5,0-0.7-0.1-0.7-0.1c-0.2,0-0.1,0,0,0c0,0,0.3,0,0.8,0s1.1-0.1,1.8-0.3c1.4-0.3,3.2-0.9,4.5-1.4
					c1.4-0.4,3.1-1,4.5-1.5C30.8,164.7,31.9,164.2,31.9,164.2C32,164.2,32,164.1,31.9,164.2z"/>
				<path id="XMLID_1931_" class="st5" d="M6.4,136.4c-0.1,0-0.1,0-0.2,0c-0.1,0-1.6-0.8-2.4-2.6c-1-2.3,2.3-8.2,7.1-12.7
					c3.9-3.6,14.2-11.2,26.1-4.7c0.2,0.1,0.3,0.4,0.2,0.6c-0.1,0.2-0.4,0.3-0.6,0.2c-11.5-6.3-21.3,1.1-25.1,4.6
					c-5.3,4.9-7.6,10.2-6.9,11.7c0.7,1.4,2,2.1,2,2.1c0.2,0.1,0.3,0.4,0.2,0.6C6.7,136.3,6.5,136.4,6.4,136.4z"/>
				<path id="XMLID_1930_" class="st5" d="M31.8,127.4c-0.1,0-0.2,0-0.3-0.1c-0.2-0.1-0.2-0.4-0.1-0.5l6.3-11.8
					c0.1-0.1,0.2-0.2,0.3-0.2l2.9-0.3c0.3,0,0.5,0.2,0.5,0.4c0,0.2-0.2,0.5-0.4,0.5l-2.7,0.3l-5.3,9.8l7.2-5.4
					c0.1-0.1,0.2-0.1,0.4-0.1c0.1,0,0.2,0.1,0.3,0.2l2.1,3.9c0.1,0.2,0,0.5-0.2,0.6s-0.5,0-0.6-0.2l-1.9-3.5l-8.2,6.4
					C32,127.4,31.9,127.4,31.8,127.4z"/>
				<path id="XMLID_1929_" class="st5" d="M28.4,128.1c0,0-0.7,0.7-1.4,1.8c-0.7,1-1.5,2.4-2,3.6c-1.1,2.2-2.5,5.8-2.5,5.8
					c-0.1,0.1-0.8-0.1-0.7-0.3c0,0,0.2-1,0.7-2.2c0.5-1.2,1.2-2.7,1.9-3.7c0.7-1.1,1.7-2.3,2.5-3.3S28.4,128.1,28.4,128.1
					C28.5,128,28.5,128,28.4,128.1z"/>
				<path id="XMLID_1928_" class="st5" d="M10.1,151.4c-0.8,0-1.5-0.2-2-0.5c-0.4-0.3-0.9-1-0.7-2.2c0.5-3.3,4-4.3,7.3-4.9
					c0.2,0,0.5,0.1,0.5,0.4s-0.1,0.5-0.4,0.5c-3,0.5-6.1,1.4-6.5,4.2c-0.1,0.6,0,1.1,0.4,1.3c0.8,0.6,3.3,0.6,7.8-1.5
					c0.2-0.1,0.5,0,0.6,0.2s0,0.5-0.2,0.6C15.1,150.3,12.2,151.4,10.1,151.4z"/>
				<path id="XMLID_1927_" class="st5" d="M9.3,146.6c-0.2,0-0.4-0.1-0.4-0.3c-0.3-1.1-0.2-2,0.3-2.8c0.8-1.3,2.7-2.1,6.1-2.8
					c0.2,0,0.5,0.1,0.5,0.3s-0.1,0.5-0.3,0.5c-3.1,0.6-4.9,1.4-5.5,2.4c-0.3,0.6-0.4,1.2-0.2,2.1c0.1,0.2-0.1,0.5-0.3,0.5
					C9.4,146.6,9.3,146.6,9.3,146.6z"/>
				<path id="XMLID_1926_" class="st5" d="M30.3,145.7c-0.1,0-0.3-0.1-0.3-0.2s-4.9-5.9-10.7-5.9H19c-2.7,0-5.9,0-7.5,2.9
					c-0.1,0.2-0.4,0.3-0.6,0.2c-0.2-0.1-0.3-0.4-0.2-0.6c1.8-3.4,5.5-3.4,8.2-3.4h0.3c6.2,0,11.1,5.9,11.4,6.2
					c0.2,0.2,0.1,0.5-0.1,0.6C30.5,145.6,30.4,145.7,30.3,145.7z"/>
				<path id="XMLID_1925_" class="st5" d="M40.6,120.9c-0.2,0-0.3-0.1-0.4-0.3l-2.5-5.2c-0.1-0.2,0-0.5,0.2-0.6s0.5,0,0.6,0.2
					l2.5,5.2c0.1,0.2,0,0.5-0.2,0.6C40.7,120.9,40.6,120.9,40.6,120.9z"/>
				<path id="XMLID_1924_" class="st5" d="M70.1,198.4c-0.2,0-0.4-0.2-0.4-0.4s0.2-0.4,0.4-0.5c5.8-0.1,11-1.2,15.7-3l1-4
					c0.1-0.2,0.3-0.4,0.5-0.3c0.2,0.1,0.4,0.3,0.3,0.5l-1.1,4.2c0,0.1-0.1,0.2-0.3,0.3C81.5,197.2,76,198.2,70.1,198.4L70.1,198.4z"
					/>
				<path id="XMLID_1923_" class="st5" d="M55.9,197.1C55.8,197.1,55.8,197.1,55.9,197.1c-11.3-2.1-19.8-6.1-19.8-6.2
					c-0.2-0.1-0.3-0.3-0.2-0.4c0-0.1,0.4-5.4-1-8.1c-1.4-2.8-2.2-5.4-2.2-5.5c-0.1-0.2,0.1-0.5,0.3-0.5c0.2-0.1,0.5,0.1,0.5,0.3
					c0,0,0.8,2.6,2.2,5.3c1.3,2.5,1.2,7,1.1,8.3c1.5,0.7,9.3,4.1,19.3,6c0.2,0,0.4,0.3,0.4,0.5C56.2,197,56.1,197.1,55.9,197.1z"/>
				<path id="XMLID_1922_" class="st5" d="M47,236.6c-2.1,0-4.1-0.2-6.2-0.4c-0.9-0.1-1.8-0.2-2.7-0.3c-6.5-0.6-29.1-8.6-41.3-23.2
					c-0.4-0.5-1.3-2.5-1.2-4.3c0.2-3.6,1.9-10.2,10.6-14.3c0.7-0.3,2.7-0.7,4-0.5c5.7,0.9,20.2,3.8,31.6,11.3
					c0.2,0.1,0.3,0.4,0.1,0.6c-0.1,0.2-0.4,0.3-0.6,0.1C30,198.2,15.7,195.3,10,194.4c-1.1-0.2-3,0.2-3.5,0.5
					c-8.2,3.9-9.8,10.2-10,13.6c-0.1,1.5,0.7,3.3,1,3.6C9,225.8,31.2,234.4,38.2,235c0.9,0.1,1.9,0.2,2.8,0.3
					c5.5,0.6,10.7,1.2,19.1-2.6c2.5-1.1,5.2-2.1,7.7-3c7.2-2.6,13.9-5,16.6-11.2c3.6-8.3,1.5-23.5,1.4-23.6c0-0.2,0.1-0.5,0.4-0.5
					c0.2,0,0.5,0.1,0.5,0.4c0.1,0.6,2.2,15.6-1.5,24.1c-2.8,6.5-9.7,9-17.1,11.6c-2.5,0.9-5.1,1.9-7.7,3
					C54.9,235.9,50.7,236.6,47,236.6z"/>
				<path id="XMLID_1921_" class="st5" d="M38.6,196.8c0,0-0.1,0.5-0.2,1.3c-0.1,0.7,0,1.6,0.1,2.3s0.3,1.5,0.5,2.2s0.5,1.1,0.5,1.1
					s-0.4,0.4-0.4,0.3c0,0-0.4-0.5-0.6-1.2c-0.3-0.7-0.4-1.6-0.4-2.4C38,198.9,38.6,196.8,38.6,196.8L38.6,196.8z"/>
				<path id="XMLID_1920_" class="st5" d="M3.9,219.1c-0.2,0-0.4-0.1-0.4-0.4c-1.8-9.9,2.8-17.8,13.9-23.6c0.2-0.1,0.5,0,0.6,0.2
					s0,0.5-0.2,0.6C7.1,201.4,2.6,209,4.4,218.5C4.4,218.9,4.2,219.1,3.9,219.1L3.9,219.1z"/>
				<path id="XMLID_1919_" class="st5" d="M-22,215.5c-2.5,0-4-0.5-4.8-1.4c-0.6-0.7-0.7-1.5-0.4-2.6c4.4-15.4,16.1-17.2,16.2-17.2
					l4.1-0.5l0.2-1.2c0-0.1,0-0.1,0.1-0.2c0.1-0.2,3.2-3.9,6.1-2.8c2.7,1,6.9,4.4,7.1,4.5c0.2,0.2,0.2,0.4,0.1,0.6
					c-0.2,0.2-0.4,0.2-0.6,0.1c0,0-4.3-3.4-6.9-4.4c-2.1-0.8-4.6,1.9-5,2.4l-0.3,1.4c0,0.2-0.2,0.3-0.4,0.4l-4.4,0.6
					c-0.1,0-11.3,1.7-15.5,16.6c-0.2,0.8-0.2,1.4,0.2,1.8c0.8,1,3.3,1.3,7.3,0.9c5.5-0.6,12.2-3.1,14.8-4.9c0.2-0.1,0.5-0.1,0.6,0.1
					c0.1,0.2,0.1,0.5-0.1,0.6c-2.7,2-9.5,4.5-15.2,5.1C-20,215.4-21.1,215.5-22,215.5z"/>
				<path id="XMLID_1918_" class="st5" d="M-0.2,277c-0.8,0-1.6-0.1-2.5-0.2c-1.2-0.2-2.1-0.9-2.5-2c-1.9-5,6.2-17.9,8.4-20.7
					c0.1-0.2,0.4-0.2,0.6-0.1c0.2,0.2,0.2,0.4,0.1,0.6c-3.2,4-9.9,15.7-8.3,19.9c0.3,0.8,0.9,1.3,1.8,1.4c9.3,1.7,14.7-7.2,14.8-7.3
					l1.8-3.3c0.1-0.2,0.3-0.3,0.5-0.2l1.1,0.2c1.7-1,3.4-2.5,3.4-3.1c-0.1-2.3-0.6-7.4-0.6-7.5c0-0.2,0.1-0.5,0.4-0.5
					c0.3,0,0.5,0.2,0.5,0.4s0.6,5.2,0.6,7.6c0,1.4-3.1,3.4-4,4c-0.1,0.1-0.2,0.1-0.3,0.1l-0.9-0.2l-1.7,3
					C12.9,269.1,8.1,277-0.2,277z"/>
				<path id="XMLID_1917_" class="st5" d="M10.1,194.4c-0.2,0-0.4-0.1-0.4-0.3c-0.1-0.2,0.1-0.5,0.3-0.5c7-2.1,25.5-3.4,26.2-3.4
					c0.2,0,0.5,0.2,0.5,0.4s-0.2,0.5-0.4,0.5C36.1,191.1,17.2,192.5,10.1,194.4C10.1,194.4,10.1,194.4,10.1,194.4z"/>
				<path id="XMLID_1916_" class="st5" d="M12.1,256.3c-6.7,0-11.3-3.6-11.3-3.7c-0.1-0.1-0.1-0.2-0.2-0.2c-4.7-21.3-4-39.9-4-40.1
					c0-0.2,0.2-0.4,0.4-0.4l0,0c0.2,0,0.4,0.2,0.4,0.5c0,0.2-0.7,18.6,3.9,39.7c1,0.7,8,5.6,17.2,2.2c0.4-0.1,0.7-0.3,1.1-0.5v-1.2
					c0.1-2,0.2-6.9,0.2-8.8c0-1.7,1.1-4.3,2.2-7.1c0.7-1.8,1.5-3.7,1.9-5.3c0.1-0.2,0.3-0.4,0.5-0.3c0.2,0.1,0.4,0.3,0.3,0.5
					c-0.5,1.7-1.2,3.6-2,5.4c-1,2.6-2.1,5.3-2.1,6.8c0,1.9-0.2,6.4-0.2,8.9l-0.1,1.4c0,0.2-0.1,0.3-0.3,0.4c-0.5,0.2-1,0.4-1.4,0.6
					C16.5,256,14.2,256.3,12.1,256.3z"/>
				<path id="XMLID_1915_" class="st5" d="M12.2,247.8c-7.4,0-12.9-4.6-13-4.7c-0.2-0.2-0.2-0.4-0.1-0.6c0.2-0.2,0.4-0.2,0.6-0.1
					c0.1,0.1,9.7,8,20.1,2.5c0.2-0.1,0.5,0,0.6,0.2s0,0.5-0.2,0.6C17.6,247.3,14.8,247.8,12.2,247.8z"/>
				<path id="XMLID_1914_" class="st4" d="M29.3,226.8"/>
				<path id="XMLID_1913_" class="st4" d="M59.6,227"/>
				<path id="XMLID_1911_" class="st5" d="M34.4,163.4c0,0-0.2,0.2-0.3,0.3c-0.2,0.2-0.4,0.4-0.6,0.5s-0.5,0.2-0.8,0.3
					c-0.2,0.1-0.4,0.1-0.4,0.1l0,0c0,0,0.1-0.2,0.3-0.3c0.2-0.2,0.4-0.4,0.6-0.5c0.2-0.1,0.5-0.2,0.8-0.3
					C34.2,163.5,34.4,163.4,34.4,163.4C34.5,163.4,34.4,163.4,34.4,163.4z"/>
				<path id="XMLID_1910_" class="st17" d="M92.3,150.9"/>
				<path id="XMLID_1909_" class="st5" d="M92.5,149.1c0,0,0.4,1.3,0.3,2.2c0,0.9-0.5,2.2-0.5,2.2l0,0c0,0,0-0.3,0-0.8s0-1,0-1.4
					c0-0.4,0.1-1,0.1-1.4C92.5,149.5,92.5,149.1,92.5,149.1L92.5,149.1z"/>
				<path id="XMLID_1908_" class="st5" d="M37,162.4c0,0-0.1,0.1-0.3,0.3c-0.2,0.2-0.4,0.4-0.6,0.5s-0.5,0.2-0.7,0.3
					s-0.4,0.1-0.4,0.1l0,0c0,0,0.1-0.1,0.3-0.3c0.2-0.2,0.4-0.4,0.6-0.5c0.2-0.1,0.5-0.2,0.7-0.3C36.8,162.4,37,162.4,37,162.4
					L37,162.4z"/>
				<path id="XMLID_1907_" class="st5" d="M38.6,209.2c0,0,0.4-0.9,1.2-1.9c0.7-1.1,1.9-2.2,3-2.9s2.6-1.2,3.9-1.4s2.2-0.2,2.2-0.2
					c0.1,0,0.1,0,0,0c0,0-1,0.2-2.1,0.7c-1.2,0.5-2.5,1.2-3.5,1.8s-2.3,1.5-3.2,2.3C39.2,208.4,38.6,209.2,38.6,209.2
					C38.5,209.3,38.5,209.3,38.6,209.2z"/>
				<path id="XMLID_1906_" class="st5" d="M79.6,63.1c0,0-0.7,0.2-1.3-0.4c-0.6-0.6-0.7-1.7-0.7-2.5c0.1-0.8,0.4-1.8,0.6-2.5
					c0.3-0.8,0.5-1.3,0.5-1.3c0-0.1,0.5,0.1,0.5,0.2c0,0-0.1,0.6-0.4,1.4c-0.2,0.8-0.6,1.7-0.7,2.4c-0.2,0.7-0.2,1.7,0.3,2.4
					c0.2,0.3,0.6,0.5,0.8,0.5C79.4,63.2,79.6,63.1,79.6,63.1C79.7,63.1,79.7,63.1,79.6,63.1z"/>
				<path id="XMLID_1905_" class="st5" d="M84.7,64.8c0,0,0,0.1-0.2,0.3c-0.2,0.1-0.5,0.2-0.9,0.1c-0.4-0.1-0.6-0.5-0.8-0.9
					c-0.1-0.4-0.2-0.8-0.2-1.2c0-0.7,0.3-1.6,0.6-2.2c0.2-0.7,0.4-1.1,0.4-1.1c0-0.1,0.5,0.1,0.5,0.2c0,0-0.1,0.5-0.3,1.2
					c-0.2,0.7-0.5,1.5-0.7,2.1s-0.1,1.5,0.5,1.9c0.3,0.2,0.6,0.1,0.8,0C84.7,65,84.7,64.8,84.7,64.8C84.8,64.8,84.8,64.8,84.7,64.8z
					"/>
				<path id="XMLID_1904_" class="st5" d="M82.9,94.5c0,0,0,0.1-0.2,0.3c-0.2,0.1-0.6,0.2-0.9,0c-0.4-0.2-0.6-0.6-0.7-1
					C81,93.4,81,93,81,92.6c0-0.7,0.2-1.7,0.5-2.4s0.6-1.2,0.6-1.2c0-0.1,0.5,0.2,0.5,0.3c0,0-0.2,0.5-0.5,1.1
					c-0.2,0.7-0.5,1.5-0.6,2.2c-0.1,0.3-0.1,0.7-0.1,1.1c0,0.4,0.2,0.8,0.5,1c0.3,0.2,0.6,0.2,0.8,0.1
					C82.9,94.6,82.9,94.5,82.9,94.5C82.9,94.4,82.9,94.4,82.9,94.5z"/>
				<path id="XMLID_1903_" class="st5" d="M72.4,88.1c0,0-0.5-0.1-0.9-0.7c-0.4-0.6-0.6-1.5-0.4-2.2c0.1-0.7,0.6-1.5,1.1-2
					s0.9-0.8,0.9-0.8c0.1,0,0.4,0.3,0.4,0.4c0,0-0.3,0.4-0.8,0.9c-0.4,0.5-0.9,1.1-1.1,1.7c-0.2,0.5-0.3,1.4,0,2
					C71.9,87.9,72.4,88.1,72.4,88.1C72.5,88.2,72.5,88.2,72.4,88.1z"/>
				<path id="XMLID_1902_" class="st5" d="M62.2,168.1c0,0-1-1-1.6-1.9c-0.3-0.4-0.5-1-0.5-1.5c-0.1-0.5,0-0.9,0-0.9
					c0-0.1,0.8-0.1,0.8-0.1s0.3,1.4,0.5,2.2c0.1,0.4,0.2,1,0.4,1.4C62,167.8,62.2,168.1,62.2,168.1L62.2,168.1z"/>
				<path id="XMLID_1901_" class="st5" d="M40,216.2c0,0,0.3,0.5,0.7,1.4c0.4,0.9,0.9,2.2,1.4,3.8s0.9,3.5,1.1,5.5
					c0.1,1,0.2,2,0.2,3.1c0,0.5,0,1,0,1.6l-0.1,0.9c0,0.5-0.1,1-0.1,1.5c0,0-0.2,0-0.3,0.1c-0.1,0-0.2,0-0.3,0
					c-0.1-0.2-0.2-0.7-0.3-1.1c-0.1-0.2-0.2-0.5-0.2-0.6l-0.1-0.3c-0.1-0.2-0.2-0.5-0.3-0.7c-0.2-0.5-0.4-0.9-0.7-1.4
					c-0.5-0.9-1-1.9-1.7-2.7c-0.6-0.9-1.4-1.7-2-2.6c-0.7-0.9-1.1-2.1-1-3.2c0-2.2,1.1-3.8,1.8-4.9c0.7-1,1.3-1.6,1.3-1.6
					c0.3-0.3,0.8,0.2,0.6,0.5c0,0-0.5,0.6-1.2,1.6c-0.6,1-1.5,2.5-1.5,4.4c0,0.9,0.3,1.8,0.9,2.7c0.6,0.8,1.4,1.7,2,2.6
					c0.6,0.9,1.2,1.9,1.7,2.9c0.2,0.5,0.5,1,0.6,1.5c0.1,0.2,0.2,0.5,0.3,0.7l0.1,0.4c0,0.1,0,0,0,0.1l0,0v0.1c0-0.1,0,0,0,0l0,0
					l0,0l0,0c0-0.1,0,0,0,0l0.1-0.6c0-0.5,0.1-1,0.1-1.5c0-1,0-2-0.1-3c-0.1-2-0.5-3.9-0.9-5.5s-0.9-2.9-1.3-3.9
					C40.3,216.7,40,216.2,40,216.2C39.8,215.9,39.8,215.9,40,216.2z"/>
				<path id="XMLID_1900_" class="st5" d="M44.1,227c0,0-0.1-1.4-0.5-3.4s-1.1-4.4-1.9-6.6l0.4-0.2c0.1,0.2,0.4,0.6,0.6,0.9
					c1.2,1.9,2.1,4.8,2.3,7.1c0.2,2.3-0.2,4.1-0.2,4.1c0,0.2-0.5,0.1-0.5-0.1c0,0,0.3-1.7,0.1-3.9c-0.2-2.3-1-5-2.1-6.9
					c-0.2-0.4-0.5-0.8-0.6-0.9l0.4-0.2c0.7,2.2,1.2,4.8,1.5,6.7C44,225.6,44.1,227,44.1,227C44.1,227.3,44.1,227.2,44.1,227z"/>
				<path id="XMLID_1899_" class="st5" d="M37.7,224.9c0,0,0.5,0.4,1.1,1.1c0.7,0.7,1.5,1.8,2.3,3.2c0.4,0.7,0.8,1.4,1.1,2.2
					c0.3,0.8,0.6,1.6,0.9,2.6c-0.6,0.5-1.2,0-1.4-0.4c-0.3-0.4-0.4-0.9-0.5-1.3l-0.2-0.6v-0.2l0,0c-0.2,0.1-0.3,0.2-0.5,0.3
					c-0.1,0-0.4,0.6-0.7,1.2c0-0.3-0.1-0.8-0.2-1.4c0-0.3-0.1-0.5-0.1-0.8c0-0.2-0.1-0.7-0.1-0.5l0,0c0,0,0-0.1-0.1,0.2
					c-0.2,0.4-0.4,0.8-0.5,1.2c-0.1,0.2-0.2,0.3-0.2,0.5c-0.1,0.1-0.1,0.1-0.2,0.3c0,0,0,0.1-0.2,0c-0.1,0-0.3-0.1-0.3-0.1
					c0-0.1-0.1-0.1-0.1-0.2l0,0v-0.1c0.3-1.6,0.3-3.1,0-4.4c-0.3-1.3-0.9-2.3-1.2-3.3c-0.3-1-0.4-1.8-0.4-2.4c0-0.6,0.2-0.9,0.2-0.9
					c0.1-0.4,0.6-0.2,0.5,0.1c0,0-0.1,0.3-0.1,0.8s0.1,1.3,0.4,2.2c0.2,0.5,0.4,1,0.6,1.5s0.5,1.2,0.6,1.9c0.3,1.4,0.2,3-0.1,4.7
					v-0.1l0,0c0,0-0.1,0-0.2,0.1s0,0-0.1,0c0,0,0,0-0.1-0.1c0-0.1-0.1-0.1-0.1-0.1l0,0V232c0.1-0.1,0.1-0.3,0.2-0.4
					c0.2-0.3,0.3-0.7,0.6-1.2c0.1-0.2,0.2-0.3,0.2-0.5c0.1-0.2,0.2-0.4,0.4-0.5c0.3-0.5,0.4,0,0.5,0.4c0.1,0.6,0.2,1.2,0.3,1.9
					c0,0.1,0,0,0,0l0,0l0,0l0,0l0.1-0.1c0.2-0.2,0.4-0.3,0.6-0.4c0.1,0,0.2-0.1,0.3-0.1h0.2c0,0,0,0.1,0.1,0.1l0.1,0.3v0.2l0.1,0.6
					c0.1,0.4,0.2,0.9,0.4,1.2c0.1,0.2,0.2,0.3,0.4,0.4c0.1,0.1,0.4,0,0.4,0c-0.2-0.7-0.4-1.7-0.7-2.4c-0.3-0.8-0.6-1.6-1-2.3
					c-0.7-1.4-1.5-2.5-2.2-3.2C38.1,225.3,37.7,224.9,37.7,224.9C37.4,224.7,37.4,224.7,37.7,224.9z"/>
			</g>
		</g>
		<path id="XMLID_2016_" class="st5" d="M58.5,93.3c-6.5,0-11.9-5.3-11.9-11.9s5.3-11.9,11.9-11.9c6.5,0,11.9,5.3,11.9,11.9
			S65,93.3,58.5,93.3z M58.5,70.5c-6,0-10.9,4.9-10.9,10.9s4.9,10.9,10.9,10.9s10.9-4.9,10.9-10.9S64.5,70.5,58.5,70.5z"/>
		<path id="XMLID_1886_" class="st18" d="M33.5,88.3c0,0-5.7,1.9-8.2,5.2"/>
		<path id="XMLID_1885_" class="st18" d="M26.5,95.2c0,0-1.5-3.2-4.4-1.9c-2.7,1.2-1,3.5,0.2,6.4c1.2,3.2-0.2,4.9,3.8,5.6
			c3.2,0.6,3.9-2.6,3.9-2.6"/>
		<path id="XMLID_1884_" class="st18" d="M27.6,105.4c4,3.9,8.5,6.5,13,8.9"/>
		<path id="XMLID_1883_" class="st19" d="M24.2,96.9c2,0.7,3.2,1.9,2.9,3.4c-0.3,1.4-3.5,1.1-1.4-2.4"/>
		<path id="XMLID_1882_" class="st5" d="M25.9,101.1c-0.5,0-0.9-0.5-1-1s0.1-1,0.3-1.5c0.1-0.3,0.3-0.6,0.6-0.7
			c0.3-0.1,0.6,0.2,0.8,0.5c0.3,0.4,0.6,0.7,0.7,1.2c0.2,0.4,0.1,1-0.2,1.3c-0.3,0.4-0.8,0.4-1.3,0.5"/>
		<g id="XMLID_1838_">
			<circle id="XMLID_1878_" class="st5" cx="62.1" cy="80.9" r="1.6"/>
			<circle id="XMLID_1879_" class="st5" cx="37.1" cy="76.2" r="1.6"/>
			<path id="XMLID_2143_" class="st5" d="M32.2,78.4c0-6.2,5.1-11.3,11.3-11.3c3.5,0,6.7,1.6,8.8,4.2c0.3-0.2,0.5-0.3,0.8-0.5
				c-2.2-2.8-5.7-4.6-9.6-4.6c-6.8,0-12.3,5.5-12.3,12.3c0,1.2,0.2,2.3,0.5,3.4c0.2-0.3,0.5-0.6,0.7-0.9
				C32.3,80.1,32.2,79.3,32.2,78.4z"/>
		</g>
	</g>
</g>
</svg>
