<?xml version="1.0" encoding="utf-8"?>
<!-- Generator: Adobe Illustrator 19.0.0, SVG Export Plug-In . SVG Version: 6.00 Build 0)  -->
<svg version="1.1" id="Layer_1" xmlns="http://www.w3.org/2000/svg" xmlns:xlink="http://www.w3.org/1999/xlink" x="0px" y="0px"
	 viewBox="0 0 151.2 273.6" style="enable-background:new 0 0 151.2 273.6;" xml:space="preserve">
<style type="text/css">
	.st0{fill:#FFFFFF;}
	.st1{fill:#A23D21;}
	.st2{fill:#F15E39;}
	.st3{fill:none;stroke:#000000;stroke-width:0.8814;stroke-linecap:round;stroke-linejoin:round;stroke-miterlimit:10;}
	.st4{fill:#404358;}
	.st5{fill:#6C86BF;}
	.st6{fill:#585D77;}
	.st7{fill:#F9D73A;}
	.st8{fill:#D7B550;}
	.st9{fill:#E6E7E8;}
	.st10{fill:#BCBEC0;}
	.st11{fill:#566B99;}
	.st12{fill:#3F4358;}
	.st13{fill:#DBBF34;}
	.st14{fill:#FEEA96;}
	.st15{fill:#B9CBE9;}
	.st16{fill:none;stroke:#000000;stroke-width:0.2204;stroke-linecap:round;stroke-linejoin:round;stroke-miterlimit:10;}
	.st17{fill:none;stroke:#404358;stroke-width:0.9497;stroke-linecap:round;stroke-linejoin:round;stroke-miterlimit:10;}
	.st18{fill:none;stroke:#404358;stroke-width:1.2087;stroke-linecap:round;stroke-linejoin:round;stroke-miterlimit:10;}
</style>
<g id="XMLID_2079_">
	<path id="XMLID_2078_" class="st0" d="M89.5,25.1c-1.9,0-3.8,0.5-5.4,1.3c0,0,0,0,0,0c-2.2-2.8-5.7-4.6-9.6-4.6
		c-6.8,0-12.3,5.5-12.3,12.3c0,1.2,0.2,2.3,0.5,3.4c0.1-0.1,0.2-0.2,0.3-0.4c0,0,0,0,0,0c0,0.8,0.5,1.5,1.2,1.9
		c0.7,0.4,1.5,0.6,2.3,0.7c3.8,0.7,7.8,0.9,11.7,0.8c1.5,4.8,6,8.2,11.3,8.2c6.5,0,11.9-5.3,11.9-11.9S96,25.1,89.5,25.1z"/>
	<g id="XMLID_2381_">
		<g id="XMLID_1887_">
			<g id="XMLID_1888_">
				<path id="XMLID_2177_" class="st1" d="M71.6,213.6c1.4,0.6,2.7,1.3,4.1,1.9c0.4,0.2,0.8,0.3,1.2,0.4c0.2,0,0.5,0,0.7-0.1
					c0.6-0.1,1.3-0.2,1.9-0.3c0,0,0.1,0,0.1-0.1c0,0,0-0.1,0-0.1c0.1-0.7,0.2-1.4,0.3-2.1c0-0.2,0-0.4-0.1-0.5
					c-0.1-0.1-0.3-0.1-0.4,0c-2.1,0.3-4.2,0.6-6.3,1c-0.2,0-0.4,0-0.5-0.1"/>
				<path id="XMLID_2174_" class="st1" d="M67.3,217.3c0.9-0.1,1.8-0.2,2.7-0.4c-0.8-0.3-1.6-0.7-2.4-1c-0.1,0.2-0.2,0.5-0.3,0.7"/>
				<path id="XMLID_2171_" class="st2" d="M79.8,220.5"/>
				<line id="XMLID_2168_" class="st2" x1="80.3" y1="212.7" x2="71.4" y2="213.8"/>
				<line id="XMLID_2165_" class="st2" x1="67.1" y1="217.3" x2="70.7" y2="216.8"/>
				<line id="XMLID_2162_" class="st2" x1="80.1" y1="215.6" x2="77.1" y2="216"/>
				<path id="XMLID_2160_" class="st2" d="M113.5,221.6l-0.9,0.1l-13.7,1.8l-5.8,0.7l-7.3,0.9c0.1-1.1,0.1-2.2,0.2-3.2l7-0.8
					l5.8-0.7l13.3-1.6l0.4,0C114.9,219.7,114.9,220.7,113.5,221.6z"/>
				<polygon id="XMLID_2159_" class="st2" points="66,237.9 63.3,238.3 63.6,236.8 				"/>
				<path id="XMLID_2156_" class="st1" d="M79.2,233.1c0,1-0.1,1.9-0.1,2.9l-7.5,1.1l-4.6-2.2L79.2,233.1z"/>
				<path id="XMLID_2153_" class="st1" d="M94.3,233.7l-0.9,0.1h0l-8.2,1.2c0.1-1,0.1-1.9,0.2-2.8l8-1.2h0
					C94.3,231.3,95.9,232.3,94.3,233.7z"/>
				<path id="XMLID_2151_" class="st2" d="M117.2,243.4l-1,0.2l-16.5,2.7l-5.7,0.9l-9.4,1.5c0.1-1,0.1-2.1,0.1-3.2l9.2-1.4l5.7-0.9
					l16.2-2.5l0.2,0C117.1,240.8,118.7,241.9,117.2,243.4z"/>
				<path id="XMLID_2140_" class="st2" d="M87.8,196.2c0,0-0.5,6.3-1.1,15.7c-0.1,1-0.1,2-0.2,3c-0.1,2.2-0.3,4.6-0.5,7.1
					c-0.1,1-0.1,2.1-0.2,3.2c-0.1,2.3-0.3,4.7-0.4,7.1c-0.1,0.9-0.1,1.9-0.2,2.8c-0.2,3.5-0.4,7-0.6,10.4c-0.1,1.1-0.1,2.1-0.1,3.2
					c-0.4,8-0.7,15.7-0.7,22.1c0,0.5-0.3,1-0.8,1.2c-1.7,0.8-2.9,0.8-4.6,0c-0.5-0.2-0.7-0.7-0.7-1.2c0.4-9.1,0.7-18,1.1-26.9
					c0-1.1,0.1-2.2,0.1-3.3c0.1-1.5,0.1-3,0.2-4.6c0-1,0.1-1.9,0.1-2.9c0.2-4.2,0.4-8.4,0.6-12.6c0.1-1.1,0.1-2.2,0.2-3.3
					c0-0.5,0.1-1,0.1-1.5c0.1-1,0.1-2,0.2-3c0.3-5.4,0.6-10.9,1-16.4L87.8,196.2z"/>
				<path id="XMLID_2137_" class="st2" d="M78.9,240.5c-0.1,1.1-0.1,2.2-0.1,3.3L66,237.9l-2.4-1.1l-0.9-0.4l-1.6-0.7
					c-1.6-1.3,0.9-2.9,2.5-2.3l0.6,0.3l2.8,1.3l4.6,2.2L78.9,240.5z"/>
				<path id="XMLID_2130_" class="st2" d="M64.5,214.4l2.9,1.2l-0.3,1.8l-2.9,16.3l-0.6-0.3c-1.6-0.6-4.1,1-2.5,2.3l1.6,0.7l0.9,0.4
					l-0.3,1.5L59.6,259c-0.1,0.5-0.5,0.9-1,1c-1.5,0.4-2.7,0.7-4,0.3c-0.6-0.2-1-0.8-0.9-1.5l11.1-65.3l6.2,1.4L68,212.5l-1-0.4
					C65.6,211.7,63.5,212.8,64.5,214.4z"/>
				<path id="XMLID_2127_" class="st2" d="M80,217.2c-0.1,1.1-0.1,2.2-0.2,3.3l-9.2-3.7l-3.3-1.3l-2.9-1.2c-1-1.5,1.1-2.7,2.5-2.3
					l1,0.4l3.4,1.3l5.7,2.2L80,217.2z"/>
				<path id="XMLID_2124_" class="st1" d="M99.5,243.2l-5.7,0.9l-0.4-10.3l0.9-0.1c1.5-1.4,0-2.4-1-2.6h0l-0.3-6.9l5.8-0.7l0.1,4.6
					l-0.1,0c-1.3-0.5-3.8,0.7-2.3,2.4l2.5,1L99.5,243.2z"/>
				<path id="XMLID_2121_" class="st1" d="M111.6,216.3l-13.2-4.7l-2.6-0.9c-1.5-1.5-0.1-2.9,2.4-2.5l0.2,0.1l12.7,4.7L111.6,216.3z
					"/>
				<path id="XMLID_2118_" class="st1" d="M94.2,213.9l-1.5,0.2l-6.2,0.8c0.1-1,0.1-2,0.2-3l5.9-0.8l0.1,0
					C93.9,211.4,94.9,212.5,94.2,213.9z"/>
				<path id="XMLID_2115_" class="st1" d="M98.5,211.6l-2.6-0.9c-1.5-1.5-0.1-2.9,2.4-2.5l0.2,0.1L98,196.3l-5.9,0.4l0.5,14.3l0.1,0
					l0,3l0.3,7l5.8-0.7L98.5,211.6z"/>
				<path id="XMLID_2112_" class="st1" d="M115.3,238.2l-16.1-6.8l-2.5-1c-1.5-1.7,1-2.9,2.3-2.4l0.1,0l15.7,6.6L115.3,238.2z"/>
				<path id="XMLID_2105_" class="st1" d="M99.8,251.9c0,0.6-0.3,1.1-0.9,1.3c-1.4,0.5-2.7,0.7-4,0c-0.4-0.2-0.7-0.7-0.8-1.2
					l-0.2-4.9l5.7-0.9L99.8,251.9z"/>
				<path id="XMLID_2098_" class="st2" d="M125.3,262.8c0.1,0.5-0.2,1.1-0.6,1.3c-1.6,1-2.8,1-4.5,0.1c-0.4-0.2-0.7-0.6-0.7-1
					l-3.3-19.7l1-0.2c1.5-1.5-0.1-2.6-1.3-2.7l-0.2,0l-0.4-2.5h0l-0.6-3.6l-2.1-13l0.9-0.1c1.4-0.9,1.4-1.8-1-2.9l-0.4,0l-0.4-2.5
					l-0.5-3.3l-2.9-17.6l6.3-1.5L125.3,262.8z"/>
				<path id="XMLID_2095_" class="st2" d="M79.8,220.5"/>
				<line id="XMLID_2092_" class="st2" x1="80.3" y1="212.7" x2="71.4" y2="213.8"/>
				<line id="XMLID_2089_" class="st2" x1="67.1" y1="217.3" x2="70.7" y2="216.8"/>
				<line id="XMLID_2086_" class="st2" x1="80.1" y1="215.6" x2="77.1" y2="216"/>
				<polygon id="XMLID_2083_" class="st2" points="66,237.9 63.3,238.3 63.6,236.8 				"/>
				<path id="XMLID_2080_" class="st2" d="M79.8,220.5"/>
				<line id="XMLID_2077_" class="st2" x1="80.3" y1="212.7" x2="71.4" y2="213.8"/>
				<line id="XMLID_2074_" class="st2" x1="67.1" y1="217.3" x2="70.7" y2="216.8"/>
				<polygon id="XMLID_2071_" class="st1" points="66,237.9 63.3,238.3 63.6,236.8 				"/>
				<path id="XMLID_2068_" class="st1" d="M98.4,208.2l-0.2-0.1c-2.4-0.4-3.8,1-2.4,2.5l2.6,0.9"/>
				<path id="XMLID_2067_" class="st3" d="M79.8,220.5"/>
				<path id="XMLID_2066_" class="st4" d="M71.4,214.3c-0.2,0-0.4-0.2-0.4-0.4c0-0.2,0.1-0.5,0.4-0.5l8.9-1.1c0.3,0,0.5,0.1,0.5,0.4
					c0,0.2-0.1,0.5-0.4,0.5L71.4,214.3C71.4,214.3,71.4,214.3,71.4,214.3z"/>
				<path id="XMLID_2065_" class="st4" d="M67.1,217.7c-0.2,0-0.4-0.2-0.4-0.4c0-0.2,0.1-0.5,0.4-0.5l3.6-0.4c0.3,0,0.5,0.1,0.5,0.4
					c0,0.2-0.1,0.5-0.4,0.5L67.1,217.7C67.1,217.7,67.1,217.7,67.1,217.7z"/>
				<path id="XMLID_2064_" class="st4" d="M77.1,216.5c-0.2,0-0.4-0.2-0.4-0.4c0-0.2,0.1-0.5,0.4-0.5l3-0.4c0.2,0,0.5,0.1,0.5,0.4
					c0,0.2-0.1,0.5-0.4,0.5L77.1,216.5C77.1,216.5,77.1,216.5,77.1,216.5z"/>
				<path id="XMLID_2061_" class="st4" d="M85.8,225.6c-0.1,0-0.2,0-0.3-0.1c-0.1-0.1-0.1-0.2-0.1-0.3c0-0.7,0.1-1.3,0.1-2l0.1-1.2
					c0-0.2,0.2-0.4,0.4-0.4l26.4-3.2c0.1,0,0.2,0,0.2,0c1.5,0.6,2.2,1.3,2.2,2c0,0.6-0.3,1.1-1.1,1.6c-0.1,0-0.1,0.1-0.2,0.1
					l-0.9,0.1L85.8,225.6C85.9,225.6,85.8,225.6,85.8,225.6z M86.4,222.3l-0.1,0.8c0,0.5-0.1,1-0.1,1.5l27-3.5
					c0.4-0.3,0.7-0.6,0.7-0.8c0-0.1-0.2-0.6-1.6-1.2L86.4,222.3z"/>
				<path id="XMLID_2060_" class="st4" d="M63.3,238.7c-0.1,0-0.2,0-0.3-0.1c-0.1-0.1-0.1-0.2-0.1-0.4l0.3-1.5
					c0-0.1,0.1-0.3,0.2-0.3c0.1-0.1,0.3-0.1,0.4,0l2.4,1.1c0.2,0.1,0.3,0.3,0.2,0.5c0,0.2-0.2,0.3-0.4,0.4L63.3,238.7
					C63.4,238.7,63.4,238.7,63.3,238.7z"/>
				<path id="XMLID_2057_" class="st4" d="M71.6,237.5c-0.1,0-0.1,0-0.2,0l-4.6-2.2c-0.2-0.1-0.3-0.3-0.2-0.5c0-0.2,0.2-0.3,0.4-0.4
					l12.3-1.8c0.1,0,0.3,0,0.4,0.1c0.1,0.1,0.2,0.2,0.1,0.3l-0.1,2.9c0,0.2-0.2,0.4-0.4,0.4L71.6,237.5
					C71.6,237.5,71.6,237.5,71.6,237.5z M68.4,235.1l3.2,1.5l7.1-1l0.1-2L68.4,235.1z"/>
				<path id="XMLID_2054_" class="st4" d="M85.2,235.5c-0.1,0-0.2,0-0.3-0.1c-0.1-0.1-0.2-0.2-0.1-0.4l0-0.3c0-0.8,0.1-1.7,0.2-2.5
					c0-0.2,0.2-0.4,0.4-0.4l7.9-1.2c0,0,0.2,0,0.2,0c0.8,0.2,1.7,0.7,1.9,1.6c0.1,0.4,0.1,1.1-0.8,1.8c-0.1,0.1-0.1,0.1-0.2,0.1
					L85.2,235.5C85.3,235.5,85.2,235.5,85.2,235.5z M85.8,232.6c0,0.6-0.1,1.3-0.1,1.9l8.4-1.2c0.3-0.3,0.5-0.6,0.4-0.9
					c-0.1-0.4-0.7-0.8-1.2-0.9L85.8,232.6z"/>
				<path id="XMLID_2051_" class="st4" d="M84.5,249.1c-0.1,0-0.2,0-0.3-0.1c-0.1-0.1-0.2-0.2-0.1-0.4l0.2-3.2
					c0-0.2,0.2-0.4,0.4-0.4l31.2-4.8c0,0,0.1,0,0.1,0c0.9,0.1,1.9,0.7,2.2,1.5c0.2,0.5,0.2,1.2-0.7,2c-0.1,0.1-0.1,0.1-0.2,0.1
					l-1,0.2L84.5,249.1C84.6,249.1,84.5,249.1,84.5,249.1z M85.1,245.9l-0.1,2.3l32-5.2c0.3-0.4,0.5-0.7,0.4-1
					c-0.2-0.5-0.8-0.8-1.4-0.9l-0.2,0L85.1,245.9z"/>
				<path id="XMLID_2048_" class="st4" d="M80.7,273c-0.8,0-1.6-0.2-2.4-0.7c-0.6-0.3-1-1-1-1.6l0.3-7.7c0.3-6.5,0.5-12.8,0.8-19.2
					l0-0.1c0-1.1,0.1-2.1,0.1-3.2c0.1-1.5,0.1-3,0.2-4.6l0.1-2.9c0.2-4.2,0.4-8.4,0.6-12.6l0.3-5.3c0-0.8,0.1-1.7,0.1-2.6
					c0.3-5.4,0.6-11,1-16.4c0-0.2,0.2-0.4,0.4-0.4l6.5-0.1c0,0,0,0,0,0c0.1,0,0.2,0.1,0.3,0.1c0.1,0.1,0.1,0.2,0.1,0.3
					c0,0-0.5,6.3-1.1,15.7c-0.1,1-0.1,2-0.2,3c-0.1,1.6-0.2,3.3-0.3,5l-0.2,3.3c0,0.7-0.1,1.3-0.1,2l-0.1,1.1
					c-0.1,1.9-0.2,3.9-0.4,5.9c-0.1,0.8-0.1,1.7-0.2,2.5l0,0.3c-0.2,3.5-0.4,7-0.6,10.4l-0.2,3.2c-0.4,8.6-0.7,16.1-0.7,22.1
					c0,0.7-0.4,1.3-1,1.6C82.3,272.8,81.5,273,80.7,273z M81.7,196.7c-0.3,5.3-0.7,10.7-1,16c-0.1,0.9-0.1,1.7-0.1,2.5l-0.3,5.3
					c-0.2,4.2-0.4,8.4-0.6,12.6l-0.1,2.9c-0.1,1.5-0.1,3-0.2,4.6c-0.1,1.1-0.1,2.1-0.1,3.2l0,0.1c-0.3,6.4-0.5,12.8-0.8,19.2
					l-0.3,7.7c0,0.3,0.2,0.7,0.5,0.8c1.5,0.8,2.6,0.8,4.2,0c0.3-0.1,0.5-0.5,0.5-0.8c0.1-6,0.3-13.5,0.7-22.1l0.2-3.2
					c0.2-3.5,0.4-7,0.6-10.4l0-0.3c0-0.8,0.1-1.7,0.2-2.5c0.1-2,0.2-4,0.4-5.9l0.1-1.1c0-0.7,0.1-1.3,0.1-2l0.2-3.3
					c0.1-1.7,0.2-3.4,0.3-5c0.1-1,0.1-2,0.2-3c0.5-7.8,1-13.6,1.1-15.2L81.7,196.7z"/>
				<path id="XMLID_2045_" class="st4" d="M78.8,244.3c-0.1,0-0.1,0-0.2,0L60.9,236c0,0-0.1,0-0.1-0.1c-0.7-0.6-0.9-1.3-0.5-1.9
					c0.6-1,2.2-1.5,3.4-1.1l15.4,7.2c0.2,0.1,0.3,0.2,0.3,0.4c-0.1,1.1-0.1,2.1-0.1,3.2l0,0.1c0,0.1-0.1,0.3-0.2,0.4
					C78.9,244.3,78.9,244.3,78.8,244.3z M61.3,235.2l17,7.9c0-0.8,0.1-1.6,0.1-2.4l-15.1-7.1c-0.8-0.3-2,0.2-2.3,0.7
					C61,234.5,60.9,234.8,61.3,235.2z"/>
				<path id="XMLID_2042_" class="st4" d="M56.1,260.9c-0.5,0-1-0.1-1.5-0.2c-0.8-0.3-1.4-1.1-1.2-2l11.1-65.3
					c0-0.1,0.1-0.2,0.2-0.3c0.1-0.1,0.2-0.1,0.3-0.1l6.2,1.4c0.2,0.1,0.4,0.3,0.3,0.5l-3.1,17.6c0,0.1-0.1,0.2-0.2,0.3
					c-0.1,0.1-0.3,0.1-0.4,0l-1-0.4c-0.7-0.2-1.6,0.1-2,0.6c-0.2,0.3-0.2,0.6,0,0.9l2.8,1.1c0.2,0.1,0.3,0.3,0.3,0.5l-3.2,18.1
					c0,0.1-0.1,0.3-0.2,0.3c-0.1,0.1-0.3,0.1-0.4,0l-0.6-0.3c-0.8-0.3-2,0.2-2.3,0.7c-0.1,0.1-0.2,0.4,0.2,0.8l2.4,1.1
					c0.2,0.1,0.3,0.3,0.2,0.5l-4,22.2c-0.1,0.7-0.6,1.2-1.3,1.4C57.9,260.7,57,260.9,56.1,260.9z M65.3,194.1l-11,64.8
					c-0.1,0.4,0.2,0.9,0.6,1c1.1,0.3,2.1,0.2,3.7-0.3c0.3-0.1,0.6-0.4,0.6-0.7l3.9-21.8l-2.2-1c0,0-0.1,0-0.1-0.1
					c-0.7-0.6-0.9-1.3-0.5-1.9c0.6-1,2.2-1.5,3.4-1.1l0.1,0l3.1-17.1l-2.6-1c-0.1,0-0.2-0.1-0.2-0.2c-0.5-0.7-0.5-1.4,0-2
					c0.6-0.8,2-1.2,3-0.9l0.5,0.2l3-16.6L65.3,194.1z"/>
				<path id="XMLID_2039_" class="st4" d="M79.8,220.9c-0.1,0-0.1,0-0.2,0l-15.4-6.1c-0.1,0-0.2-0.1-0.2-0.2c-0.5-0.7-0.5-1.4,0-2
					c0.6-0.8,2-1.2,3-0.9l13.1,5.1c0.2,0.1,0.3,0.2,0.3,0.4l-0.2,3.3c0,0.1-0.1,0.3-0.2,0.4C80,220.9,79.9,220.9,79.8,220.9z
					 M64.8,214l14.6,5.9l0.1-2.4l-12.7-5c-0.7-0.2-1.6,0.1-2,0.6C64.6,213.4,64.6,213.7,64.8,214z"/>
				<path id="XMLID_2036_" class="st4" d="M93.8,244.5c-0.1,0-0.2,0-0.3-0.1c-0.1-0.1-0.2-0.2-0.2-0.3L93,233.8
					c0-0.2,0.2-0.4,0.4-0.5l0.7-0.1c0.3-0.3,0.5-0.6,0.4-0.9c-0.1-0.4-0.7-0.8-1.2-0.9c-0.2,0-0.4-0.2-0.4-0.4l-0.3-6.9
					c0-0.2,0.2-0.4,0.4-0.5l5.8-0.7c0.1,0,0.2,0,0.3,0.1c0.1,0.1,0.2,0.2,0.2,0.3l0.1,4.6c0,0.2-0.1,0.3-0.2,0.4
					c-0.1,0.1-0.3,0.1-0.4,0c-0.7-0.3-1.8,0-2.1,0.5c-0.1,0.1-0.3,0.4,0.2,1l2.4,1c0.2,0.1,0.3,0.2,0.3,0.4l0.4,11.8
					c0,0.2-0.2,0.4-0.4,0.4L93.8,244.5C93.9,244.5,93.9,244.5,93.8,244.5z M93.9,234.2l0.4,9.4l4.8-0.7l-0.4-11.1l-2.2-0.9
					c-0.1,0-0.1-0.1-0.2-0.1c-0.9-1-0.5-1.9-0.3-2.2c0.5-0.7,1.6-1.1,2.6-1l-0.1-3.5l-4.9,0.6l0.2,6.1c0.7,0.2,1.4,0.8,1.6,1.5
					c0.1,0.4,0.1,1.1-0.8,1.8c-0.1,0.1-0.1,0.1-0.2,0.1L93.9,234.2z"/>
				<path id="XMLID_2035_" class="st4" d="M111.6,216c0,0-0.1-0.7-0.3-1.9c-0.1-0.3-0.1-0.6-0.2-1c0-0.2-0.2-0.1-0.4-0.2
					c-0.2-0.1-0.4-0.1-0.6-0.2c-0.8-0.3-1.6-0.6-2.5-0.9c-1.8-0.6-3.9-1.3-5.9-2c-1-0.3-2-0.7-3-1c-0.8-0.4-1.9-0.3-2.5,0.1
					c-0.3,0.2-0.4,0.4-0.4,0.7c0,0.1,0.1,0.3,0.2,0.5c0.1,0.2,0.2,0.2,0.3,0.3c1,0.3,2,0.7,3,1c2,0.7,4.1,1.4,5.9,2.1
					c3.6,1.3,6.3,2.4,6.3,2.4c0.4,0.2,0,1.1-0.4,1c0,0-2.8-0.9-6.4-2.2c-1.8-0.6-3.8-1.4-5.9-2.1c-1-0.4-2-0.7-3-1.1
					c-0.4-0.1-0.7-0.4-0.8-0.7c-0.2-0.3-0.3-0.6-0.4-0.9c-0.1-0.8,0.4-1.5,1-1.7c0.5-0.3,1.1-0.3,1.7-0.3c0.3,0,0.6,0,0.8,0.1
					c0.4,0.1,0.5,0.2,0.8,0.3c1,0.4,2,0.8,2.9,1.2c2,0.8,4,1.6,5.8,2.3c0.9,0.4,1.7,0.7,2.5,1c0.2,0.1,0.4,0.1,0.6,0.2l0.3,0.1
					c0,0,0.1,0,0.1,0.1l0,0.2c0.1,0.4,0.1,0.7,0.1,1C111.5,215.2,111.6,216,111.6,216C111.7,216.4,111.7,216.3,111.6,216z"/>
				<path id="XMLID_2034_" class="st4" d="M92.6,211.5c-0.2,0-0.4-0.2-0.4-0.4l-0.5-14.3c0-0.2,0.2-0.4,0.4-0.5l5.9-0.4
					c0.1,0,0.2,0,0.3,0.1c0.1,0.1,0.1,0.2,0.1,0.3l0.4,11.9c0,0.2-0.2,0.4-0.4,0.5c-0.3,0-0.4-0.2-0.5-0.4l-0.4-11.4l-5.1,0.4
					l0.5,13.9C93,211.3,92.8,211.5,92.6,211.5C92.6,211.5,92.6,211.5,92.6,211.5z"/>
				<path id="XMLID_2033_" class="st3" d="M92.7,214"/>
				<path id="XMLID_2032_" class="st4" d="M93,221.5c-0.1,0-0.2,0-0.3-0.1c-0.1-0.1-0.2-0.2-0.2-0.3l-0.3-7c0-0.2,0.2-0.4,0.4-0.5
					c0.3,0,0.4,0.2,0.5,0.4l0.3,6.5l4.9-0.6l-0.3-8.4c0-0.2,0.2-0.4,0.4-0.5c0,0,0,0,0,0c0.2,0,0.4,0.2,0.4,0.4l0.3,8.8
					c0,0.2-0.2,0.4-0.4,0.5L93,221.5C93,221.5,93,221.5,93,221.5z"/>
				<path id="XMLID_2029_" class="st4" d="M115.3,238.7c-0.1,0-0.1,0-0.2,0l-18.6-7.8c-0.1,0-0.1-0.1-0.2-0.1
					c-0.9-1-0.5-1.9-0.3-2.2c0.6-0.9,2.1-1.3,3.1-0.9l15.8,6.6c0.1,0.1,0.2,0.2,0.3,0.3l0.6,3.6c0,0.2,0,0.3-0.2,0.4
					C115.5,238.6,115.4,238.7,115.3,238.7z M96.9,230l17.8,7.5l-0.4-2.5l-15.4-6.5c-0.7-0.3-1.8,0-2.1,0.5
					C96.7,229.1,96.4,229.4,96.9,230z"/>
				<path id="XMLID_2026_" class="st4" d="M96.7,254.1c-0.7,0-1.4-0.2-2-0.5c-0.6-0.3-1-0.9-1-1.5l-0.2-4.9c0-0.2,0.2-0.4,0.4-0.5
					l5.7-0.9c0.1,0,0.3,0,0.4,0.1c0.1,0.1,0.2,0.2,0.2,0.3l0.2,5.7c0,0.8-0.4,1.4-1.1,1.7C98.2,253.9,97.5,254.1,96.7,254.1z
					 M94.4,247.5l0.2,4.5c0,0.3,0.2,0.6,0.5,0.8c1.1,0.5,2.2,0.5,3.7-0.1c0.4-0.1,0.6-0.5,0.6-0.9c0,0,0,0,0,0l-0.2-5.2L94.4,247.5z
					"/>
				<path id="XMLID_2023_" class="st4" d="M122.4,265.3c-0.8,0-1.5-0.2-2.4-0.6c-0.5-0.2-0.9-0.7-1-1.3l-3.3-19.7
					c0-0.1,0-0.2,0.1-0.3c0.1-0.1,0.2-0.2,0.3-0.2l0.9-0.1c0.3-0.4,0.5-0.7,0.4-1c-0.2-0.5-0.8-0.8-1.4-0.9l-0.2,0
					c-0.3,0-0.5-0.1-0.5-0.4l-0.4-2.4c0,0,0-0.1,0-0.1l-2.7-16.5c0-0.1,0-0.2,0.1-0.3c0.1-0.1,0.2-0.2,0.3-0.2l0.8-0.1
					c0.4-0.3,0.7-0.6,0.7-0.8c0-0.1-0.2-0.6-1.6-1.2l-0.3,0c-0.2,0-0.4-0.1-0.5-0.4l-3.9-23.5c0-0.2,0.1-0.4,0.3-0.5l6.3-1.5
					c0.1,0,0.2,0,0.3,0.1c0.1,0.1,0.2,0.2,0.2,0.3l10.8,69.1l0,0c0.1,0.7-0.2,1.4-0.8,1.8C124,265,123.2,265.3,122.4,265.3z
					 M116.7,243.9l3.2,19.3c0,0.3,0.2,0.5,0.5,0.7c1.6,0.8,2.7,0.8,4.1-0.1c0.3-0.2,0.5-0.5,0.4-0.9l-10.7-68.6l-5.5,1.3l3.7,22.7
					c0.1,0,0.1,0,0.2,0c1.5,0.6,2.2,1.3,2.2,2c0,0.6-0.3,1.1-1.1,1.6c-0.1,0-0.1,0.1-0.2,0.1l-0.5,0.1l2.6,16c0,0,0,0.1,0,0.1
					l0.3,2.1c0.9,0.1,1.8,0.7,2.1,1.5c0.2,0.5,0.2,1.2-0.7,2c-0.1,0.1-0.1,0.1-0.2,0.1L116.7,243.9z"/>
				<path id="XMLID_2022_" class="st3" d="M79.8,220.5"/>
				<path id="XMLID_2021_" class="st4" d="M77.1,216.5c-0.2,0-0.4-0.2-0.4-0.4c0-0.2,0.1-0.5,0.4-0.5l3-0.4c0.2,0,0.5,0.1,0.5,0.4
					c0,0.2-0.1,0.5-0.4,0.5L77.1,216.5C77.1,216.5,77.1,216.5,77.1,216.5z"/>
				<path id="XMLID_2020_" class="st3" d="M79.8,220.5"/>
				<path id="XMLID_2017_" class="st4" d="M86.5,215.3c-0.1,0-0.2,0-0.3-0.1c-0.1-0.1-0.1-0.2-0.1-0.4c0.1-1,0.1-2,0.2-3
					c0-0.2,0.2-0.4,0.4-0.4l5.9-0.8c0.4-0.1,0.9,0.1,1.4,0.5c0.6,0.5,0.9,1.1,1,1.7c0,0.8-0.5,1.5-1.3,1.5L86.5,215.3
					C86.5,215.3,86.5,215.3,86.5,215.3z M87.1,212.2c0,0.7-0.1,1.4-0.1,2.1l6.5-0.8c0.3,0,0.5-0.3,0.5-0.6c0-0.3-0.3-0.7-0.6-1
					c-0.3-0.3-0.6-0.3-0.7-0.3c0,0,0,0,0,0L87.1,212.2z"/>
				<polygon id="XMLID_2014_" class="st2" points="60.3,188.9 60.2,190.4 61.9,192.2 67.5,194.3 75.1,195.9 85,196.9 95.9,196.9 
					105.6,195.9 112.9,194.7 118.5,192.6 120.7,190.7 121,187 121,181.8 118.5,179.6 113.7,177.7 111.2,180 105.7,182.9 98.8,185.7 
					93.4,187.6 89.9,189.3 82.7,191.1 76.8,191.7 69.5,190.9 64.7,190.3 				"/>
				<path id="XMLID_2013_" class="st4" d="M90.6,189.8l-1.1,0c-0.2,0-0.4-0.2-0.4-0.4c0-0.2,0.2-0.4,0.4-0.4c0,0,0,0,0,0l1.1,0
					c17.8,0,29.8-3.4,29.8-6.6c0-1.5-2.6-3-7-4.2c-0.2-0.1-0.4-0.3-0.3-0.5c0.1-0.2,0.3-0.4,0.5-0.3c3.5,0.9,7.7,2.6,7.7,5
					C121.3,187,105.7,189.8,90.6,189.8z"/>
				<path id="XMLID_2012_" class="st4" d="M90.6,197.2c-15.1,0-30.7-2.8-30.7-7.5c0-0.2,0.2-0.4,0.4-0.4c0.2,0,0.4,0.2,0.4,0.4
					c0,3.2,12,6.6,29.8,6.6c17.8,0,29.8-3.4,29.8-6.6c0-0.2,0.2-0.4,0.4-0.4s0.4,0.2,0.4,0.4C121.3,194.4,105.7,197.2,90.6,197.2z"
					/>
				<path id="XMLID_2011_" class="st4" d="M120.8,190.1c-0.2,0-0.4-0.2-0.4-0.4v-7.3c0-0.2,0.2-0.4,0.4-0.4s0.4,0.2,0.4,0.4v7.3
					C121.3,189.9,121.1,190.1,120.8,190.1z"/>
				<path id="XMLID_2010_" class="st4" d="M60.3,190.1c-0.2,0-0.4-0.2-0.4-0.4v-0.8c0-0.2,0.2-0.4,0.4-0.4c0.2,0,0.4,0.2,0.4,0.4
					v0.8C60.7,189.9,60.5,190.1,60.3,190.1z"/>
				<path id="XMLID_2009_" class="st0" d="M63.1,37.4c-0.1-0.4-0.6-2.6-0.6-2.8c0-0.2,0.4-4.3,0.4-4.3l1.3-2.9l1.5-0.9l2.4-0.3
					l3.2,0.9l4,1.5l3.1,2.2l0.8,0.9l0.8-0.6l3.3,0.2l3.3,0.7l4.7,1.8l4,3.3l2.4,2.8l1.5,2.6l-2.6,2.9l-3.2,2.1L88.5,48l-3.8-0.8
					l-2.9-1.8L79.7,43l-1.1-3.1L78,38.7l-4.3-0.9l-5-1.9L66,35.6l-2.1,1.1L63.1,37.4z"/>
				<polygon id="XMLID_2008_" class="st5" points="32.1,208.1 30.2,198.5 28.7,187.2 28,174.4 28.3,168.2 27.2,165.9 27.1,162.1 
					29.6,156.1 33.6,152.2 37.7,149.9 40.8,149.6 43.6,148.9 52.7,147.7 64,146.5 67.1,145.9 70.9,147.8 79,150.5 85.6,152.1 
					86.7,152.2 90.4,155 93.9,155.9 97.6,155.2 100.8,153.4 106.3,153.1 113,151.8 117.3,150.5 117.7,155.8 117.9,163.5 117,170.7 
					114.8,176 112.5,178.7 110.2,180.6 105.7,182.9 100.1,185.1 95,187.1 90.7,188.8 87.3,190.3 83.5,191.3 77.6,191.6 70.7,191.2 
					64.7,190.3 59.6,188.5 55.6,187.1 54.7,189.8 52.8,194.4 51.6,197.9 51.3,203.8 51.2,209.8 48.1,210.9 43.8,211.6 39.7,211.3 
					35.8,210.1 				"/>
				<polygon id="XMLID_2007_" class="st6" points="27.5,165.8 24.7,166.9 20.6,168.5 16,169.8 10.4,170.7 5.1,170 4.1,168.8 
					4.1,167.1 7.8,159.4 11.3,155.2 15.1,152.2 18.7,150.7 23.4,150 24.8,149.5 25.1,147.9 27.6,146 29.4,145.6 31.4,145.8 
					34.1,147.6 37.9,149.8 33.8,152.2 29.8,156 27.8,160.5 27.3,163.9 				"/>
				<polygon id="XMLID_2006_" class="st6" points="34.6,209.6 30.5,216.1 27.2,223 25.9,227.6 26.1,230.4 27.6,231.8 31.6,232.2 
					36.7,230.9 41.1,227.9 44.1,223.8 45.4,221.2 46.7,221.4 49.7,219.3 50.5,217.8 50,212.4 49.8,210.1 45.5,211.5 40.6,211.5 
					36.8,210.4 				"/>
				<path id="XMLID_2005_" class="st7" d="M39,87.3l-1.1,1.9l-0.4,2.6l0.1,2.2l-3.7,4.2l-3,4.5l-2.4,6.5l-1.2,6.2l-0.2,6.5l1.1,5.6
					l1.8,3.3l1.4,2.3l2.4,4.4l2,1.2l3.3-0.3l4.5,0.2l6.3-1.1l7.6-2.4l5.8-2.4l3-1.2l3.9,5.8l5.6,5.9l7.4,6.1l3.1,2l2.4,2.3l3.2,1.9
					l4.2,0.3l6.2-2.9l3.6-2.1l5.8-2.3l7.1-2.6l4.8-2.9l5.1-5.2l4.3-6.9l3.2-8.2c0,0,0.3-3.6,0.7-3.9c0.3-0.2,2.9-2.5,2.9-2.5
					l-0.6-5.5l-3.1-5.4l-5.9-4.7l-7.4-2.9l-9.5-0.7l-8.2,2.1l-1.8,0.8l-3.4,2.3l-3.4,3.3l-5.9-2.8l-8.7-2l-9.6-0.9l-7.4,0.4
					l-3.4,0.2L58.6,98l-3.5-2.1l-2-1.1l1.2-3l1.4-3l0.6-0.8l-6.4-1.9l-5.3-0.4L39,87.3z"/>
				<path id="XMLID_2004_" class="st8" d="M57.2,47.8l3.9-2.6l6.6-2.9l24.7,8.8c0,0,3.5,16.7,3.1,16.9c-0.3,0.2-11.2,5.4-11.2,5.4
					l-9-1.3l-7.9-4.6l-6.4-4.2L59,61.4l-1.6-0.2l-2.9-1.4l-0.6-3.1l-1.5-3.3l-0.5-3.1l1.3-1.3l1.5-0.4l1.6,1.1L57.2,47.8z"/>
				<path id="XMLID_1947_" class="st7" d="M118,21.1l-2-4.7l-3.1-4.3l-5.8-3.9l-5.6-2.6l-6.3-0.4L90,6l-4.3,2.6l-5.2,5.3l-4.1,4.5
					l-1.7,0.1L71.7,20L71,22.6l-0.8,0.4c0.6-0.1,1.1-0.2,1.7-0.1c0.4-0.3,1-0.4,1.6-0.3c0.1,0,0.3,0.1,0.4,0.1
					c0.3-0.2,0.7-0.2,1.1-0.1c0.5-0.2,1.1-0.1,1.6,0.1c0.4,0.2,0.9,0.4,1.3,0.6c0.4,0,0.8,0,1.2,0.3c0.1,0.1,0.2,0.2,0.4,0.3
					c0.3,0,0.6,0.1,0.9,0.3c0.2,0.2,0.4,0.3,0.6,0.5c0.2,0,0.4,0.1,0.5,0.2c0.8,0.6,1.6,1.2,2.2,2c0.1,0.1,0.1,0.2,0.2,0.3
					c0.1-0.1,0.1-0.1,0.2-0.2c0.9-0.7,2-1.1,3-1.4c0.5-0.1,1,0,1.4,0.2c1.4-0.1,2.6,0.2,3.9,0.7c0.1,0,0.3,0,0.4,0.1
					c0.4,0.1,0.7,0.3,1.1,0.5c0.1,0,0.2,0,0.3,0.1c1.9,0.7,3.7,1.7,4.8,3.5c0.1,0.2,0.2,0.3,0.2,0.5c0.6,0.8,0.9,1.7,1.2,2.7
					c0.2,0.3,0.3,0.6,0.3,0.9c0.1,0.9,0.2,1.9,0.2,2.8c0,0.2,0,0.3-0.1,0.5c0,0,0,0.1,0,0.1c-0.2,1-0.4,1.9-0.6,2.9
					c-0.1,0.4-0.4,0.8-0.7,1c-0.2,0.5-0.5,0.9-0.8,1.4c-0.1,0.1-0.1,0.1-0.2,0.2c-0.4,0.6-1.2,1.2-2,2c-0.1,0.1-0.2,0.2-0.3,0.3
					c-0.6,0.8-1.4,1.2-2.3,1.5c-3.1,1.1-7.2,1.4-10.6-0.7c-2.2-1.4-3.8-3.4-4.7-5.6c0-0.1-0.2-0.9-0.2-1c-0.4-1-0.3-1.6-0.4-2.8
					c0-0.5-0.2-1.2,0-1.6c0,0,0-0.2,0.1-0.4L78,36v2.6l-4.3-0.9l-3.4-1.2L66,35.6l-2.1,1.1l-1.4,2.2l0.1,2.2l1.9,2.4l3.4,1.3
					l5.6,1.2l6.4,2.1l6.6,3.9l3.2,3.9l1.2,5.4l-1,5.1l-3,4.2l-4.1,2.1l-5.7-0.1l-2.9-1.2l-0.4,8.5l3.9,6.5l9.7-8.7l3.7-0.8l7.4-2.2
					l5.5-3.1l-0.6-1.8l-0.1-3.1l-0.4-7.1l0.8-2.4l2.4-1.2l1.1-2.4v-3l-1.4-1.7l3.2-5.6l4.1-5.7l4.1-5.8l1.1-5.3L118,21.1z"/>
				<g id="XMLID_1995_">
					<polygon id="XMLID_1998_" class="st9" points="67.1,145.9 67.2,142.4 66.8,139.6 65.9,137.3 63.9,132.4 66.2,131.4 69.5,136.4 
						73.5,140.7 78,145 83,149.3 86.1,151.3 86.7,152.2 82.7,151.5 76.2,149.7 70.9,147.8 					"/>
					<polygon id="XMLID_1997_" class="st0" points="100.8,153.4 105.7,150.8 110.2,149.1 115.2,147.2 118.6,145.9 117.3,150.5 
						110,152.8 					"/>
					<polygon id="XMLID_1996_" class="st0" points="37.4,91.8 35.7,90.2 34.7,88.3 37.3,82.6 43,76.4 49.2,72.1 54.8,70.1 
						59.1,69.9 64,70.7 68.1,72.6 69.1,70.7 72.4,70.4 74.2,71.3 73.8,79.8 77.6,86.3 87.3,77.6 94.9,75.7 100.3,73.8 104,71.5 
						103.3,68.4 106.8,69.9 112.6,77.5 111.6,78.7 115.1,80.1 120.5,79.1 127.7,79.1 133.3,80.2 138.5,82.3 143.8,88.2 146.6,95.2 
						147.3,102.4 145.9,108.8 143,115.1 140.4,119 139,119.1 137.5,118.3 139.6,116.4 139.2,112.1 136.7,106.5 131.3,101.8 
						124.7,98.4 117.4,97.4 113.1,97.2 108.4,98.1 103.2,100 100.6,101.6 96.4,105.7 89.7,102.6 81.7,100.9 72.9,100.3 64.7,100.5 
						61.3,100.7 58.6,98 55.1,95.9 53.1,94.8 54.3,91.8 56.3,88 49.9,86.2 44.6,85.7 40.1,86.5 38.2,87.7 37.9,89.1 					"/>
				</g>
				<polygon id="XMLID_1994_" class="st10" points="63.2,81.9 69.1,70.7 71.5,76.1 				"/>
				<path id="XMLID_1993_" class="st11" d="M45.5,211.5c0,0,0-6.1-0.6-8.5h-1.5c-1.5-10.5,6.1-14.4,4.8-19.5l7.3,3.5l-1.5,4.6
					l-2.1,4.8l-0.7,2.5l0,4.8l-0.1,6L45.5,211.5z"/>
				<path id="XMLID_1992_" class="st11" d="M50,187.2c-11.7-5.5-15.2-11-21.7-19c0,0,9.8,10.8,24.2,17.2"/>
				<path id="XMLID_1991_" class="st12" d="M43.8,211.6l-0.1,2.9c0,0-0.3,10.6-10.4,17.5c0,0,7.5-1.9,12.1-10.8l1.3,0.1l3-2.1
					l0.9-1.4l-0.8-7.7C49.8,210.1,46.1,211.1,43.8,211.6z"/>
				<path id="XMLID_1990_" class="st12" d="M27.3,146.5c0.1,0.1,0.3-0.1,0.2-0.3c-0.1-0.1-0.3-0.1-0.5,0c-1.4,0.4-2.6,1.8-2.8,3.3
					c0,0.2-0.6,0.6-0.9,0.5c-0.7-0.2-0.7,0.2-1,0.1c-3.6-0.1-6.3,1.5-9.3,3.4c6.9-3.6,13.9,0.4,17.9,1.1c0.3,0,1.3-1.4,1.6-1.5
					c1.7-0.9,3.4-1.8,5-2.8c-1.5-1.3-2.8-1.9-4.4-3.1c-0.7-0.5-2.1-1.4-2.9-1.6c-1.3-0.4-1.9-0.1-2.6,0.4"/>
				<path id="XMLID_1989_" class="st13" d="M33.7,132.1c-0.7-2.1-0.6-6,0.2-7.9c-1.3,0.1-2.1,2.1-2.4,3.2c-5.3-14.4,6.6-32.6,6.3-33
					c-0.1-0.1-0.1-0.3-0.2-0.4c-0.1-0.1-0.1-0.2-0.2-0.4c-0.3,0.4-1.2,1.5-2,2.4c-4.3,4.5-7,11.8-8.2,17.9c-0.6,3.2-0.9,6.6-0.3,9.8
					c0.5,2.5,2.4,5.9,3.6,8.2c0.9,1.6,1,2.1,2,3.7c1.1,1.6,2.8,3.5,4.6,2.8C35.3,137.4,34.4,134.2,33.7,132.1z"/>
				<path id="XMLID_1988_" class="st9" d="M139.6,114.2c0.1-2.3,0.7-5,0.8-7.3c0-0.9,0.3-2,1.2-2.2c0.4-0.1,0.8,0.1,1.1,0
					c0.4-0.1,0.7-0.4,0.9-0.7c2.3-3.4,1.6-8,0.1-11.9c-0.9-2.2-2.1-4.4-1.8-6.7c3.6,4.5,5.1,10,5.1,15.8c0,5.7-2.1,10.4-5.1,15.9
					c-0.6,1.1-1,1.3-1.5,1.9c-1.3,0.1-2.3,0.1-3.2-0.5c0.2-0.4,2.2-1.8,2.4-2.1"/>
				<path id="XMLID_2001_" class="st14" d="M87.9,7.2c-3.6,2-6.4,5.1-9,8.3C78,16.7,77,18,75.6,18.5c-1,0.4-2.1,0.3-3.1,0.8
					c-1.2,0.6-1.8,2.1-1.5,3.4c0.6-0.1,1.1-0.1,1.7-0.1c-0.1-0.6-0.1-1.4,1.2-2.5c2-1.8,4.3-0.8,4.3-0.8s7.3-9,10.6-10.7
					c3.8-2,6.6-2.9,10.9-2.8C95.9,4.3,91.5,5.2,87.9,7.2z"/>
				<path id="XMLID_1986_" class="st14" d="M62.3,40.9c0-1.3,0.4-2.7,1.5-3.3c1-0.5,2.6-0.8,3.6-0.5c4.3,1.5,7.5,2.3,10.7,3.1
					c0.5,0.1-0.5,0.2,0,0c0.3-0.6,0-1.3-0.5-1.7c-0.5-0.4-0.6-0.1-1.2-0.3c-2.5-0.7-4.1-1-6.5-1.7c-1-0.3-3.5-1.4-4.5-1.1
					c-0.8,0.3-1.4,0.9-1.7,1.7c-0.2,0-0.4,0-0.6,0"/>
				<path id="XMLID_1984_" class="st14" d="M102.5,49.1c-0.4-0.1-0.7,0.3-0.7,0.6c0,0.4,0.3,0.7,0.7,0.8c0.4,0.1,0.7,0.1,1.1,0
					c0.4-0.1,0.7-0.2,1.1-0.2c0.4,0,0.8,0.1,1.2,0.4c0.2,0.1,0.3,0.3,0.5,0.3c0.3,0,0.5-0.3,0.5-0.6s-0.2-0.6-0.4-0.8
					c-0.6-0.6-1.3-0.9-2.1-0.9c-0.3,0-0.5,0-0.8,0.1"/>
				<path id="XMLID_1983_" class="st13" d="M102.1,53c-0.2,0.1-0.2,0.4,0,0.6c0.2,0.1,0.4,0.1,0.7,0.1c0.2,0,0.5,0,0.7,0.1
					c0.1,0.1,0.2,0.2,0.4,0.3c0.1,0.1,0.4,0.1,0.5,0c0.1-0.1,0-0.2,0-0.3c-0.1-0.4-0.1-0.9-0.4-1.2c-0.3-0.3-0.8-0.5-1.1-0.2"/>
				<path id="XMLID_1982_" class="st13" d="M103.6,57.1c-0.8-0.1-1.5-0.3-2.2-0.7c-0.1-0.1-0.2-0.1-0.3-0.1c-0.1,0-0.2,0.1-0.3,0.3
					c-0.3,0.7-0.2,1.5,0.2,2.2c0.4,0.8,0.9,1.5,1.5,2.1c0.1,0.1,0.1,0.1,0.2,0.1c0.2,0,0.3-0.2,0.3-0.4c0.1-1,0.3-1.9,0.4-2.9"/>
				<path id="XMLID_1981_" class="st13" d="M122.6,110.5c-0.9,2.6-2.1,5.1-3.3,7.5c-1.5,3.1-4.8,6.3-7.1,7.9
					C120.2,125.9,124.6,114.2,122.6,110.5z"/>
				<path id="XMLID_1980_" class="st13" d="M118.3,97.4c5,0.2,9.7,3,12.9,6.9s5,8.8,6,13.7c1.2-0.3,2-1.4,2.2-2.6
					c0.2-1.2-0.1-2.4-0.4-3.5c-2.4-7.4-9.3-13.2-17-14.3"/>
				<path id="XMLID_1979_" class="st13" d="M37.7,90.6c1.2-1.5,3-2.5,4.9-2.9c1.9-0.5,3.9-0.5,5.8-0.6c1.6,0,3.1,0,4.7,0.2
					c-3.6-1.5-7.7-2-11.6-1.2c-0.9,0.2-1.8,0.4-2.5,0.9s-1.3,1.4-1.1,2.3"/>
				<g id="XMLID_1977_">
					<path id="XMLID_1978_" class="st13" d="M63,119.8c-2.7,1.3-5.7,2.8-8.6,3.7c-1,0.3-2,0.6-3.1,0.5l-2,0
						C53.3,127,60.2,124.4,63,119.8z"/>
				</g>
				<path id="XMLID_1976_" class="st13" d="M91.1,119.3c0.4-0.2,0.8,0.5,0.6,0.9c0,0-11.8,2.2-23.6,14.4c-0.9-1-1-2.2-1.9-3.2
					c1.6-1,2.4-1.7,4-2.7c1.6-1,3.1-1.9,4.7-2.8c5-2.8,10.4-5,16-6.5"/>
				<path id="XMLID_1975_" class="st13" d="M70.9,130.1c2.9,7.9,8.7,14.4,14.7,20.3c-7.7-4.1-14.2-10.4-18.7-18"/>
				<path id="XMLID_1974_" class="st11" d="M32.6,153.1c3.2,0.5,6.8,1,9.4,2.1c1.8-0.9,3.5-1.9,5.3-2.8c0.6-0.3,1.3-0.7,1.6-1.4
					c-2.2-0.7-4.5-1.3-6.8-1.7c-0.9-0.2-1.8-0.3-2.7-0.1c-0.6,0.1-1.1,0.4-1.6,0.7c-1,0.5-2,1-3,1.6"/>
				<path id="XMLID_1973_" class="st11" d="M43.6,154.3c4.1,1.3,7.9,3.2,12,4.6c4.1,1.3,8.5,2,12.6,0.9c0.3-0.1,0.7-0.3,0.7-0.6
					c0-0.2-0.1-0.3-0.3-0.5c-0.7-0.7-1.7-1.1-2.6-1.5c-5.1-2.2-10.3-4.3-15.5-6.1c-0.5-0.2-1.1-0.4-1.7-0.3
					c-2.1,0.1-3.2,2.9-5.2,3.1"/>
				<path id="XMLID_1972_" class="st11" d="M42.5,149.3c10.7,2.2,21,5.9,30.6,11c0.3-3.9-0.5-7.8-2.2-11.3c-0.5-1-1.1-2.1-2.2-2.5
					c-0.8-0.4-1.8-0.4-2.7-0.3c-7.8,0.3-15.5,1.2-23.2,2.6"/>
				<path id="XMLID_1971_" class="st11" d="M69.8,147.1c4.4,1.7,8.8,3.1,13.4,4.2c2.5,0.6,5.3,1.3,6.8,3.3c-2.8,1.6-5.5,3.9-8.7,4
					c-3.5,0-5.4,1.5-7.8,2.2c-1.2,0.3-2.3-0.2-3.1-1.1c-0.8-1,0-2.4,0.4-3.6c1-2.9-0.4-6-1.8-8.7"/>
				<path id="XMLID_1970_" class="st11" d="M74.6,159.7c4.6-0.7,9.4-0.4,13.9,0.9c2.5,0.7,4.9,1.7,7.7,1.2c0.7-0.1,1.3-0.5,1.9-0.9
					c2-1.6,6.5-4.7,5.6-7c0-0.1-0.1-0.1-0.2-0.1c-0.6,0.3-1.6-0.6-2.6-0.4c-1.2,0.3-2.6,1.7-4,1.8c-2.6,0.2-4.8,1-6.3-0.7
					c-0.3-0.4-0.8-0.6-1.3-0.6c-0.3,0-0.6,0.1-0.8,0.3c-1.6,0.9-3.1,1.8-4.6,2.8"/>
				<path id="XMLID_1969_" class="st11" d="M72.3,161.3c-0.6,0.8-1.3,1.5-2.1,2.1c-0.2,0.2-0.5,0.4-0.7,0.4c-0.5,0.1-1-0.4-1.1-0.9
					c-0.1-0.5,0.1-1,0.3-1.5c0.3-0.7,0.7-1.3,1.1-1.9c-0.6,0.1-1.2-0.1-1.5-0.6c0.4-0.3,1,0,1.5,0.2c0.9,0.6,1.9,1.1,2.8,1.7"/>
				<path id="XMLID_1968_" class="st9" d="M103.9,68.9c0.8,0.2,1.5,0.5,2.3,0.7c0.2,0.1,0.4,0.2,0.4,0.3c0,0.1-0.1,0.1-0.1,0.2
					c-1.1,1.1-2.4,1.9-3.8,2.4c0.4-0.2,0.7-0.5,0.9-0.9c0.3-0.6,0.3-1.3,0.1-2c0-0.2-0.1-0.3-0.2-0.5"/>
				<path id="XMLID_1967_" class="st14" d="M112.3,100.6c-6.2-1.6-19.9,9.1-16.5,16.4c0.7,1.5,2,2.6,3.5,3.4
					c1.2,0.7,2.6,1.1,3.9,0.7c1.2-0.4,2-1.5,2.6-2.5c1.3-2.3,2.2-4.8,2.5-7.4c0.1-0.9,0.1-1.8-0.3-2.6c-0.2-0.4-0.6-0.7-0.7-1.2
					c-0.3-0.8,0.2-1.6,0.7-2.2c1.1-1.4,2.7-2.5,4.4-3.2c0.3-0.1,0.7-0.3,0.8-0.6C113.1,100.9,112.7,100.7,112.3,100.6z"/>
				<path id="XMLID_1966_" class="st14" d="M104.2,147.1c-2.9-0.3-5.6,2.1-8.4,1.5c-1.1-0.2-2-0.9-3.1-1.3c-5.8-2.1-3.7,7.8,2.6,6
					c0.9-0.3,1.7-0.8,2.5-1.3c1.8-1.1,3.6-2.3,5.4-3.4C103.8,148.3,104.5,147.7,104.2,147.1z"/>
				<path id="XMLID_1965_" class="st14" d="M56.6,117.2c-11.3-6.2-19,2.4-7.7,2.9c2,0.1,4.1-0.4,6.1-0.9c0.5-0.1,1-0.3,1.4-0.6
					C56.7,118.2,56.9,117.6,56.6,117.2z"/>
				<path id="XMLID_1964_" class="st14" d="M112.7,29.9c0.1,0.3,0.2,0.5,0.4,0.7c0.6,0.5,1.5-0.3,1.8-1
					C119.3,20.3,106.9,8.7,112.7,29.9z"/>
				<path id="XMLID_1963_" class="st14" d="M57.5,114.7c0.9,1.3,2.5,2.1,4.1,1.9C61.1,115,59.1,114.1,57.5,114.7"/>
				<path id="XMLID_1962_" class="st14" d="M116.5,104.3c-0.7,0.3-1.4,0.7-2,1.2c-0.2,0.1-0.4,0.3-0.4,0.6c0,0.3,0.3,0.6,0.6,0.7
					c1.4,0.6,3.2,0,3.9-1.3c-0.5-0.5-1-0.8-1.6-1.1"/>
				<path id="XMLID_1961_" class="st14" d="M110.9,30.6c0,0.4-0.2,0.9-0.1,1.3c0.1,0.4,0.7,0.7,1,0.4c0.1-0.1,0.1-0.4,0.1-0.6
					c0-0.3,0-0.6-0.1-0.9c-0.1-0.3-0.4-0.5-0.7-0.6"/>
				<path id="XMLID_1960_" class="st7" d="M74.1,189.2c-0.7-2.4-1.9-4.6-3.4-6.5c-1-1.3-2.2-2.5-2.7-4c-0.9-2.6,0.5-5.6,2.4-7.6
					c1.8,2.6,2.8,5.7,3.2,8.8c0.5,3.1,0.5,6.3,0.5,9.5"/>
				<path id="XMLID_1959_" class="st7" d="M75.5,184.4c-0.1-1.7-0.3-3.5-0.7-5.2c-0.5-1.8-1.1-3.6-1.4-5.5c1.4,1.2,2,3.1,2.2,5
					c0.2,1.8,0,3.7,0.1,5.6"/>
				<path id="XMLID_1958_" class="st15" d="M67.6,177.2c0.1,0.9,0.5,1.8,1,2.6c1,1.6,2.2,3,3.2,4.6c1,1.6,1.9,3.3,2,5.2
					c-0.6,0.2-1.1-0.3-1.3-0.9c-0.2-0.6-0.2-1.2-0.5-1.7c-0.4,0.2-0.8,0.4-1.1,0.6c-0.1,0-0.2,0.1-0.2,0c-0.1,0-0.1-0.1-0.1-0.2
					c-0.1-0.6-0.2-1.3-0.3-1.9c-0.4,0.6-0.8,1.3-1.2,1.9c0.6-2.6-0.5-5.3-1.5-7.8"/>
				<path id="XMLID_1957_" class="st4" d="M103.9,72c-0.2,0-0.4-0.1-0.4-0.3c-1.8-7.1-0.5-14.5-0.5-14.6c0-0.2,0.3-0.4,0.5-0.4
					c0.2,0,0.4,0.3,0.4,0.5c0,0.1-1.2,7.4,0.5,14.3c0.1,0.2-0.1,0.5-0.3,0.5C104,72,104,72,103.9,72z"/>
				<path id="XMLID_1956_" class="st4" d="M103.4,57.4c-0.8,0-1.6-0.2-2.5-0.7c-0.2-0.1-0.3-0.4-0.2-0.6c0.1-0.2,0.4-0.3,0.6-0.2
					c1.7,0.9,3.2,0.8,4.3-0.3c1.3-1.3,1.7-3.8,0.8-5.3c-0.7-1.1-1.9-1.5-3.6-1.1c-0.2,0.1-0.5-0.1-0.5-0.3c-0.1-0.2,0.1-0.5,0.3-0.5
					c2.8-0.7,4,0.6,4.5,1.5c1.1,1.8,0.6,4.7-1,6.3C105.5,57,104.5,57.4,103.4,57.4z"/>
				<path id="XMLID_1955_" class="st4" d="M105.8,49.3c-0.1,0-0.1,0-0.2-0.1c-0.2-0.1-0.3-0.4-0.2-0.6c0-0.1,4.3-7.9,8.8-13.4
					c2.2-2.7,4.4-7.8,3.4-13.5c-0.9-4.9-4-9.1-9-12.1c-14-8.4-22-1.5-24.1,0.8c-3.4,3.7-7.9,8.5-7.9,8.5C76.4,19,76.3,19,76.1,19
					c0,0-2.4-0.1-3.7,1.2c-0.6,0.6-1,1.5-1,2.5c0,0.2-0.2,0.4-0.4,0.4s-0.4-0.2-0.4-0.4c0-1.3,0.4-2.4,1.2-3.2
					c1.4-1.3,3.4-1.4,4.1-1.4c0,0,0,0,0,0c0.8-0.8,4.8-5.1,7.8-8.4C86,7.3,94.5,0,109,8.8c5.3,3.2,8.5,7.6,9.4,12.7
					c1,6-1.3,11.4-3.6,14.2c-4.5,5.5-8.7,13.2-8.7,13.3C106.1,49.2,105.9,49.3,105.8,49.3z"/>
				<path id="XMLID_1954_" class="st4" d="M90.2,56.6c-2.4-6.7-13.5-10.4-19.6-11.4c-4.7-0.8-6.1-1.9-6.1-2c-2.1-1.6-2-3.7-1.2-5.1
					c0.8-1.4,2.5-2.5,4.6-1.8c5.8,2.1,9.6,2.6,9.7,2.6c0.3,0,0.5-0.1,0.5-0.4c0-0.2-0.1-0.5-0.4-0.5c0,0-3.8-0.5-9.5-2.6
					c-2.5-0.9-4.7,0.5-5.7,2.2c-0.9,1.6-1.1,4.2,1.4,6.2c0.1,0.1,1.5,1.3,6.5,2.2c5.9,1,16.6,4.5,18.9,10.9
					c1.3,3.5,1.1,7.2-0.6,10.3c-1.4,2.6-3.6,4.3-6.3,5c-4.2,1.1-8.3-1.2-11.3-2.9c-0.3-0.2-0.6-0.4-0.9-0.5
					c-0.1,0.2-0.2,0.3-0.4,0.5c-0.1,0.1-0.2,0.1-0.3,0.2c0.4,0.2,0.7,0.4,1.1,0.6c2.4,1.4,5.8,3.3,9.5,3.3c0.8,0,1.6-0.1,2.4-0.3
					c3-0.7,5.4-2.7,6.9-5.5C91.4,64.3,91.6,60.3,90.2,56.6z"/>
				<path id="XMLID_1953_" class="st4" d="M77.6,86.9C77.6,86.9,77.6,86.9,77.6,86.9c-0.2,0-0.3-0.1-0.4-0.2l-4-6.5
					c0-0.1-0.1-0.2-0.1-0.3l0.4-8.5c0-0.2,0.2-0.4,0.5-0.4c0.2,0,0.4,0.2,0.4,0.5l-0.4,8.4l3.6,5.9l9.3-8.6c0.1-0.1,0.1-0.1,0.2-0.1
					c14.8-2.8,17-6.5,17-6.5c0.1-0.2,0.4-0.3,0.6-0.2c0.2,0.1,0.3,0.4,0.2,0.6c-0.1,0.2-2.2,4-17.5,6.9l-9.6,8.9
					C77.9,86.8,77.7,86.9,77.6,86.9z"/>
				<path id="XMLID_1952_" class="st4" d="M97.8,90.9C97.7,90.9,97.7,90.9,97.8,90.9c-0.2,0-0.3-0.1-0.3-0.2L87,77.7
					c-0.2-0.2-0.1-0.5,0.1-0.6c0.2-0.2,0.5-0.1,0.6,0.1l10.1,12.6l14.1-12.3l-5.4-7.3l-3-1.1c-0.2-0.1-0.3-0.3-0.3-0.6
					s0.3-0.3,0.6-0.3l3.2,1.2c0.1,0,0.2,0.1,0.2,0.2l5.7,7.7c0.1,0.2,0.1,0.4-0.1,0.6L98.1,90.8C98,90.9,97.9,90.9,97.8,90.9z"/>
				<path id="XMLID_1951_" class="st4" d="M112.4,46.3c0,0,0.1-0.5,0.5-1.6c0.2-0.6,0.4-1.3,0.7-2.3c0.1-0.4,0.2-0.8,0.4-1.3
					c0-0.1,0.1-0.2,0-0.3c-0.1-0.1-0.2,0.1-0.3,0.1c0,0,0,0,0,0.1c0,0,0,0-0.2,0.3c-0.3,0.4-0.8,0.9-1.3,1.4
					c-0.5,0.6-1.1,1.2-1.7,1.9c-0.4,0.4-0.8,0.9-1.2,1.3c-0.2,0.2-0.3,0.3-0.5,0.3c-0.1,0-0.2,0-0.4,0c-0.4-0.2-0.5-0.3-0.5-0.7
					c0-0.5,0.1-1.7,0.2-2.8c0.2-2,0.3-4.3,0.5-6.2c0.1-0.9,0.2-1.8,0.2-2.5c0.1-0.2-0.1-0.2-0.2-0.1c-4,4.3-5.5,5.9-5.5,5.9
					c-0.3,0.3-0.6-0.1-0.4-0.4c0,0,1.5-1.7,5.5-6.2c0.1-0.2,0.4-0.4,0.8-0.3c0.4,0.1,0.8,0.5,0.6,1.1c0,0.7-0.1,1.6-0.1,2.5
					c-0.1,1.9-0.3,4.2-0.4,6.2c0,0.5-0.1,0.9-0.1,1.4c0,0.2,0,0.4,0,0.6c0,0.1,0,0,0,0c0,0,0,0,0,0c0.3-0.3,0.5-0.6,0.8-0.8
					c0.6-0.7,1.3-1.3,1.8-1.9c0.5-0.6,1-1,1.3-1.4c0.2-0.2,0.4-0.4,0.6-0.6c0.2-0.2,0.3-0.3,0.3-0.3c0.2-0.2,0.4-0.2,0.5-0.3
					c0.1-0.1,0.4,0,0.5,0.1c0.1,0.2,0.1,0.2,0.1,0.4c0,0.1,0,0.4-0.1,0.6c-0.2,0.7-0.4,1.3-0.6,1.8c-0.3,0.9-0.5,1.7-0.7,2.3
					c-0.4,1.2-0.5,1.6-0.5,1.6C112.7,46.8,112.3,46.6,112.4,46.3z"/>
				<path id="XMLID_1950_" class="st4" d="M109.2,13.4c0,0,0.1-0.4,0.3-1.2c0.3-0.7,0.4-1.8,0.7-3c0.1-0.6,0.1-1.2,0.1-1.9
					c-0.1-0.6-0.1-1.3-0.3-1.9c-0.2-1.3-1.1-2.3-2-2.9c-0.4-0.3-1-0.5-1.6-0.7c-0.6-0.1-1.2-0.2-1.9-0.1c-1.3,0.1-2.6,0.5-3.7,1
					c-1.1,0.5-2,1.1-2.6,1.6c-0.6,0.5-0.9,0.8-0.9,0.8c-0.2,0.2-0.5-0.2-0.4-0.4c0,0,0.3-0.3,0.9-0.9c0.6-0.5,1.5-1.2,2.6-1.8
					c1.1-0.6,2.5-1.1,4-1.3c0.7-0.1,1.5,0,2.2,0.1c0.7,0.2,1.4,0.4,1.9,0.8c1.1,0.7,2.1,2.1,2.3,3.5c0.2,0.7,0.2,1.5,0.2,2.2
					c-0.1,0.7-0.1,1.4-0.2,2c-0.3,1.2-0.5,2.3-0.8,3.1c-0.3,0.7-0.4,1.2-0.4,1.2C109.5,13.8,109.1,13.7,109.2,13.4z"/>
				<path id="XMLID_1949_" class="st4" d="M114.2,16.7c0,0,0.1-0.4,0.4-1.1c0.1-0.3,0.2-0.8,0.4-1.2c0.1-0.5,0.2-1,0.3-1.6
					c0.4-2.2,0.4-5.3-1.1-6.8c-0.6-0.8-1.7-1.5-2.9-1.6c-1.2-0.2-2.5,0-3.5,0.4c-0.5,0.2-1,0.4-1.4,0.6c-0.4,0.3-0.8,0.5-1.1,0.7
					c-0.5,0.5-0.9,0.7-0.9,0.7c-0.2,0.1-0.5-0.2-0.4-0.4c0,0,0.3-0.3,0.9-0.8c0.3-0.2,0.7-0.5,1.1-0.8c0.4-0.3,1-0.5,1.5-0.8
					c1.1-0.5,2.5-0.7,3.9-0.6c1.4,0.1,2.7,0.9,3.5,1.9c0.9,0.9,1.3,2.4,1.4,3.7c0.1,1.4-0.1,2.7-0.4,3.9c-0.2,0.6-0.3,1.1-0.4,1.6
					c-0.2,0.5-0.3,0.9-0.5,1.2c-0.3,0.7-0.4,1.1-0.4,1.1C114.5,17.1,114.1,16.9,114.2,16.7z"/>
				<path id="XMLID_1942_" class="st4" d="M101.9,53.4c-0.1,0-0.2,0-0.2-0.1c-0.2-0.1-0.3-0.4-0.1-0.6c1.1-1.6,3.2-1.4,4.1-0.8
					c0.2,0.1,0.3,0.4,0.1,0.6c-0.1,0.2-0.4,0.3-0.6,0.1c-0.6-0.4-2.1-0.6-2.9,0.5C102.2,53.4,102,53.4,101.9,53.4z"/>
				<path id="XMLID_1941_" class="st4" d="M104.2,54.4C104.2,54.4,104.2,54.4,104.2,54.4c-0.3,0-0.5-0.3-0.4-0.5
					c0.1-0.8-0.4-1.2-0.4-1.2c-0.2-0.1-0.2-0.4-0.1-0.6c0.1-0.2,0.4-0.2,0.6-0.1c0,0,1,0.7,0.8,2.1
					C104.6,54.2,104.4,54.4,104.2,54.4z"/>
				<path id="XMLID_1940_" class="st4" d="M139.7,119.7c-1,0-2.2-0.8-2.4-0.9c-0.2-0.1-0.3-0.4-0.1-0.6c0.1-0.2,0.4-0.3,0.6-0.1
					c0.6,0.4,2,1.1,2.3,0.6c5.5-7.7,7.6-15.6,6.1-22.8c-1.5-6.9-5.9-11.7-9.3-13.7c-6.1-3.6-16.2-3.2-21.2-1.5c-0.1,0-0.2,0-0.3,0
					l-3.8-1.6c-0.2-0.1-0.3-0.4-0.2-0.6c0.1-0.2,0.3-0.3,0.6-0.2l3.7,1.5c5.2-1.7,15.5-2.1,21.7,1.6c3.7,2.2,8.2,7.1,9.7,14.3
					c1.1,5.2,0.9,13.5-6.2,23.5C140.6,119.6,140.2,119.7,139.7,119.7z"/>
				<path id="XMLID_1939_" class="st4" d="M91.7,121.2c-0.2,0-0.4-0.2-0.4-0.4c-1.9-10.6,7.6-20.2,13.2-21.6
					c3.5-2,16.3-5.1,27.1,2.1c10.6,7,8,16.6,8,16.6c-0.1,0.2-0.3,0.4-0.5,0.3c-0.2-0.1-0.4-0.3-0.3-0.5c0.1-0.4,2.4-9-7.6-15.7
					c-10.6-7-23-3.9-26.3-2c0,0-0.1,0-0.1,0c-5.3,1.4-14.4,10.5-12.6,20.7C92.2,121,92.1,121.2,91.7,121.2
					C91.8,121.2,91.8,121.2,91.7,121.2z"/>
				<path id="XMLID_1938_" class="st4" d="M112.4,125.4c0,0,0.3-0.2,0.7-0.6c0.2-0.2,0.5-0.4,0.8-0.7c0.3-0.3,0.6-0.5,1-0.9
					c1.4-1.3,2.8-3.1,3.8-4.6c1-1.5,2.1-3.5,2.7-5.3c0.7-1.7,1.1-3.1,1.1-3.1c0.1-0.2,0-0.2,0,0c0,0-0.2,1.4-0.7,3.3
					c-0.2,0.9-0.5,1.9-0.9,2.9c-0.4,1-0.9,1.9-1.4,2.7c-0.5,0.8-1.2,1.6-2,2.4c-0.7,0.8-1.6,1.4-2.4,2
					C113.7,124.8,112.4,125.4,112.4,125.4C112.3,125.5,112.3,125.5,112.4,125.4z"/>
				<path id="XMLID_1937_" class="st4" d="M93.9,156.2c-3.1,0-5.5-1.9-8.7-5.1c-6-3.2-16.2-13.3-19.5-19.4c-0.1-0.2,0-0.5,0.2-0.6
					c0.2-0.1,0.5,0,0.6,0.2c3.3,6,13.3,16,19.2,19.1c0,0,0.1,0,0.1,0.1c5.3,5.3,8,6.8,15.9,2c3.6-2.2,7.6-3.6,11.1-4.8
					c2.7-0.9,5.2-1.8,7.3-3c12.2-6.7,16.2-25.5,16.2-25.7c0-0.1,0.1-0.2,0.1-0.2l2.6-2.5c0.2-0.2,0.5-0.2,0.6,0
					c0.2,0.2,0.2,0.5,0,0.6l-2.5,2.4c-0.4,1.8-4.6,19.6-16.6,26.2c-2.1,1.2-4.7,2.1-7.4,3c-3.5,1.2-7.4,2.6-11,4.8
					C98.6,155.3,96.1,156.2,93.9,156.2z"/>
				<path id="XMLID_1936_" class="st4" d="M108,89.6c0,0-0.1,0.2-0.4,0.4c-0.3,0.3-0.6,0.7-0.9,1.1c-0.7,1-1.3,2.2-1.6,3.3
					c-0.4,1-0.8,2.4-1,3.5c-0.2,1.1-0.3,1.9-0.3,1.9c0,0.1-0.8,0.1-0.8,0c0,0,0-0.9,0.2-2.1c0.2-1.2,0.7-2.6,1.2-3.6
					c0.5-1,1.4-2.2,2.2-3.1c0.4-0.4,0.7-0.8,1-1C107.8,89.7,108,89.6,108,89.6C108.1,89.5,108.1,89.5,108,89.6z"/>
				<path id="XMLID_1935_" class="st4" d="M36.9,89.8c-0.1,0-0.1,0-0.2,0c-0.2-0.1-0.3-0.4-0.2-0.6c1.7-3.6,8.5-5.6,19.5-1.5
					c0.2,0.1,0.3,0.3,0.3,0.6c-0.1,0.2-0.3,0.3-0.6,0.3c-10-3.7-16.8-2.2-18.4,1.1C37.2,89.7,37.1,89.8,36.9,89.8z"/>
				<path id="XMLID_1934_" class="st4" d="M36.4,139c-2.4,0-3.8-2.5-5-4.9c-0.6-1.1-1.2-2.2-1.8-3c-4.7-6-4.8-25.8,7.5-37.3
					c-0.2-0.8-0.4-3.4,1.3-6.4c0.1-0.2,0.4-0.3,0.6-0.2c0.2,0.1,0.3,0.4,0.2,0.6c-1.9,3.3-1.1,6-1.1,6c0,0.2,0,0.3-0.1,0.4
					c-12.1,11.1-12.2,30.5-7.6,36.3c0.7,0.9,1.3,2.1,1.9,3.2c1.3,2.4,2.4,4.6,4.5,4.5c2.2-0.2,3.9-0.1,5.4-0.1c2.7,0,4.8,0,7.5-0.9
					c0.9-0.3,1.8-0.6,2.7-0.9c5.8-1.9,12.5-4,19.7-9.1c8.3-5.9,19.3-8.3,19.4-8.3c0.2-0.1,0.5,0.1,0.5,0.3c0.1,0.2-0.1,0.5-0.3,0.5
					c-0.1,0-10.9,2.4-19.1,8.2c-7.3,5.1-14,7.3-19.9,9.2c-0.9,0.3-1.8,0.6-2.7,0.9c-2.9,1-5.1,0.9-7.8,0.9c-1.5,0-3.3,0-5.4,0.1
					C36.6,139,36.5,139,36.4,139z"/>
				<path id="XMLID_1933_" class="st4" d="M96.3,106.1c-0.1,0-0.2,0-0.2-0.1c-0.1,0-5.6-3.3-13.8-4.5c-9-1.3-21-2-34.4,3.5
					c-0.2,0.1-0.5,0-0.6-0.2c-0.1-0.2,0-0.5,0.2-0.6c13.6-5.6,25.8-4.8,34.9-3.6c8.4,1.2,13.9,4.5,14.1,4.6c0.2,0.1,0.3,0.4,0.2,0.6
					C96.6,106,96.4,106.1,96.3,106.1z"/>
				<path id="XMLID_1932_" class="st4" d="M62.9,119.8c0,0-0.9,0.7-2.2,1.4c-1.3,0.8-3,1.6-4.4,2.1c-1.4,0.5-3.3,0.8-4.8,0.9
					c-0.8,0-1.4,0-1.9-0.1c-0.5,0-0.7-0.1-0.7-0.1c-0.2,0-0.1,0,0,0c0,0,0.3,0,0.8,0c0.5,0,1.1-0.1,1.8-0.3c1.4-0.3,3.2-0.9,4.5-1.4
					c1.4-0.4,3.1-1,4.5-1.5C61.8,120.3,62.9,119.8,62.9,119.8C63,119.8,63,119.7,62.9,119.8z"/>
				<path id="XMLID_1931_" class="st4" d="M37.4,92c-0.1,0-0.1,0-0.2,0c-0.1,0-1.6-0.8-2.4-2.6c-1-2.3,2.3-8.2,7.1-12.7
					C45.8,73.1,56.1,65.5,68,72c0.2,0.1,0.3,0.4,0.2,0.6c-0.1,0.2-0.4,0.3-0.6,0.2c-11.5-6.3-21.3,1.1-25.1,4.6
					c-5.3,4.9-7.6,10.2-6.9,11.7c0.7,1.4,2,2.1,2,2.1c0.2,0.1,0.3,0.4,0.2,0.6C37.7,91.9,37.5,92,37.4,92z"/>
				<path id="XMLID_1930_" class="st4" d="M62.8,83c-0.1,0-0.2,0-0.3-0.1c-0.2-0.1-0.2-0.4-0.1-0.5l6.3-11.8
					c0.1-0.1,0.2-0.2,0.3-0.2l2.9-0.3c0.3,0,0.5,0.2,0.5,0.4c0,0.2-0.2,0.5-0.4,0.5l-2.7,0.3l-5.3,9.8l7.2-5.4
					c0.1-0.1,0.2-0.1,0.4-0.1c0.1,0,0.2,0.1,0.3,0.2l2.1,3.9c0.1,0.2,0,0.5-0.2,0.6c-0.2,0.1-0.5,0-0.6-0.2l-1.9-3.5L63.1,83
					C63,83,62.9,83,62.8,83z"/>
				<path id="XMLID_1929_" class="st4" d="M59.4,83.7c0,0-0.7,0.7-1.4,1.8c-0.7,1-1.5,2.4-2,3.6c-1.1,2.2-2.5,5.8-2.5,5.8
					c-0.1,0.1-0.8-0.1-0.7-0.3c0,0,0.2-1,0.7-2.2c0.5-1.2,1.2-2.7,1.9-3.7c0.7-1.1,1.7-2.3,2.5-3.3C58.7,84.4,59.4,83.7,59.4,83.7
					C59.5,83.6,59.5,83.6,59.4,83.7z"/>
				<path id="XMLID_1928_" class="st4" d="M41.1,107c-0.8,0-1.5-0.2-2-0.5c-0.4-0.3-0.9-1-0.7-2.2c0.5-3.3,4-4.3,7.3-4.9
					c0.2,0,0.5,0.1,0.5,0.4s-0.1,0.5-0.4,0.5c-3,0.5-6.1,1.4-6.5,4.2c-0.1,0.6,0,1.1,0.4,1.3c0.8,0.6,3.3,0.6,7.8-1.5
					c0.2-0.1,0.5,0,0.6,0.2c0.1,0.2,0,0.5-0.2,0.6C46.1,105.9,43.2,107,41.1,107z"/>
				<path id="XMLID_1927_" class="st4" d="M40.3,102.2c-0.2,0-0.4-0.1-0.4-0.3c-0.3-1.1-0.2-2,0.3-2.8c0.8-1.3,2.7-2.1,6.1-2.8
					c0.2,0,0.5,0.1,0.5,0.3c0,0.2-0.1,0.5-0.3,0.5c-3.1,0.6-4.9,1.4-5.5,2.4c-0.3,0.6-0.4,1.2-0.2,2.1c0.1,0.2-0.1,0.5-0.3,0.5
					C40.4,102.2,40.3,102.2,40.3,102.2z"/>
				<path id="XMLID_1926_" class="st4" d="M61.3,101.3c-0.1,0-0.3-0.1-0.3-0.2c0-0.1-4.9-5.9-10.7-5.9H50c-2.7,0-5.9,0-7.5,2.9
					c-0.1,0.2-0.4,0.3-0.6,0.2c-0.2-0.1-0.3-0.4-0.2-0.6c1.8-3.4,5.5-3.4,8.2-3.4l0.3,0c6.2,0,11.1,5.9,11.4,6.2
					c0.2,0.2,0.1,0.5-0.1,0.6C61.5,101.2,61.4,101.3,61.3,101.3z"/>
				<path id="XMLID_1925_" class="st4" d="M71.6,76.5c-0.2,0-0.3-0.1-0.4-0.3L68.7,71c-0.1-0.2,0-0.5,0.2-0.6c0.2-0.1,0.5,0,0.6,0.2
					l2.5,5.2c0.1,0.2,0,0.5-0.2,0.6C71.7,76.5,71.6,76.5,71.6,76.5z"/>
				<path id="XMLID_1924_" class="st4" d="M101.1,154c-0.2,0-0.4-0.2-0.4-0.4c0-0.2,0.2-0.4,0.4-0.5c5.8-0.1,11-1.2,15.7-3l1-4
					c0.1-0.2,0.3-0.4,0.5-0.3c0.2,0.1,0.4,0.3,0.3,0.5l-1.1,4.2c0,0.1-0.1,0.2-0.3,0.3C112.5,152.8,107,153.8,101.1,154
					C101.1,154,101.1,154,101.1,154z"/>
				<path id="XMLID_1923_" class="st4" d="M86.9,152.7C86.8,152.7,86.8,152.7,86.9,152.7c-11.3-2.1-19.8-6.1-19.8-6.2
					c-0.2-0.1-0.3-0.3-0.2-0.4c0-0.1,0.4-5.4-1-8.1c-1.4-2.8-2.2-5.4-2.2-5.5c-0.1-0.2,0.1-0.5,0.3-0.5c0.2-0.1,0.5,0.1,0.5,0.3
					c0,0,0.8,2.6,2.2,5.3c1.3,2.5,1.2,7,1.1,8.3c1.5,0.7,9.3,4.1,19.3,6c0.2,0,0.4,0.3,0.4,0.5C87.2,152.6,87.1,152.7,86.9,152.7z"
					/>
				<path id="XMLID_1922_" class="st4" d="M78,192.2c-2.1,0-4.1-0.2-6.2-0.4c-0.9-0.1-1.8-0.2-2.7-0.3c-6.5-0.6-29.1-8.6-41.3-23.2
					c-0.4-0.5-1.3-2.5-1.2-4.3c0.2-3.6,1.9-10.2,10.6-14.3c0.7-0.3,2.7-0.7,4-0.5c5.7,0.9,20.2,3.8,31.6,11.3
					c0.2,0.1,0.3,0.4,0.1,0.6c-0.1,0.2-0.4,0.3-0.6,0.1C61,153.8,46.7,150.9,41,150c-1.1-0.2-3,0.2-3.5,0.5
					c-8.2,3.9-9.8,10.2-10,13.6c-0.1,1.5,0.7,3.3,1,3.6C40,181.4,62.2,190,69.2,190.6c0.9,0.1,1.9,0.2,2.8,0.3
					c5.5,0.6,10.7,1.2,19.1-2.6c2.5-1.1,5.2-2.1,7.7-3c7.2-2.6,13.9-5,16.6-11.2c3.6-8.3,1.5-23.5,1.4-23.6c0-0.2,0.1-0.5,0.4-0.5
					c0.2,0,0.5,0.1,0.5,0.4c0.1,0.6,2.2,15.6-1.5,24.1c-2.8,6.5-9.7,9-17.1,11.6c-2.5,0.9-5.1,1.9-7.7,3
					C85.9,191.5,81.7,192.2,78,192.2z"/>
				<path id="XMLID_1921_" class="st4" d="M69.6,152.4c0,0-0.1,0.5-0.2,1.3c-0.1,0.7,0,1.6,0.1,2.3c0.1,0.7,0.3,1.5,0.5,2.2
					c0.2,0.7,0.5,1.1,0.5,1.1c0,0-0.4,0.4-0.4,0.3c0,0-0.4-0.5-0.6-1.2c-0.3-0.7-0.4-1.6-0.4-2.4C69,154.5,69.6,152.4,69.6,152.4
					C69.6,152.4,69.6,152.4,69.6,152.4z"/>
				<path id="XMLID_1920_" class="st4" d="M34.9,174.7c-0.2,0-0.4-0.1-0.4-0.4c-1.8-9.9,2.8-17.8,13.9-23.6c0.2-0.1,0.5,0,0.6,0.2
					c0.1,0.2,0,0.5-0.2,0.6c-10.7,5.5-15.2,13.1-13.4,22.6C35.4,174.5,35.2,174.7,34.9,174.7C34.9,174.7,34.9,174.7,34.9,174.7z"/>
				<path id="XMLID_1919_" class="st4" d="M9,171.1c-2.5,0-4-0.5-4.8-1.4c-0.6-0.7-0.7-1.5-0.4-2.6c4.4-15.4,16.1-17.2,16.2-17.2
					l4.1-0.5l0.2-1.2c0-0.1,0-0.1,0.1-0.2c0.1-0.2,3.2-3.9,6.1-2.8c2.7,1,6.9,4.4,7.1,4.5c0.2,0.2,0.2,0.4,0.1,0.6
					c-0.2,0.2-0.4,0.2-0.6,0.1c0,0-4.3-3.4-6.9-4.4c-2.1-0.8-4.6,1.9-5,2.4l-0.3,1.4c0,0.2-0.2,0.3-0.4,0.4l-4.4,0.6
					c-0.1,0-11.3,1.7-15.5,16.6c-0.2,0.8-0.2,1.4,0.2,1.8c0.8,1,3.3,1.3,7.3,0.9c5.5-0.6,12.2-3.1,14.8-4.9c0.2-0.1,0.5-0.1,0.6,0.1
					c0.1,0.2,0.1,0.5-0.1,0.6c-2.7,2-9.5,4.5-15.2,5.1C11,171,9.9,171.1,9,171.1z"/>
				<path id="XMLID_1918_" class="st4" d="M30.8,232.6c-0.8,0-1.6-0.1-2.5-0.2c-1.2-0.2-2.1-0.9-2.5-2c-1.9-5,6.2-17.9,8.4-20.7
					c0.1-0.2,0.4-0.2,0.6-0.1c0.2,0.2,0.2,0.4,0.1,0.6c-3.2,4-9.9,15.7-8.3,19.9c0.3,0.8,0.9,1.3,1.8,1.4c9.3,1.7,14.7-7.2,14.8-7.3
					l1.8-3.3c0.1-0.2,0.3-0.3,0.5-0.2l1.1,0.2c1.7-1,3.4-2.5,3.4-3.1c-0.1-2.3-0.6-7.4-0.6-7.5c0-0.2,0.1-0.5,0.4-0.5
					c0.3,0,0.5,0.2,0.5,0.4c0,0.2,0.6,5.2,0.6,7.6c0,1.4-3.1,3.4-4,4c-0.1,0.1-0.2,0.1-0.3,0.1l-0.9-0.2l-1.7,3
					C43.9,224.7,39.1,232.6,30.8,232.6z"/>
				<path id="XMLID_1917_" class="st4" d="M41.1,150c-0.2,0-0.4-0.1-0.4-0.3c-0.1-0.2,0.1-0.5,0.3-0.5c7-2.1,25.5-3.4,26.2-3.4
					c0.2,0,0.5,0.2,0.5,0.4c0,0.2-0.2,0.5-0.4,0.5c-0.2,0-19.1,1.4-26.1,3.4C41.1,150,41.1,150,41.1,150z"/>
				<path id="XMLID_1916_" class="st4" d="M43.1,211.9c-6.7,0-11.3-3.6-11.3-3.7c-0.1-0.1-0.1-0.2-0.2-0.2c-4.7-21.3-4-39.9-4-40.1
					c0-0.2,0.2-0.4,0.4-0.4c0,0,0,0,0,0c0.2,0,0.4,0.2,0.4,0.5c0,0.2-0.7,18.6,3.9,39.7c1,0.7,8,5.6,17.2,2.2
					c0.4-0.1,0.7-0.3,1.1-0.5l0-1.2c0.1-2,0.2-6.9,0.2-8.8c0-1.7,1.1-4.3,2.2-7.1c0.7-1.8,1.5-3.7,1.9-5.3c0.1-0.2,0.3-0.4,0.5-0.3
					c0.2,0.1,0.4,0.3,0.3,0.5c-0.5,1.7-1.2,3.6-2,5.4c-1,2.6-2.1,5.3-2.1,6.8c0,1.9-0.2,6.4-0.2,8.9l-0.1,1.4c0,0.2-0.1,0.3-0.3,0.4
					c-0.5,0.2-1,0.4-1.4,0.6C47.5,211.6,45.2,211.9,43.1,211.9z"/>
				<path id="XMLID_1915_" class="st4" d="M43.2,203.4c-7.4,0-12.9-4.6-13-4.7c-0.2-0.2-0.2-0.4-0.1-0.6c0.2-0.2,0.4-0.2,0.6-0.1
					c0.1,0.1,9.7,8,20.1,2.5c0.2-0.1,0.5,0,0.6,0.2c0.1,0.2,0,0.5-0.2,0.6C48.6,202.9,45.8,203.4,43.2,203.4z"/>
				<path id="XMLID_1914_" class="st3" d="M60.3,182.4"/>
				<path id="XMLID_1913_" class="st3" d="M90.6,182.6"/>
				<path id="XMLID_1911_" class="st4" d="M65.4,119c0,0-0.2,0.2-0.3,0.3c-0.2,0.2-0.4,0.4-0.6,0.5c-0.2,0.1-0.5,0.2-0.8,0.3
					c-0.2,0.1-0.4,0.1-0.4,0.1c0,0,0,0,0,0c0,0,0.1-0.2,0.3-0.3c0.2-0.2,0.4-0.4,0.6-0.5c0.2-0.1,0.5-0.2,0.8-0.3
					C65.2,119.1,65.4,119,65.4,119C65.5,119,65.4,119,65.4,119z"/>
				<path id="XMLID_1910_" class="st16" d="M123.3,106.5"/>
				<path id="XMLID_1909_" class="st4" d="M123.5,104.7c0,0,0.4,1.3,0.3,2.2c0,0.9-0.5,2.2-0.5,2.2c0,0,0,0,0,0c0,0,0-0.3,0-0.8
					c0-0.5,0-1,0-1.4c0-0.4,0.1-1,0.1-1.4C123.5,105.1,123.5,104.7,123.5,104.7C123.5,104.7,123.5,104.7,123.5,104.7z"/>
				<path id="XMLID_1908_" class="st4" d="M68,118c0,0-0.1,0.1-0.3,0.3c-0.2,0.2-0.4,0.4-0.6,0.5c-0.2,0.1-0.5,0.2-0.7,0.3
					c-0.2,0.1-0.4,0.1-0.4,0.1c0,0,0,0,0,0c0,0,0.1-0.1,0.3-0.3c0.2-0.2,0.4-0.4,0.6-0.5c0.2-0.1,0.5-0.2,0.7-0.3
					C67.8,118,68,118,68,118C68,118,68,118,68,118z"/>
				<path id="XMLID_1907_" class="st4" d="M69.6,164.8c0,0,0.4-0.9,1.2-1.9c0.7-1.1,1.9-2.2,3-2.9c1.1-0.7,2.6-1.2,3.9-1.4
					c1.3-0.2,2.2-0.2,2.2-0.2c0.1,0,0.1,0,0,0c0,0-1,0.2-2.1,0.7c-1.2,0.5-2.5,1.2-3.5,1.8c-1,0.6-2.3,1.5-3.2,2.3
					C70.2,164,69.6,164.8,69.6,164.8C69.5,164.9,69.5,164.9,69.6,164.8z"/>
				<path id="XMLID_1906_" class="st4" d="M110.6,18.7c0,0-0.7,0.2-1.3-0.4c-0.6-0.6-0.7-1.7-0.7-2.5c0.1-0.8,0.4-1.8,0.6-2.5
					c0.3-0.8,0.5-1.3,0.5-1.3c0-0.1,0.5,0.1,0.5,0.2c0,0-0.1,0.6-0.4,1.4c-0.2,0.8-0.6,1.7-0.7,2.4c-0.2,0.7-0.2,1.7,0.3,2.4
					c0.2,0.3,0.6,0.5,0.8,0.5C110.4,18.8,110.6,18.7,110.6,18.7C110.7,18.7,110.7,18.7,110.6,18.7z"/>
				<path id="XMLID_1905_" class="st4" d="M115.7,20.4c0,0,0,0.1-0.2,0.3c-0.2,0.1-0.5,0.2-0.9,0.1c-0.4-0.1-0.6-0.5-0.8-0.9
					c-0.1-0.4-0.2-0.8-0.2-1.2c0-0.7,0.3-1.6,0.6-2.2c0.2-0.7,0.4-1.1,0.4-1.1c0-0.1,0.5,0.1,0.5,0.2c0,0-0.1,0.5-0.3,1.2
					c-0.2,0.7-0.5,1.5-0.7,2.1c-0.2,0.6-0.1,1.5,0.5,1.9c0.3,0.2,0.6,0.1,0.8,0C115.7,20.6,115.7,20.4,115.7,20.4
					C115.8,20.4,115.8,20.4,115.7,20.4z"/>
				<path id="XMLID_1904_" class="st4" d="M113.9,50.1c0,0,0,0.1-0.2,0.3c-0.2,0.1-0.6,0.2-0.9,0c-0.4-0.2-0.6-0.6-0.7-1
					c-0.1-0.4-0.1-0.8-0.1-1.2c0-0.7,0.2-1.7,0.5-2.4c0.3-0.7,0.6-1.2,0.6-1.2c0-0.1,0.5,0.2,0.5,0.3c0,0-0.2,0.5-0.5,1.1
					c-0.2,0.7-0.5,1.5-0.6,2.2c-0.1,0.3-0.1,0.7-0.1,1.1c0,0.4,0.2,0.8,0.5,1c0.3,0.2,0.6,0.2,0.8,0.1
					C113.9,50.2,113.9,50.1,113.9,50.1C113.9,50,113.9,50,113.9,50.1z"/>
				<path id="XMLID_1903_" class="st4" d="M103.4,43.7c0,0-0.5-0.1-0.9-0.7c-0.4-0.6-0.6-1.5-0.4-2.2c0.1-0.7,0.6-1.5,1.1-2
					c0.5-0.5,0.9-0.8,0.9-0.8c0.1,0,0.4,0.3,0.4,0.4c0,0-0.3,0.4-0.8,0.9c-0.4,0.5-0.9,1.1-1.1,1.7c-0.2,0.5-0.3,1.4,0,2
					C102.9,43.5,103.4,43.7,103.4,43.7C103.5,43.8,103.5,43.8,103.4,43.7z"/>
				<path id="XMLID_1902_" class="st4" d="M93.2,123.7c0,0-1-1-1.6-1.9c-0.3-0.4-0.5-1-0.5-1.5c-0.1-0.5,0-0.9,0-0.9
					c0-0.1,0.8-0.1,0.8-0.1c0,0,0.3,1.4,0.5,2.2c0.1,0.4,0.2,1,0.4,1.4C93,123.4,93.2,123.7,93.2,123.7
					C93.2,123.7,93.2,123.7,93.2,123.7z"/>
				<path id="XMLID_1901_" class="st4" d="M71,171.8c0,0,0.3,0.5,0.7,1.4c0.4,0.9,0.9,2.2,1.4,3.8c0.5,1.6,0.9,3.5,1.1,5.5
					c0.1,1,0.2,2,0.2,3.1c0,0.5,0,1,0,1.6l-0.1,0.9c0,0.5-0.1,1-0.1,1.5c0,0-0.2,0-0.3,0.1c-0.1,0-0.2,0-0.3,0
					c-0.1-0.2-0.2-0.7-0.3-1.1c-0.1-0.2-0.2-0.5-0.2-0.6l-0.1-0.3c-0.1-0.2-0.2-0.5-0.3-0.7c-0.2-0.5-0.4-0.9-0.7-1.4
					c-0.5-0.9-1-1.9-1.7-2.7c-0.6-0.9-1.4-1.7-2-2.6c-0.7-0.9-1.1-2.1-1-3.2c0-2.2,1.1-3.8,1.8-4.9c0.7-1,1.3-1.6,1.3-1.6
					c0.3-0.3,0.8,0.2,0.6,0.5c0,0-0.5,0.6-1.2,1.6c-0.6,1-1.5,2.5-1.5,4.4c0,0.9,0.3,1.8,0.9,2.7c0.6,0.8,1.4,1.7,2,2.6
					c0.6,0.9,1.2,1.9,1.7,2.9c0.2,0.5,0.5,1,0.6,1.5c0.1,0.2,0.2,0.5,0.3,0.7l0.1,0.4c0,0.1,0,0,0,0.1l0,0c0,0,0,0.1,0,0.1
					c0-0.1,0,0,0,0l0,0l0,0l0,0c0-0.1,0,0,0,0l0.1-0.6c0-0.5,0.1-1,0.1-1.5c0-1,0-2-0.1-3c-0.1-2-0.5-3.9-0.9-5.5
					c-0.4-1.6-0.9-2.9-1.3-3.9C71.3,172.3,71,171.8,71,171.8C70.8,171.5,70.8,171.5,71,171.8z"/>
				<path id="XMLID_1900_" class="st4" d="M75.1,182.6c0,0-0.1-1.4-0.5-3.4c-0.4-2-1.1-4.4-1.9-6.6l0.4-0.2c0.1,0.2,0.4,0.6,0.6,0.9
					c1.2,1.9,2.1,4.8,2.3,7.1c0.2,2.3-0.2,4.1-0.2,4.1c0,0.2-0.5,0.1-0.5-0.1c0,0,0.3-1.7,0.1-3.9c-0.2-2.3-1-5-2.1-6.9
					c-0.2-0.4-0.5-0.8-0.6-0.9l0.4-0.2c0.7,2.2,1.2,4.8,1.5,6.7C75,181.2,75.1,182.6,75.1,182.6C75.1,182.9,75.1,182.8,75.1,182.6z"
					/>
				<path id="XMLID_1899_" class="st4" d="M68.7,180.5c0,0,0.5,0.4,1.1,1.1c0.7,0.7,1.5,1.8,2.3,3.2c0.4,0.7,0.8,1.4,1.1,2.2
					c0.3,0.8,0.6,1.6,0.9,2.6c-0.6,0.5-1.2,0-1.4-0.4c-0.3-0.4-0.4-0.9-0.5-1.3l-0.2-0.6l0-0.2c0,0,0,0,0,0
					c-0.2,0.1-0.3,0.2-0.5,0.3c-0.1,0-0.4,0.6-0.7,1.2c0-0.3-0.1-0.8-0.2-1.4c0-0.3-0.1-0.5-0.1-0.8c0-0.2-0.1-0.7-0.1-0.5l0,0
					c0,0,0-0.1-0.1,0.2c-0.2,0.4-0.4,0.8-0.5,1.2c-0.1,0.2-0.2,0.3-0.2,0.5c-0.1,0.1-0.1,0.1-0.2,0.3c0,0,0,0.1-0.2,0
					c-0.1,0-0.3-0.1-0.3-0.1c0-0.1-0.1-0.1-0.1-0.2l0,0l0-0.1c0.3-1.6,0.3-3.1,0-4.4c-0.3-1.3-0.9-2.3-1.2-3.3
					c-0.3-1-0.4-1.8-0.4-2.4c0-0.6,0.2-0.9,0.2-0.9c0.1-0.4,0.6-0.2,0.5,0.1c0,0-0.1,0.3-0.1,0.8c0,0.5,0.1,1.3,0.4,2.2
					c0.2,0.5,0.4,1,0.6,1.5c0.2,0.5,0.5,1.2,0.6,1.9c0.3,1.4,0.2,3-0.1,4.7l0-0.1c0,0,0,0,0,0c0,0-0.1,0-0.2,0.1c-0.1,0.1,0,0-0.1,0
					c0,0,0,0-0.1-0.1c0-0.1-0.1-0.1-0.1-0.1l0,0l0-0.1c0.1-0.1,0.1-0.3,0.2-0.4c0.2-0.3,0.3-0.7,0.6-1.2c0.1-0.2,0.2-0.3,0.2-0.5
					c0.1-0.2,0.2-0.4,0.4-0.5c0.3-0.5,0.4,0,0.5,0.4c0.1,0.6,0.2,1.2,0.3,1.9c0,0.1,0,0,0,0l0,0l0,0l0,0l0.1-0.1
					c0.2-0.2,0.4-0.3,0.6-0.4c0.1,0,0.2-0.1,0.3-0.1l0.2,0c0,0,0,0.1,0.1,0.1l0.1,0.3l0,0.2l0.1,0.6c0.1,0.4,0.2,0.9,0.4,1.2
					c0.1,0.2,0.2,0.3,0.4,0.4c0.1,0.1,0.4,0,0.4,0c-0.2-0.7-0.4-1.7-0.7-2.4c-0.3-0.8-0.6-1.6-1-2.3c-0.7-1.4-1.5-2.5-2.2-3.2
					C69.1,180.9,68.7,180.5,68.7,180.5C68.4,180.3,68.4,180.3,68.7,180.5z"/>
			</g>
		</g>
		<path id="XMLID_2016_" class="st4" d="M89.5,48.9c-6.5,0-11.9-5.3-11.9-11.9s5.3-11.9,11.9-11.9c6.5,0,11.9,5.3,11.9,11.9
			S96,48.9,89.5,48.9z M89.5,26.1c-6,0-10.9,4.9-10.9,10.9s4.9,10.9,10.9,10.9c6,0,10.9-4.9,10.9-10.9S95.5,26.1,89.5,26.1z"/>
		<path id="XMLID_1886_" class="st17" d="M64.5,43.9c0,0-5.7,1.9-8.2,5.2"/>
		<path id="XMLID_1885_" class="st17" d="M57.5,50.8c0,0-1.5-3.2-4.4-1.9c-2.7,1.2-1,3.5,0.2,6.4c1.2,3.2-0.2,4.9,3.8,5.6
			c3.2,0.6,3.9-2.6,3.9-2.6"/>
		<path id="XMLID_1884_" class="st17" d="M58.6,61c4,3.9,8.5,6.5,13,8.9"/>
		<path id="XMLID_1883_" class="st18" d="M55.2,52.5c2,0.7,3.2,1.9,2.9,3.4c-0.3,1.4-3.5,1.1-1.4-2.4"/>
		<path id="XMLID_1882_" class="st4" d="M56.9,56.7c-0.5,0-0.9-0.5-1-1c-0.1-0.5,0.1-1,0.3-1.5c0.1-0.3,0.3-0.6,0.6-0.7
			c0.3-0.1,0.6,0.2,0.8,0.5c0.3,0.4,0.6,0.7,0.7,1.2c0.2,0.4,0.1,1-0.2,1.3c-0.3,0.4-0.8,0.4-1.3,0.5"/>
		<g id="XMLID_1838_">
			<circle id="XMLID_1878_" class="st4" cx="93.1" cy="36.5" r="1.6"/>
			<circle id="XMLID_1879_" class="st4" cx="68.1" cy="31.8" r="1.6"/>
			<path id="XMLID_2143_" class="st4" d="M63.2,34c0-6.2,5.1-11.3,11.3-11.3c3.5,0,6.7,1.6,8.8,4.2c0.3-0.2,0.5-0.3,0.8-0.5
				c-2.2-2.8-5.7-4.6-9.6-4.6c-6.8,0-12.3,5.5-12.3,12.3c0,1.2,0.2,2.3,0.5,3.4c0.2-0.3,0.5-0.6,0.7-0.9
				C63.3,35.7,63.2,34.9,63.2,34z"/>
		</g>
	</g>
</g>
</svg>
